SplineFontDB: 3.0
FontName: Metamorphous
FullName: Metamorphous
FamilyName: Metamorphous
Weight: Book
Copyright: Copyright (c) 2011, Sorkin Type Co (www.sorkintype.com)\nwith Reserved Font Name "Metamorphous". 
Version: 1.001
ItalicAngle: 0
UnderlinePosition: -51
UnderlineWidth: 94
Ascent: 1638
Descent: 410
LayerCount: 2
Layer: 0 1 "Back"  1
Layer: 1 1 "Fore"  0
XUID: [1021 631 1661839179 63009]
FSType: 0
OS2Version: 3
OS2_WeightWidthSlopeOnly: 0
OS2_UseTypoMetrics: 1
CreationTime: 1323154740
ModificationTime: 1333947996
PfmFamily: 17
TTFWeight: 400
TTFWidth: 5
LineGap: 0
VLineGap: 0
Panose: 2 0 6 6 8 0 0 2 0 4
OS2TypoAscent: 334
OS2TypoAOffset: 1
OS2TypoDescent: -178
OS2TypoDOffset: 1
OS2TypoLinegap: 0
OS2WinAscent: 0
OS2WinAOffset: 1
OS2WinDescent: 0
OS2WinDOffset: 1
HheadAscent: 0
HheadAOffset: 1
HheadDescent: 0
HheadDOffset: 1
OS2SubXSize: 1434
OS2SubYSize: 1331
OS2SubXOff: 0
OS2SubYOff: 287
OS2SupXSize: 1434
OS2SupYSize: 1331
OS2SupXOff: 0
OS2SupYOff: 977
OS2StrikeYSize: 102
OS2StrikeYPos: 512
OS2Vendor: 'STC '
OS2CodePages: 20000093.00000000
OS2UnicodeRanges: a00000af.4000204a.00000000.00000000
DEI: 91125
TtTable: prep
MPPEM
PUSHW_1
 122
GT
IF
PUSHB_2
 1
 1
INSTCTRL
EIF
PUSHW_2
 2048
 2048
MUL
DUP
PUSHB_1
 1
SWAP
WCVTP
DUP
PUSHB_1
 3
SWAP
WCVTF
PUSHB_1
 21
RCVT
DUP
DUP
PUSHB_1
 40
ADD
FLOOR
DUP
ROLL
NEQ
IF
PUSHB_1
 2
CINDEX
SUB
PUSHB_1
 1
RCVT
MUL
SWAP
DIV
PUSHB_1
 2
SWAP
WCVTP
PUSHB_4
 10
 11
 3
 2
CALL
PUSHB_4
 12
 17
 3
 2
CALL
PUSHB_4
 18
 23
 3
 2
CALL
EIF
PUSHB_3
 4
 40
 7
RCVT
GT
WCVTP
PUSHB_4
 12
 17
 4
 2
CALL
PUSHW_1
 511
SCANCTRL
PUSHB_1
 4
SCANTYPE
PUSHB_2
 5
 0
WCVTP
EndTTInstrs
TtTable: fpgm
PUSHB_1
 0
FDEF
DUP
ABS
PUSHB_1
 32
ADD
FLOOR
SWAP
PUSHB_1
 0
LT
IF
NEG
EIF
ENDF
PUSHB_1
 1
FDEF
DUP
ABS
DUP
PUSHB_1
 192
LT
PUSHB_1
 4
MINDEX
AND
PUSHB_1
 4
RCVT
OR
IF
POP
SWAP
POP
ELSE
ROLL
IF
DUP
PUSHB_1
 80
LT
IF
POP
PUSHB_1
 64
EIF
ELSE
DUP
PUSHB_1
 56
LT
IF
POP
PUSHB_1
 56
EIF
EIF
DUP
PUSHB_1
 10
RCVT
SUB
ABS
PUSHB_1
 40
LT
IF
POP
PUSHB_1
 10
RCVT
DUP

StartChar: .notdef
Encoding: 65536 -1 0
Width: 1770
Flags: W
LayerCount: 2
Fore
SplineSet
177 1416 m 1,0,-1
 1593 1416 l 1,1,-1
 1593 0 l 1,2,-1
 177 0 l 1,3,-1
 177 1416 l 1,0,-1
378 864 m 1,4,5
 457 933 457 933 492 933 c 0,6,7
 530 933 530 933 601 860 c 1,8,-1
 753 708 l 1,9,-1
 600 556 l 2,10,11
 527 483 527 483 498 483 c 128,-1,12
 469 483 469 483 443.5 501 c 128,-1,13
 418 519 418 519 377 552 c 1,14,-1
 323 497 l 1,15,-1
 670 149 l 1,16,-1
 725 204 l 1,17,18
 656 283 656 283 656 318 c 0,19,20
 656 356 656 356 729 427 c 1,21,-1
 882 579 l 1,22,-1
 1032 429 l 2,23,24
 1106 355 1106 355 1106 327 c 128,-1,25
 1106 299 1106 299 1093.5 278.5 c 128,-1,26
 1081 258 1081 258 1058 227 c 2,27,-1
 1039 202 l 1,28,-1
 1092 150 l 1,29,-1
 1440 497 l 1,30,-1
 1387 550 l 1,31,-1
 1358 530 l 1,32,33
 1297 483 1297 483 1272.5 483 c 128,-1,34
 1248 483 1248 483 1224.5 500.5 c 128,-1,35
 1201 518 1201 518 1161 558 c 2,36,-1
 1011 708 l 1,37,-1
 1160 858 l 2,38,39
 1234 932 1234 932 1262 932 c 128,-1,40
 1290 932 1290 932 1310.5 919.5 c 128,-1,41
 1331 907 1331 907 1362 884 c 2,42,-1
 1387 865 l 1,43,-1
 1439 918 l 1,44,-1
 1092 1266 l 1,45,-1
 1039 1213 l 1,46,-1
 1059 1184 l 1,47,48
 1106 1123 1106 1123 1106 1098.5 c 128,-1,49
 1106 1074 1106 1074 1088.5 1050.5 c 128,-1,50
 1071 1027 1071 1027 1031 987 c 2,51,-1
 882 837 l 1,52,-1
 730 989 l 2,53,54
 657 1062 657 1062 657 1091 c 128,-1,55
 657 1120 657 1120 675 1145.5 c 128,-1,56
 693 1171 693 1171 726 1212 c 1,57,-1
 671 1266 l 1,58,-1
 323 919 l 1,59,-1
 378 864 l 1,4,5
EndSplineSet
EndChar

StartChar: exclam
Encoding: 33 33 23
Width: 512
GlyphClass: 2
Flags: W
LayerCount: 2
Fore
SplineSet
219 409 m 1,0,1
 211 1020 211 1020 127 1381 c 0,2,3
 108 1463 108 1463 83 1527 c 1,4,-1
 266 1706 l 1,5,-1
 444 1527 l 1,6,7
 364 1313 364 1313 332 840 c 0,8,9
 317 631 317 631 315 409 c 1,10,-1
 219 409 l 1,0,1
271 302 m 1,11,-1
 449 123 l 1,12,-1
 271 -58 l 1,13,-1
 89 123 l 1,14,-1
 271 302 l 1,11,-1
EndSplineSet
EndChar

StartChar: quotedbl
Encoding: 34 34 24
Width: 1025
GlyphClass: 2
Flags: W
LayerCount: 2
Fore
SplineSet
942 1527 m 1,0,1
 824 1345 824 1345 813 895 c 1,2,-1
 716 895 l 1,3,4
 705 1342 705 1342 580 1527 c 1,5,-1
 763 1706 l 1,6,-1
 942 1527 l 1,0,1
457 1527 m 1,7,8
 339 1345 339 1345 328 895 c 1,9,-1
 231 895 l 1,10,11
 220 1342 220 1342 95 1527 c 1,12,-1
 278 1706 l 1,13,-1
 457 1527 l 1,7,8
EndSplineSet
EndChar

StartChar: numbersign
Encoding: 35 35 25
Width: 1539
GlyphClass: 2
Flags: W
LayerCount: 2
Fore
SplineSet
404 393 m 1,0,-1
 158 393 l 1,1,-1
 198 560 l 1,2,-1
 418 560 l 1,3,-1
 450 940 l 1,4,-1
 182 940 l 1,5,-1
 221 1107 l 1,6,-1
 464 1107 l 1,7,-1
 497 1477 l 1,8,-1
 665 1463 l 1,9,-1
 634 1107 l 1,10,-1
 975 1107 l 1,11,-1
 1008 1477 l 1,12,-1
 1176 1463 l 1,13,-1
 1145 1107 l 1,14,-1
 1381 1107 l 1,15,-1
 1340 940 l 1,16,-1
 1131 940 l 1,17,-1
 1098 560 l 1,18,-1
 1347 560 l 1,19,-1
 1306 393 l 1,20,-1
 1084 393 l 1,21,-1
 1050 -13 l 1,22,-1
 881 1 l 1,23,-1
 915 393 l 1,24,-1
 573 393 l 1,25,-1
 539 -13 l 1,26,-1
 371 1 l 1,27,-1
 404 393 l 1,0,-1
929 560 m 1,28,-1
 961 940 l 1,29,-1
 620 940 l 1,30,-1
 587 560 l 1,31,-1
 929 560 l 1,28,-1
EndSplineSet
EndChar

StartChar: dollar
Encoding: 36 36 26
Width: 1526
GlyphClass: 2
Flags: W
LayerCount: 2
Fore
SplineSet
232.5 174 m 128,-1,1
 189 235 189 235 189 303 c 128,-1,2
 189 371 189 371 215 414.5 c 128,-1,3
 241 458 241 458 278 489 c 0,4,5
 349 547 349 547 430 563 c 1,6,-1
 484 499 l 1,7,-1
 460 471 l 1,8,9
 426 428 426 428 426 363 c 128,-1,10
 426 298 426 298 443.5 253 c 128,-1,11
 461 208 461 208 496 172 c 0,12,13
 573 95 573 95 711 83 c 1,14,-1
 711 715 l 1,15,16
 476 832 476 832 369 931 c 0,17,18
 248 1044 248 1044 248 1173 c 0,19,20
 248 1329 248 1329 389 1434 c 0,21,22
 517 1529 517 1529 711 1548 c 1,23,-1
 711 1770 l 1,24,-1
 816 1770 l 1,25,-1
 816 1551 l 1,26,27
 997 1545 997 1545 1126 1472 c 0,28,29
 1262 1395 1262 1395 1262 1287 c 0,30,31
 1262 1197 1262 1197 1155 1130 c 0,32,33
 1118 1107 1118 1107 1067 1092 c 1,34,-1
 993 1141 l 1,35,-1
 1014 1166 l 2,36,37
 1049 1208 1049 1208 1049 1277.5 c 128,-1,38
 1049 1347 1049 1347 985.5 1390 c 128,-1,39
 922 1433 922 1433 816 1441 c 1,40,-1
 816 866 l 1,41,-1
 862 842 l 1,42,43
 1097 726 1097 726 1178 658 c 128,-1,44
 1259 590 1259 590 1297.5 526.5 c 128,-1,45
 1336 463 1336 463 1336 376 c 128,-1,46
 1336 289 1336 289 1294.5 215.5 c 128,-1,47
 1253 142 1253 142 1182 92 c 0,48,49
 1041 -6 1041 -6 816 -21 c 1,50,-1
 816 -232 l 1,51,-1
 711 -232 l 1,52,-1
 711 -22 l 1,53,54
 494 -16 494 -16 348 70 c 0,55,0
 276 113 276 113 232.5 174 c 128,-1,1
711 1441 m 1,56,57
 542 1421 542 1421 489 1309 c 0,58,59
 471 1271 471 1271 471 1222 c 128,-1,60
 471 1173 471 1173 486 1133 c 128,-1,61
 501 1093 501 1093 531 1058 c 0,62,63
 586 994 586 994 711 923 c 1,64,-1
 711 1441 l 1,56,57
816 83 m 1,65,66
 952 94 952 94 1029 158 c 128,-1,67
 1106 222 1106 222 1106 341 c 0,68,69
 1106 488 1106 488 926 597 c 0,70,71
 874 629 874 629 816 660 c 1,72,-1
 816 83 l 1,65,66
EndSplineSet
EndChar

StartChar: percent
Encoding: 37 37 27
Width: 2221
GlyphClass: 2
Flags: W
LayerCount: 2
Fore
SplineSet
1449 1543 m 1,0,-1
 1601 1543 l 1,1,-1
 776 -70 l 1,2,-1
 622 -70 l 1,3,-1
 1449 1543 l 1,0,-1
610 673 m 0,4,5
 509 673 509 673 433.5 709 c 128,-1,6
 358 745 358 745 308 804 c 1,7,8
 207 920 207 920 207 1085 c 0,9,10
 207 1252 207 1252 308 1370 c 1,11,12
 420 1499 420 1499 610 1499 c 0,13,14
 799 1499 799 1499 912 1370 c 1,15,16
 1014 1252 1014 1252 1014 1085 c 0,17,18
 1014 917 1014 917 912 801 c 0,19,20
 799 673 799 673 610 673 c 0,4,5
508.5 800 m 128,-1,22
 549 771 549 771 612.5 771 c 128,-1,23
 676 771 676 771 716 799.5 c 128,-1,24
 756 828 756 828 780 873 c 0,25,26
 821 952 821 952 821 1085 c 0,27,28
 821 1301 821 1301 716 1376 c 0,29,30
 676 1404 676 1404 613 1404 c 0,31,32
 404 1404 404 1404 404 1085 c 0,33,34
 404 952 404 952 436 890.5 c 128,-1,21
 468 829 468 829 508.5 800 c 128,-1,22
1207 358 m 0,35,36
 1207 434 1207 434 1232.5 508.5 c 128,-1,37
 1258 583 1258 583 1309 642 c 0,38,39
 1422 771 1422 771 1611 771 c 256,40,41
 1800 771 1800 771 1913 642 c 1,42,43
 2015 524 2015 524 2015 357 c 0,44,45
 2015 189 2015 189 1913 73 c 0,46,47
 1800 -55 1800 -55 1611 -55 c 128,-1,48
 1422 -55 1422 -55 1308 75 c 1,49,50
 1207 192 1207 192 1207 358 c 0,35,36
1404 357 m 0,51,52
 1404 224 1404 224 1436 162 c 128,-1,53
 1468 100 1468 100 1508.5 70.5 c 128,-1,54
 1549 41 1549 41 1612.5 41 c 128,-1,55
 1676 41 1676 41 1716.5 70 c 128,-1,56
 1757 99 1757 99 1780 144 c 0,57,58
 1821 226 1821 226 1821 357 c 0,59,60
 1821 573 1821 573 1716 646 c 0,61,62
 1676 675 1676 675 1613 675 c 0,63,64
 1404 675 1404 675 1404 357 c 0,51,52
EndSplineSet
EndChar

StartChar: ampersand
Encoding: 38 38 28
Width: 1533
GlyphClass: 2
Flags: W
LayerCount: 2
Fore
SplineSet
1028 1058 m 1,0,1
 1036 1110 1036 1110 1036 1173.5 c 128,-1,2
 1036 1237 1036 1237 1016.5 1283.5 c 128,-1,3
 997 1330 997 1330 958 1364 c 0,4,5
 874 1439 874 1439 720 1439 c 0,6,7
 549 1439 549 1439 492 1298 c 0,8,9
 470 1243 470 1243 470 1167.5 c 128,-1,10
 470 1092 470 1092 487 1040 c 128,-1,11
 504 988 504 988 536 951 c 0,12,13
 600 875 600 875 710 869 c 1,14,-1
 710 765 l 1,15,16
 476 765 476 765 408 554 c 0,17,18
 385 485 385 485 385 399 c 128,-1,19
 385 313 385 313 416 254 c 128,-1,20
 447 195 447 195 498 156 c 0,21,22
 595 82 595 82 744 82 c 0,23,24
 960 82 960 82 1125 214 c 1,25,-1
 1112 601 l 2,26,27
 1108 706 1108 706 1086.5 728 c 128,-1,28
 1065 750 1065 750 1033.5 757 c 128,-1,29
 1002 764 1002 764 949 769 c 1,30,-1
 949 847 l 1,31,-1
 1441 847 l 1,32,-1
 1441 769 l 1,33,34
 1349 759 1349 759 1330.5 738.5 c 128,-1,35
 1312 718 1312 718 1307 687 c 128,-1,36
 1302 656 1302 656 1300 601 c 2,37,-1
 1260 -536 l 1,38,-1
 1152 -536 l 1,39,-1
 1130 71 l 1,40,41
 990 -26 990 -26 719 -26 c 0,42,43
 454 -26 454 -26 304 93 c 0,44,45
 153 213 153 213 153 426 c 0,46,47
 153 581 153 581 260 690 c 0,48,49
 355 787 355 787 506 824 c 1,50,51
 306 884 306 884 252 1054 c 0,52,53
 238 1101 238 1101 238 1171 c 128,-1,54
 238 1241 238 1241 267 1311 c 128,-1,55
 296 1381 296 1381 356 1432 c 1,56,57
 483 1543 483 1543 720 1543 c 0,58,59
 841 1543 841 1543 950 1504 c 1,60,61
 1021 1477 1021 1477 1048 1477 c 0,62,63
 1107 1477 1107 1477 1157 1555 c 1,64,-1
 1253 1555 l 1,65,-1
 1125 1058 l 1,66,-1
 1028 1058 l 1,0,1
EndSplineSet
EndChar

StartChar: quotesingle
Encoding: 39 39 29
Width: 512
GlyphClass: 2
Flags: W
LayerCount: 2
Fore
SplineSet
231 895 m 1,0,1
 223 1239 223 1239 136 1444 c 0,2,3
 117 1491 117 1491 92 1527 c 1,4,-1
 278 1706 l 1,5,-1
 460 1527 l 1,6,7
 342 1351 342 1351 328 895 c 1,8,-1
 231 895 l 1,0,1
EndSplineSet
EndChar

StartChar: parenleft
Encoding: 40 40 30
Width: 1022
GlyphClass: 2
Flags: W
LayerCount: 2
Fore
SplineSet
415 809 m 0,0,1
 415 41 415 41 812 -291 c 1,2,-1
 754 -350 l 1,3,4
 551 -201 551 -201 404 34 c 0,5,6
 200 360 200 360 200 793 c 0,7,8
 200 1307 200 1307 524 1674 c 0,9,10
 636 1800 636 1800 754 1872 c 1,11,-1
 812 1812 l 1,12,13
 450 1498 450 1498 420 958 c 0,14,15
 415 878 415 878 415 809 c 0,0,1
EndSplineSet
EndChar

StartChar: parenright
Encoding: 41 41 31
Width: 1022
GlyphClass: 2
Flags: W
LayerCount: 2
Fore
SplineSet
607 809 m 0,0,1
 607 41 607 41 210 -291 c 1,2,-1
 268 -350 l 1,3,4
 471 -201 471 -201 618 34 c 0,5,6
 822 360 822 360 822 793 c 0,7,8
 822 1307 822 1307 498 1674 c 0,9,10
 386 1800 386 1800 268 1872 c 1,11,-1
 210 1812 l 1,12,13
 572 1498 572 1498 602 958 c 0,14,15
 607 878 607 878 607 809 c 0,0,1
EndSplineSet
EndChar

StartChar: asterisk
Encoding: 42 42 32
Width: 1195
GlyphClass: 2
Flags: W
LayerCount: 2
Fore
SplineSet
643 1294 m 1,0,1
 666 1044 666 1044 745 932 c 1,2,-1
 597 787 l 1,3,-1
 451 932 l 1,4,5
 525 1042 525 1042 549 1295 c 1,6,-1
 474 1238 l 1,7,8
 334 1126 334 1126 286 1026 c 1,9,-1
 85 1082 l 1,10,-1
 137 1280 l 1,11,12
 273 1273 273 1273 503 1377 c 1,13,14
 271 1482 271 1482 136 1472 c 1,15,-1
 85 1673 l 1,16,-1
 284 1726 l 1,17,18
 346 1601 346 1601 550 1460 c 1,19,20
 527 1708 527 1708 449 1822 c 1,21,-1
 598 1968 l 1,22,-1
 743 1822 l 1,23,24
 667 1706 667 1706 644 1460 c 1,25,26
 776 1552 776 1552 860 1653 c 0,27,28
 890 1690 890 1690 908 1728 c 1,29,-1
 1109 1672 l 1,30,-1
 1057 1475 l 1,31,32
 922 1481 922 1481 690 1377 c 1,33,34
 921 1273 921 1273 1058 1283 c 1,35,-1
 1109 1081 l 1,36,-1
 910 1028 l 1,37,38
 859 1125 859 1125 718 1237 c 1,39,-1
 643 1294 l 1,0,1
EndSplineSet
EndChar

StartChar: plus
Encoding: 43 43 33
Width: 1360
GlyphClass: 2
Flags: W
LayerCount: 2
Fore
SplineSet
616 753 m 1,0,-1
 99 753 l 1,1,-1
 139 919 l 1,2,-1
 616 919 l 1,3,-1
 616 1396 l 1,4,-1
 785 1396 l 1,5,-1
 785 919 l 1,6,-1
 1260 919 l 1,7,-1
 1220 753 l 1,8,-1
 785 753 l 1,9,-1
 785 278 l 1,10,-1
 616 278 l 1,11,-1
 616 753 l 1,0,-1
EndSplineSet
EndChar

StartChar: comma
Encoding: 44 44 34
Width: 512
GlyphClass: 2
Flags: W
LayerCount: 2
Fore
SplineSet
257 302 m 1,0,-1
 435 123 l 1,1,2
 444 10 444 10 378 -161 c 0,3,4
 304 -355 304 -355 173 -503 c 1,5,-1
 96 -450 l 1,6,7
 172 -342 172 -342 198 -196 c 0,8,9
 205 -154 205 -154 205 -118 c 0,10,11
 205 -48 205 -48 182 -7 c 0,12,13
 149 50 149 50 76 123 c 1,14,-1
 257 302 l 1,0,-1
EndSplineSet
EndChar

StartChar: hyphen
Encoding: 45 45 35
Width: 1360
GlyphClass: 2
Flags: W
LayerCount: 2
Fore
SplineSet
292 919 m 1,0,-1
 1108 919 l 1,1,-1
 1065 753 l 1,2,-1
 251 753 l 1,3,-1
 292 919 l 1,0,-1
EndSplineSet
EndChar

StartChar: period
Encoding: 46 46 36
Width: 512
GlyphClass: 2
Flags: W
LayerCount: 2
Fore
SplineSet
257 302 m 1,0,-1
 435 123 l 1,1,-1
 257 -58 l 1,2,-1
 75 123 l 1,3,-1
 257 302 l 1,0,-1
EndSplineSet
EndChar

StartChar: slash
Encoding: 47 47 37
Width: 848
GlyphClass: 2
Flags: W
LayerCount: 2
Fore
SplineSet
627 1658 m 1,0,-1
 779 1658 l 1,1,-1
 223 -30 l 1,2,-1
 69 -30 l 1,3,-1
 627 1658 l 1,0,-1
EndSplineSet
EndChar

StartChar: zero
Encoding: 48 48 38
Width: 1365
GlyphClass: 2
Flags: W
LayerCount: 2
Fore
SplineSet
106 664 m 0,0,1
 106 749 106 749 122.5 833.5 c 128,-1,2
 139 918 139 918 171.5 994.5 c 128,-1,3
 204 1071 204 1071 252.5 1136.5 c 128,-1,4
 301 1202 301 1202 366 1250 c 0,5,6
 504 1353 504 1353 687 1353 c 0,7,8
 956 1353 956 1353 1115 1136 c 0,9,10
 1259 940 1259 940 1259 663 c 0,11,12
 1259 380 1259 380 1115 188 c 1,13,14
 956 -26 956 -26 687 -26 c 0,15,16
 502 -26 502 -26 364 77 c 0,17,18
 240 169 240 169 170 332 c 1,19,20
 106 484 106 484 106 664 c 0,0,1
218 663 m 0,21,22
 218 297 218 297 522 213 c 0,23,24
 594 193 594 193 688.5 193 c 128,-1,25
 783 193 783 193 853 212.5 c 128,-1,26
 923 232 923 232 974 266.5 c 128,-1,27
 1025 301 1025 301 1058 346.5 c 128,-1,28
 1091 392 1091 392 1111 444 c 0,29,30
 1147 539 1147 539 1147 629 c 128,-1,31
 1147 719 1147 719 1139 776 c 128,-1,32
 1131 833 1131 833 1111 886 c 128,-1,33
 1091 939 1091 939 1058 984.5 c 128,-1,34
 1025 1030 1025 1030 974 1064 c 0,35,36
 864 1137 864 1137 690 1137 c 0,37,38
 355 1137 355 1137 256 881 c 0,39,40
 218 784 218 784 218 663 c 0,21,22
EndSplineSet
EndChar

StartChar: one
Encoding: 49 49 39
Width: 1025
GlyphClass: 2
Flags: W
LayerCount: 2
Fore
SplineSet
137 100 m 1,0,1
 292 107 292 107 333.5 122.5 c 128,-1,2
 375 138 375 138 393 162 c 128,-1,3
 411 186 411 186 411 227 c 2,4,-1
 411 1076 l 2,5,6
 411 1128 411 1128 402 1158 c 128,-1,7
 393 1188 393 1188 364 1204 c 0,8,9
 318 1228 318 1228 137 1228 c 1,10,-1
 137 1327 l 1,11,-1
 611 1327 l 1,12,-1
 611 227 l 2,13,14
 611 152 611 152 683 125 c 0,15,16
 738 105 738 105 888 100 c 1,17,-1
 888 0 l 1,18,-1
 137 0 l 1,19,-1
 137 100 l 1,0,1
EndSplineSet
EndChar

StartChar: two
Encoding: 50 50 40
Width: 1364
GlyphClass: 2
Flags: W
LayerCount: 2
Fore
SplineSet
1110 -78 m 1,0,1
 1095 0 1095 0 1027 0 c 2,2,-1
 181 0 l 1,3,-1
 158 41 l 1,4,-1
 442 282 l 1,5,6
 730 530 730 530 838 714 c 1,7,8
 898 814 898 814 898 909 c 0,9,10
 898 1096 898 1096 750 1160 c 0,11,12
 696 1183 696 1183 614 1183 c 0,13,14
 483 1183 483 1183 395.5 1110 c 128,-1,15
 308 1037 308 1037 250 896 c 1,16,-1
 152 896 l 1,17,-1
 277 1397 l 1,18,-1
 388 1397 l 1,19,20
 383 1330 383 1330 424 1320 c 0,21,22
 436 1317 436 1317 446.5 1317 c 128,-1,23
 457 1317 457 1317 472 1320 c 2,24,-1
 504 1327 l 1,25,26
 609 1351 609 1351 685.5 1351 c 128,-1,27
 762 1351 762 1351 840 1323 c 128,-1,28
 918 1295 918 1295 978 1242 c 1,29,30
 1112 1127 1112 1127 1112 948 c 0,31,32
 1112 775 1112 775 974 613 c 0,33,34
 882 506 882 506 737 387 c 1,35,-1
 469 173 l 1,36,-1
 935 173 l 2,37,38
 1052 173 1052 173 1114 222 c 0,39,40
 1171 267 1171 267 1216 383 c 1,41,-1
 1314 383 l 1,42,-1
 1208 -78 l 1,43,-1
 1110 -78 l 1,0,1
EndSplineSet
EndChar

StartChar: three
Encoding: 51 51 41
Width: 1195
GlyphClass: 2
Flags: W
LayerCount: 2
Fore
SplineSet
1028 1327 m 1,0,1
 1028 968 1028 968 694 719 c 1,2,3
 960 673 960 673 1058 480 c 0,4,5
 1094 408 1094 408 1094 299.5 c 128,-1,6
 1094 191 1094 191 1053 90.5 c 128,-1,7
 1012 -10 1012 -10 944.5 -92.5 c 128,-1,8
 877 -175 877 -175 790 -240 c 128,-1,9
 703 -305 703 -305 611 -354 c 0,10,11
 446 -442 446 -442 263 -489 c 1,12,-1
 220 -403 l 1,13,14
 414 -357 414 -357 628 -201 c 0,15,16
 789 -83 789 -83 860 70 c 0,17,18
 898 150 898 150 898 226 c 128,-1,19
 898 302 898 302 872 363 c 128,-1,20
 846 424 846 424 794 473 c 0,21,22
 677 584 677 584 489 578 c 1,23,-1
 442 554 l 1,24,25
 418 543 418 543 396 534 c 1,26,-1
 344 616 l 1,27,28
 550 692 550 692 689 852 c 0,29,30
 811 992 811 992 844 1153 c 1,31,-1
 399 1153 l 2,32,33
 316 1153 316 1153 268 1094 c 0,34,35
 233 1052 233 1052 188 942 c 1,36,-1
 88 942 l 1,37,-1
 221 1407 l 1,38,-1
 317 1407 l 1,39,40
 308 1327 308 1327 380 1327 c 2,41,-1
 1028 1327 l 1,0,1
EndSplineSet
EndChar

StartChar: four
Encoding: 52 52 42
Width: 1533
GlyphClass: 2
Flags: W
LayerCount: 2
Fore
SplineSet
75 304 m 1,0,-1
 1068 1645 l 1,1,-1
 1034 376 l 1,2,-1
 1161 376 l 2,3,4
 1241 376 1241 376 1286 426 c 0,5,6
 1323 466 1323 466 1369 587 c 1,7,-1
 1467 587 l 1,8,-1
 1379 153 l 1,9,-1
 1283 153 l 1,10,11
 1277 188 1277 188 1256.5 209.5 c 128,-1,12
 1236 231 1236 231 1207 231 c 2,13,-1
 1030 231 l 1,14,-1
 1011 -509 l 1,15,-1
 885 -509 l 1,16,-1
 868 231 l 1,17,-1
 99 231 l 1,18,-1
 75 304 l 1,0,-1
865 376 m 1,19,-1
 849 1098 l 1,20,-1
 259 376 l 1,21,-1
 865 376 l 1,19,-1
EndSplineSet
EndChar

StartChar: five
Encoding: 53 53 43
Width: 1195
GlyphClass: 2
Flags: W
LayerCount: 2
Fore
SplineSet
195 -404 m 1,0,1
 424 -315 424 -315 572 -170 c 0,2,3
 686 -59 686 -59 744 86 c 0,4,5
 785 188 785 188 785 277 c 128,-1,6
 785 366 785 366 757 432 c 128,-1,7
 729 498 729 498 681 551 c 128,-1,8
 633 604 633 604 569.5 644 c 128,-1,9
 506 684 506 684 434 710 c 0,10,11
 293 763 293 763 143 763 c 0,12,13
 117 763 117 763 93 761 c 1,14,-1
 345 1328 l 1,15,-1
 775 1328 l 2,16,17
 890 1328 890 1328 946 1448 c 0,18,19
 964 1485 964 1485 982 1530 c 1,20,-1
 1083 1530 l 1,21,-1
 973 1153 l 1,22,-1
 405 1153 l 1,23,-1
 297 923 l 1,24,25
 559 912 559 912 743 792 c 0,26,27
 882 702 882 702 942 543 c 0,28,29
 972 461 972 461 974 357 c 1,30,31
 968 131 968 131 840 -61 c 1,32,33
 731 -222 731 -222 550 -342 c 1,34,35
 394 -444 394 -444 238 -489 c 1,36,-1
 195 -404 l 1,0,1
EndSplineSet
EndChar

StartChar: six
Encoding: 54 54 44
Width: 1364
GlyphClass: 2
Flags: W
LayerCount: 2
Fore
SplineSet
180 363 m 128,-1,1
 137 482 137 482 137 614.5 c 128,-1,2
 137 747 137 747 164.5 872 c 128,-1,3
 192 997 192 997 245 1114 c 128,-1,4
 298 1231 298 1231 376 1335 c 128,-1,5
 454 1439 454 1439 556 1522 c 0,6,7
 770 1696 770 1696 1047 1736 c 1,8,-1
 1077 1640 l 1,9,10
 832 1591 832 1591 649 1387 c 0,11,12
 475 1193 475 1193 405 914 c 1,13,14
 481 1009 481 1009 645 1042 c 0,15,16
 694 1052 694 1052 761.5 1052 c 128,-1,17
 829 1052 829 1052 900 1029.5 c 128,-1,18
 971 1007 971 1007 1027 968.5 c 128,-1,19
 1083 930 1083 930 1123.5 880 c 128,-1,20
 1164 830 1164 830 1190 774 c 1,21,22
 1243 665 1243 665 1243 546.5 c 128,-1,23
 1243 428 1243 428 1205 322 c 128,-1,24
 1167 216 1167 216 1096 139 c 0,25,26
 945 -26 945 -26 699 -26 c 0,27,28
 457 -26 457 -26 298 158 c 0,29,0
 223 244 223 244 180 363 c 128,-1,1
373 742 m 1,30,31
 367 693 367 693 367 678 c 2,32,-1
 366 650 l 2,33,34
 365 637 365 637 365 608.5 c 128,-1,35
 365 580 365 580 368.5 524 c 128,-1,36
 372 468 372 468 383.5 407 c 128,-1,37
 395 346 395 346 417.5 286 c 128,-1,38
 440 226 440 226 478 179 c 0,39,40
 562 73 562 73 705 73 c 0,41,42
 875 73 875 73 955 218 c 0,43,44
 1017 330 1017 330 1017 509 c 0,45,46
 1017 744 1017 744 896 852 c 1,47,48
 818 920 818 920 697 920 c 0,49,50
 536 920 536 920 428 816 c 0,51,52
 393 783 393 783 373 742 c 1,30,31
EndSplineSet
EndChar

StartChar: seven
Encoding: 55 55 45
Width: 1199
GlyphClass: 2
Flags: W
LayerCount: 2
Fore
SplineSet
834 1170 m 1,0,-1
 378 1170 l 2,1,2
 248 1170 248 1170 192 1052 c 1,3,-1
 155 970 l 1,4,-1
 56 970 l 1,5,-1
 168 1342 l 1,6,-1
 1070 1342 l 1,7,-1
 1107 1291 l 1,8,-1
 493 -497 l 1,9,-1
 389 -472 l 1,10,-1
 834 1170 l 1,0,-1
EndSplineSet
EndChar

StartChar: eight
Encoding: 56 56 46
Width: 1364
GlyphClass: 2
Flags: W
LayerCount: 2
Fore
SplineSet
148 399 m 0,0,1
 148 571 148 571 236.5 691 c 128,-1,2
 325 811 325 811 510 891 c 1,3,4
 275 1044 275 1044 237 1220 c 0,5,6
 225 1276 225 1276 225 1354 c 128,-1,7
 225 1432 225 1432 266.5 1503.5 c 128,-1,8
 308 1575 308 1575 374 1623 c 0,9,10
 509 1720 509 1720 688 1720 c 0,11,12
 908 1720 908 1720 1038 1597 c 0,13,14
 1153 1488 1153 1488 1153 1333 c 0,15,16
 1153 1197 1153 1197 1056 1084 c 0,17,18
 980 995 980 995 850 926 c 1,19,20
 1176 745 1176 745 1204 548 c 0,21,22
 1213 488 1213 488 1213 440.5 c 128,-1,23
 1213 393 1213 393 1204.5 346.5 c 128,-1,24
 1196 300 1196 300 1174.5 250 c 128,-1,25
 1153 200 1153 200 1115.5 151 c 128,-1,26
 1078 102 1078 102 1020 63 c 0,27,28
 892 -24 892 -24 695 -24 c 0,29,30
 452 -24 452 -24 292 112 c 1,31,32
 222 173 222 173 185 248.5 c 128,-1,33
 148 324 148 324 148 399 c 0,0,1
764 975 m 1,34,35
 846 1047 846 1047 878 1104 c 0,36,37
 941 1218 941 1218 941 1346 c 0,38,39
 941 1454 941 1454 882 1528 c 0,40,41
 810 1618 810 1618 676 1618 c 0,42,43
 546 1618 546 1618 472 1550 c 1,44,45
 404 1489 404 1489 404 1413 c 128,-1,46
 404 1337 404 1337 434.5 1277.5 c 128,-1,47
 465 1218 465 1218 515 1164 c 0,48,49
 604 1068 604 1068 764 975 c 1,34,35
392 592 m 0,50,51
 372 527 372 527 372 451.5 c 128,-1,52
 372 376 372 376 395.5 312 c 128,-1,53
 419 248 419 248 464 197 c 0,54,55
 565 83 565 83 722 83 c 0,56,57
 850 83 850 83 940 162 c 0,58,59
 1027 238 1027 238 1027 345 c 0,60,61
 1027 528 1027 528 801 692 c 0,62,63
 740 737 740 737 699 763 c 2,64,-1
 593 833 l 1,65,66
 444 760 444 760 392 592 c 0,50,51
EndSplineSet
EndChar

StartChar: nine
Encoding: 57 57 47
Width: 1361
GlyphClass: 2
Flags: W
LayerCount: 2
Fore
SplineSet
975 405 m 1,0,1
 819 277 819 277 639 277 c 0,2,3
 476 277 476 277 353 363 c 0,4,5
 196 472 196 472 150 676 c 0,6,7
 137 734 137 734 137 822 c 128,-1,8
 137 910 137 910 175.5 1014.5 c 128,-1,9
 214 1119 214 1119 286 1195 c 0,10,11
 436 1355 436 1355 685 1355 c 0,12,13
 928 1355 928 1355 1084 1182 c 0,14,15
 1243 1006 1243 1006 1243 726 c 0,16,17
 1243 472 1243 472 1135 230 c 0,18,19
 1023 -20 1023 -20 824 -187 c 0,20,21
 607 -369 607 -369 333 -407 c 1,22,-1
 303 -306 l 1,23,24
 551 -259 551 -259 730 -61 c 0,25,26
 903 129 903 129 975 405 c 1,0,1
578 418 m 0,27,28
 627 399 627 399 684 399 c 128,-1,29
 741 399 741 399 789.5 413.5 c 128,-1,30
 838 428 838 428 880 454 c 0,31,32
 966 506 966 506 1007 587 c 1,33,34
 1015 632 1015 632 1015 685.5 c 128,-1,35
 1015 739 1015 739 1013.5 791.5 c 128,-1,36
 1012 844 1012 844 1002.5 904.5 c 128,-1,37
 993 965 993 965 972.5 1027.5 c 128,-1,38
 952 1090 952 1090 915 1140 c 0,39,40
 831 1254 831 1254 679 1254 c 0,41,42
 509 1254 509 1254 427 1110 c 0,43,44
 363 998 363 998 363 820 c 0,45,46
 363 664 363 664 430 546 c 0,47,48
 481 457 481 457 578 418 c 0,27,28
EndSplineSet
EndChar

StartChar: colon
Encoding: 58 58 48
Width: 512
GlyphClass: 2
Flags: W
LayerCount: 2
Fore
SplineSet
258 302 m 1,0,-1
 436 123 l 1,1,-1
 258 -58 l 1,2,-1
 76 123 l 1,3,-1
 258 302 l 1,0,-1
258 1189 m 1,4,-1
 436 1010 l 1,5,-1
 258 829 l 1,6,-1
 76 1010 l 1,7,-1
 258 1189 l 1,4,-1
EndSplineSet
EndChar

StartChar: semicolon
Encoding: 59 59 49
Width: 512
GlyphClass: 2
Flags: W
LayerCount: 2
Fore
SplineSet
258 1189 m 1,0,-1
 436 1010 l 1,1,-1
 258 829 l 1,2,-1
 76 1010 l 1,3,-1
 258 1189 l 1,0,-1
255 302 m 1,4,-1
 433 123 l 1,5,6
 442 10 442 10 376 -161 c 0,7,8
 302 -355 302 -355 171 -503 c 1,9,-1
 94 -450 l 1,10,11
 170 -342 170 -342 196 -196 c 0,12,13
 203 -154 203 -154 203 -118 c 0,14,15
 203 -48 203 -48 180 -7 c 0,16,17
 147 50 147 50 74 123 c 1,18,-1
 255 302 l 1,4,-1
EndSplineSet
EndChar

StartChar: less
Encoding: 60 60 50
Width: 1360
GlyphClass: 2
Flags: W
LayerCount: 2
Fore
SplineSet
142 899 m 1,0,-1
 1147 1366 l 1,1,-1
 1217 1215 l 1,2,-1
 409 839 l 1,3,4
 409 839 409 839 1217 462 c 1,5,-1
 1147 311 l 1,6,-1
 142 779 l 1,7,-1
 142 899 l 1,0,-1
EndSplineSet
EndChar

StartChar: equal
Encoding: 61 61 51
Width: 1360
GlyphClass: 2
Flags: W
LayerCount: 2
Fore
SplineSet
188 1144 m 1,0,-1
 1212 1144 l 1,1,-1
 1171 977 l 1,2,-1
 148 977 l 1,3,-1
 188 1144 l 1,0,-1
188 692 m 1,4,-1
 1212 692 l 1,5,-1
 1171 525 l 1,6,-1
 148 525 l 1,7,-1
 188 692 l 1,4,-1
EndSplineSet
EndChar

StartChar: greater
Encoding: 62 62 52
Width: 1360
GlyphClass: 2
Flags: W
LayerCount: 2
Fore
SplineSet
142 462 m 1,0,-1
 950 839 l 1,1,2
 950 839 950 839 142 1215 c 1,3,-1
 212 1366 l 1,4,-1
 1217 899 l 1,5,-1
 1217 779 l 1,6,-1
 212 311 l 1,7,-1
 142 462 l 1,0,-1
EndSplineSet
EndChar

StartChar: question
Encoding: 63 63 53
Width: 1195
GlyphClass: 2
Flags: W
LayerCount: 2
Fore
SplineSet
392 1676 m 1,0,-1
 588 1687 l 1,1,2
 800 1687 800 1687 936 1577 c 1,3,4
 1081 1458 1081 1458 1081 1246 c 0,5,6
 1081 1051 1081 1051 966 906 c 0,7,8
 849 758 849 758 660 718 c 1,9,-1
 637 428 l 1,10,-1
 541 428 l 1,11,-1
 501 815 l 1,12,-1
 564 815 l 1,13,14
 842 857 842 857 842 1227 c 0,15,16
 842 1381 842 1381 768 1478 c 0,17,18
 692 1579 692 1579 565 1579 c 0,19,20
 420 1579 420 1579 342 1515 c 0,21,22
 259 1446 259 1446 195 1255 c 1,23,-1
 82 1255 l 1,24,-1
 203 1756 l 1,25,-1
 318 1756 l 1,26,27
 320 1719 320 1719 342.5 1697.5 c 128,-1,28
 365 1676 365 1676 392 1676 c 1,0,-1
589 302 m 1,29,-1
 767 123 l 1,30,-1
 589 -58 l 1,31,-1
 407 123 l 1,32,-1
 589 302 l 1,29,-1
EndSplineSet
EndChar

StartChar: at
Encoding: 64 64 54
Width: 2220
GlyphClass: 2
Flags: W
LayerCount: 2
Fore
SplineSet
1591 -198 m 1,0,-1
 1620 -286 l 1,1,2
 1489 -389 1489 -389 1238 -434 c 0,3,4
 1160 -448 1160 -448 1035.5 -448 c 128,-1,5
 911 -448 911 -448 775.5 -410.5 c 128,-1,6
 640 -373 640 -373 538.5 -308.5 c 128,-1,7
 437 -244 437 -244 366.5 -158 c 128,-1,8
 296 -72 296 -72 252 24 c 0,9,10
 169 205 169 205 169 397.5 c 128,-1,11
 169 590 169 590 208 740.5 c 128,-1,12
 247 891 247 891 318 1014.5 c 128,-1,13
 389 1138 389 1138 487.5 1234 c 128,-1,14
 586 1330 586 1330 705 1396 c 0,15,16
 948 1529 948 1529 1242 1529 c 0,17,18
 1586 1529 1586 1529 1824 1316 c 0,19,20
 1981 1176 1981 1176 2040 972 c 0,21,22
 2070 869 2070 869 2070 767 c 128,-1,23
 2070 665 2070 665 2048.5 575 c 128,-1,24
 2027 485 2027 485 1987 401.5 c 128,-1,25
 1947 318 1947 318 1891 244.5 c 128,-1,26
 1835 171 1835 171 1765 117 c 0,27,28
 1613 0 1613 0 1443 0 c 0,29,30
 1318 0 1318 0 1274 112 c 0,31,32
 1262 145 1262 145 1257 180 c 1,33,34
 1174 65 1174 65 1048 16 c 0,35,36
 1005 0 1005 0 945 0 c 128,-1,37
 885 0 885 0 829 33 c 128,-1,38
 773 66 773 66 736 122 c 0,39,40
 664 230 664 230 664 398 c 0,41,42
 664 659 664 659 824 874 c 0,43,44
 927 1013 927 1013 1076 1071 c 0,45,46
 1150 1100 1150 1100 1221.5 1100 c 128,-1,47
 1293 1100 1293 1100 1349 1085 c 128,-1,48
 1405 1070 1405 1070 1453 1046 c 0,49,50
 1550 998 1550 998 1598 932 c 1,51,-1
 1448 275 l 2,52,53
 1430 195 1430 195 1430 162 c 0,54,55
 1430 96 1430 96 1485 96 c 0,56,57
 1598 96 1598 96 1696 198 c 0,58,59
 1833 339 1833 339 1878 596 c 0,60,61
 1891 673 1891 673 1891 756 c 128,-1,62
 1891 839 1891 839 1872 925 c 128,-1,63
 1853 1011 1853 1011 1816.5 1087.5 c 128,-1,64
 1780 1164 1780 1164 1725 1228.5 c 128,-1,65
 1670 1293 1670 1293 1598 1340 c 0,66,67
 1446 1439 1446 1439 1242 1439 c 0,68,69
 887 1439 887 1439 634 1182 c 1,70,71
 457 1004 457 1004 388 714 c 0,72,73
 352 565 352 565 352 400.5 c 128,-1,74
 352 236 352 236 405.5 104.5 c 128,-1,75
 459 -27 459 -27 556 -124 c 0,76,77
 765 -335 765 -335 1073 -335 c 128,-1,78
 1381 -335 1381 -335 1591 -198 c 1,0,-1
1422 944 m 1,79,80
 1364 1000 1364 1000 1264 1000 c 0,81,82
 1154 1000 1154 1000 1052 898 c 0,83,84
 963 809 963 809 905 666 c 0,85,86
 850 529 850 529 856 420 c 1,87,88
 856 297 856 297 885.5 235 c 128,-1,89
 915 173 915 173 945.5 147.5 c 128,-1,90
 976 122 976 122 1016 122 c 128,-1,91
 1056 122 1056 122 1097 142 c 128,-1,92
 1138 162 1138 162 1175 202 c 0,93,94
 1257 291 1257 291 1293 436 c 2,95,-1
 1422 944 l 1,79,80
EndSplineSet
EndChar

StartChar: A
Encoding: 65 65 55
Width: 1534
GlyphClass: 2
Flags: W
LayerCount: 2
Fore
SplineSet
46 83 m 1,0,1
 160 103 160 103 175.5 117.5 c 128,-1,2
 191 132 191 132 192 152.5 c 128,-1,3
 193 173 193 173 193 210 c 2,4,-1
 192 313 l 1,5,-1
 192 367 l 2,6,7
 192 896 192 896 326 1154 c 1,8,9
 411 1320 411 1320 581 1456 c 0,10,11
 663 1521 663 1521 765 1589 c 1,12,-1
 766 1589 l 1,13,14
 989 1440 989 1440 1094 1314 c 0,15,16
 1221 1163 1221 1163 1276 950 c 0,17,18
 1332 732 1332 732 1332 369 c 2,19,-1
 1332 313 l 1,20,-1
 1331 212 l 2,21,22
 1331 174 1331 174 1334 153 c 128,-1,23
 1337 132 1337 132 1352 120 c 1,24,25
 1371 103 1371 103 1488 83 c 1,26,-1
 1488 0 l 1,27,-1
 939 0 l 1,28,-1
 939 83 l 1,29,30
 1070 98 1070 98 1096 126 c 0,31,32
 1117 149 1117 149 1119.5 195 c 128,-1,33
 1122 241 1122 241 1122 284 c 2,34,-1
 1122 526 l 1,35,-1
 403 526 l 1,36,-1
 403 284 l 2,37,38
 403 219 403 219 406.5 182.5 c 128,-1,39
 410 146 410 146 428 126.5 c 128,-1,40
 446 107 446 107 483 99 c 128,-1,41
 520 91 520 91 587 83 c 1,42,-1
 587 0 l 1,43,-1
 46 0 l 1,44,-1
 46 83 l 1,0,1
1120 638 m 1,45,46
 1118 896 1118 896 1048 1064 c 0,47,48
 974 1241 974 1241 765 1448 c 1,49,50
 624 1307 624 1307 567.5 1216.5 c 128,-1,51
 511 1126 511 1126 485 1064 c 128,-1,52
 459 1002 459 1002 442 935 c 1,53,54
 414 817 414 817 405 638 c 1,55,-1
 1120 638 l 1,45,46
EndSplineSet
EndChar

StartChar: B
Encoding: 66 66 56
Width: 1530
GlyphClass: 2
Flags: W
LayerCount: 2
Fore
SplineSet
91 83 m 1,0,1
 206 93 206 93 230 117.5 c 128,-1,2
 254 142 254 142 259 171.5 c 128,-1,3
 264 201 264 201 264 249 c 2,4,-1
 264 1281 l 2,5,6
 264 1377 264 1377 241.5 1399.5 c 128,-1,7
 219 1422 219 1422 184.5 1430 c 128,-1,8
 150 1438 150 1438 91 1443 c 1,9,-1
 91 1530 l 1,10,-1
 351 1530 l 2,11,12
 417 1530 417 1530 499 1537 c 0,13,14
 650 1550 650 1550 764.5 1550 c 128,-1,15
 879 1550 879 1550 987 1526 c 128,-1,16
 1095 1502 1095 1502 1164 1458 c 0,17,18
 1298 1373 1298 1373 1298 1214 c 0,19,20
 1298 1010 1298 1010 1144 892 c 0,21,22
 1093 853 1093 853 1023 829 c 1,23,24
 1321 779 1321 779 1401 587 c 0,25,26
 1426 527 1426 527 1426 444.5 c 128,-1,27
 1426 362 1426 362 1388.5 273.5 c 128,-1,28
 1351 185 1351 185 1272 118 c 0,29,30
 1099 -30 1099 -30 782 -30 c 0,31,32
 703 -30 703 -30 608 -20 c 0,33,34
 433 0 433 0 351 0 c 2,35,-1
 91 0 l 1,36,-1
 91 83 l 1,0,1
467 292 m 2,37,38
 467 192 467 192 516 148 c 0,39,40
 586 86 586 86 786 86 c 0,41,42
 1014 86 1014 86 1116 188 c 0,43,44
 1200 272 1200 272 1200 418 c 0,45,46
 1200 631 1200 631 1039 718 c 0,47,48
 979 751 979 751 919 755.5 c 128,-1,49
 859 760 859 760 826 762 c 2,50,-1
 758 766 l 2,51,52
 723 768 723 768 689.5 769.5 c 128,-1,53
 656 771 656 771 626 773 c 1,54,-1
 626 867 l 1,55,-1
 833 880 l 1,56,57
 964 893 964 893 1025 994 c 0,58,59
 1072 1071 1072 1071 1072 1195 c 0,60,61
 1072 1313 1072 1313 1006 1372 c 0,62,63
 926 1443 926 1443 732 1443 c 0,64,65
 498 1443 498 1443 474 1318 c 0,66,67
 467 1281 467 1281 467 1238 c 2,68,-1
 467 292 l 2,37,38
EndSplineSet
EndChar

StartChar: C
Encoding: 67 67 57
Width: 1531
GlyphClass: 2
Flags: W
LayerCount: 2
Fore
SplineSet
1284 1023 m 1,0,1
 1289 1083 1289 1083 1289 1118 c 0,2,3
 1289 1193 1289 1193 1273.5 1245.5 c 128,-1,4
 1258 1298 1258 1298 1219 1333.5 c 128,-1,5
 1180 1369 1180 1369 1128 1393 c 0,6,7
 1020 1442 1020 1442 906.5 1442 c 128,-1,8
 793 1442 793 1442 714 1413.5 c 128,-1,9
 635 1385 635 1385 575.5 1336 c 128,-1,10
 516 1287 516 1287 474 1220 c 128,-1,11
 432 1153 432 1153 406 1076 c 0,12,13
 355 929 355 929 355 748 c 0,14,15
 355 500 355 500 489 320 c 0,16,17
 584 194 584 194 747 142 c 0,18,19
 830 115 830 115 919 115 c 128,-1,20
 1008 115 1008 115 1072 125.5 c 128,-1,21
 1136 136 1136 136 1192 158 c 0,22,23
 1304 200 1304 200 1398 292 c 1,24,-1
 1448 225 l 1,25,26
 1371 110 1371 110 1230.5 42.5 c 128,-1,27
 1090 -25 1090 -25 892 -25 c 0,28,29
 526 -25 526 -25 314 212 c 1,30,31
 120 431 120 431 120 755 c 0,32,33
 120 958 120 958 208 1138 c 0,34,35
 350 1427 350 1427 662 1520 c 0,36,37
 769 1551 769 1551 857 1551 c 128,-1,38
 945 1551 945 1551 985 1546.5 c 128,-1,39
 1025 1542 1025 1542 1058 1534.5 c 128,-1,40
 1091 1527 1091 1527 1118 1518 c 2,41,-1
 1169 1501 l 2,42,43
 1256 1471 1256 1471 1306 1471 c 128,-1,44
 1356 1471 1356 1471 1417 1553 c 1,45,-1
 1512 1553 l 1,46,-1
 1380 1023 l 1,47,-1
 1284 1023 l 1,0,1
EndSplineSet
EndChar

StartChar: D
Encoding: 68 68 58
Width: 1537
GlyphClass: 2
Flags: W
LayerCount: 2
Fore
SplineSet
355 1531 m 1,0,-1
 435 1530 l 2,1,2
 481 1530 481 1530 522 1532 c 2,3,-1
 594 1537 l 2,4,5
 704 1544 704 1544 743 1544 c 0,6,7
 1085 1544 1085 1544 1284 1370 c 0,8,9
 1499 1183 1499 1183 1499 817 c 0,10,11
 1499 436 1499 436 1299 209 c 0,12,13
 1092 -25 1092 -25 726 -25 c 0,14,15
 631 -25 631 -25 554 -17 c 2,16,-1
 428 -4 l 2,17,18
 379 1 379 1 355 1 c 2,19,-1
 64 0 l 1,20,-1
 64 83 l 1,21,22
 121 91 121 91 155 98.5 c 128,-1,23
 189 106 189 106 207 124 c 0,24,25
 237 153 237 153 237 265 c 2,26,-1
 237 1269 l 2,27,28
 237 1382 237 1382 213 1404 c 128,-1,29
 189 1426 189 1426 155 1432 c 128,-1,30
 121 1438 121 1438 64 1443 c 1,31,-1
 64 1531 l 1,32,-1
 355 1531 l 1,0,-1
440 217 m 2,33,34
 440 129 440 129 638 98 c 0,35,36
 697 88 697 88 751 88 c 0,37,38
 1156 88 1156 88 1246 523 c 0,39,40
 1275 666 1275 666 1275 842 c 128,-1,41
 1275 1018 1275 1018 1234 1130.5 c 128,-1,42
 1193 1243 1193 1243 1119 1312 c 0,43,44
 980 1443 980 1443 714 1443 c 0,45,46
 544 1443 544 1443 468 1385 c 0,47,48
 440 1363 440 1363 440 1329 c 2,49,-1
 440 217 l 2,33,34
EndSplineSet
EndChar

StartChar: E
Encoding: 69 69 59
Width: 1533
GlyphClass: 2
Flags: W
LayerCount: 2
Fore
SplineSet
898 104 m 0,0,1
 1198 104 1198 104 1375 292 c 1,2,-1
 1425 225 l 1,3,4
 1292 44 1292 44 1028 -8 c 0,5,6
 945 -25 945 -25 856 -25 c 0,7,8
 683 -25 683 -25 544 35.5 c 128,-1,9
 405 96 405 96 308 199 c 0,10,11
 107 412 107 412 107 725 c 0,12,13
 107 1055 107 1055 290 1294 c 0,14,15
 413 1455 413 1455 607 1520 c 0,16,17
 705 1552 705 1552 789.5 1552 c 128,-1,18
 874 1552 874 1552 914.5 1547 c 128,-1,19
 955 1542 955 1542 987 1534 c 128,-1,20
 1019 1526 1019 1526 1044.5 1516.5 c 128,-1,21
 1070 1507 1070 1507 1100 1497 c 0,22,23
 1182 1469 1182 1469 1232 1469 c 128,-1,24
 1282 1469 1282 1469 1341 1551 c 1,25,-1
 1437 1551 l 1,26,-1
 1304 1021 l 1,27,-1
 1209 1021 l 1,28,29
 1214 1098 1214 1098 1214 1129 c 0,30,31
 1214 1195 1214 1195 1198.5 1245.5 c 128,-1,32
 1183 1296 1183 1296 1146 1332 c 128,-1,33
 1109 1368 1109 1368 1058 1393 c 0,34,35
 956 1443 956 1443 833.5 1443 c 128,-1,36
 711 1443 711 1443 623.5 1394 c 128,-1,37
 536 1345 536 1345 476 1260 c 0,38,39
 363 1097 363 1097 341 817 c 1,40,-1
 986 817 l 1,41,-1
 959 704 l 1,42,-1
 338 704 l 1,43,44
 348 471 348 471 492 296 c 0,45,46
 651 104 651 104 898 104 c 0,0,1
EndSplineSet
EndChar

StartChar: F
Encoding: 70 70 60
Width: 1364
GlyphClass: 2
Flags: W
LayerCount: 2
Fore
SplineSet
1139 1100 m 1,0,1
 1160 1213 1160 1213 1160 1265 c 128,-1,2
 1160 1317 1160 1317 1147.5 1345.5 c 128,-1,3
 1135 1374 1135 1374 1106 1390 c 0,4,5
 1057 1418 1057 1418 915 1418 c 2,6,-1
 461 1418 l 1,7,-1
 461 842 l 1,8,-1
 1057 842 l 1,9,-1
 1030 728 l 1,10,-1
 461 728 l 1,11,-1
 461 265 l 2,12,13
 461 207 461 207 468.5 174.5 c 128,-1,14
 476 142 476 142 504.5 125 c 128,-1,15
 533 108 533 108 589 100 c 128,-1,16
 645 92 645 92 741 83 c 1,17,-1
 741 0 l 1,18,-1
 86 0 l 1,19,-1
 86 83 l 1,20,21
 143 91 143 91 177 98.5 c 128,-1,22
 211 106 211 106 229 124 c 0,23,24
 259 153 259 153 259 265 c 2,25,-1
 259 1267 l 2,26,27
 259 1381 259 1381 235 1403 c 128,-1,28
 211 1425 211 1425 177 1431.5 c 128,-1,29
 143 1438 143 1438 86 1443 c 1,30,-1
 86 1530 l 1,31,-1
 1339 1530 l 1,32,-1
 1234 1100 l 1,33,-1
 1139 1100 l 1,0,1
EndSplineSet
EndChar

StartChar: G
Encoding: 71 71 61
Width: 1700
GlyphClass: 2
Flags: W
LayerCount: 2
Fore
SplineSet
1288 58 m 1,0,1
 1120 -26 1120 -26 883 -26 c 0,2,3
 509 -26 509 -26 294 218 c 0,4,5
 96 444 96 444 96 761 c 0,6,7
 96 1082 96 1082 293 1304 c 0,8,9
 511 1551 511 1551 893 1551 c 0,10,11
 1018 1551 1018 1551 1128 1518 c 2,12,-1
 1185 1501 l 1,13,14
 1280 1471 1280 1471 1330 1471 c 128,-1,15
 1380 1471 1380 1471 1441 1553 c 1,16,-1
 1536 1553 l 1,17,-1
 1403 1043 l 1,18,-1
 1308 1043 l 1,19,-1
 1312 1100 l 2,20,21
 1313 1125 1313 1125 1313 1150 c 0,22,23
 1313 1274 1313 1274 1240 1334 c 1,24,25
 1157 1404 1157 1404 1019 1430 c 0,26,27
 954 1443 954 1443 868 1443 c 128,-1,28
 782 1443 782 1443 697 1414.5 c 128,-1,29
 612 1386 612 1386 549.5 1337 c 128,-1,30
 487 1288 487 1288 446 1221.5 c 128,-1,31
 405 1155 405 1155 380 1080 c 0,32,33
 335 944 335 944 335 761 c 0,34,35
 335 501 335 501 459 314 c 0,36,37
 604 95 604 95 879.5 95 c 128,-1,38
 1155 95 1155 95 1282 210 c 1,39,-1
 1270 502 l 2,40,41
 1266 615 1266 615 1220 644 c 0,42,43
 1182 669 1182 669 1023 680 c 1,44,-1
 1023 765 l 1,45,-1
 1591 765 l 1,46,-1
 1591 680 l 1,47,48
 1561 674 1561 674 1540.5 668 c 128,-1,49
 1520 662 1520 662 1508 645 c 0,50,51
 1485 614 1485 614 1481 502 c 1,52,-1
 1438 -388 l 1,53,-1
 1313 -388 l 1,54,-1
 1288 58 l 1,0,1
EndSplineSet
EndChar

StartChar: H
Encoding: 72 72 62
Width: 1698
GlyphClass: 2
Flags: W
LayerCount: 2
Fore
SplineSet
112 83 m 1,0,1
 169 91 169 91 201.5 98.5 c 128,-1,2
 234 106 234 106 250.5 123.5 c 128,-1,3
 267 141 267 141 271 174 c 128,-1,4
 275 207 275 207 275 265 c 2,5,-1
 275 1267 l 2,6,7
 275 1380 275 1380 252 1402.5 c 128,-1,8
 229 1425 229 1425 195 1431.5 c 128,-1,9
 161 1438 161 1438 104 1443 c 1,10,-1
 104 1530 l 1,11,-1
 647 1530 l 1,12,-1
 647 1443 l 1,13,14
 590 1437 590 1437 556 1431.5 c 128,-1,15
 522 1426 522 1426 504 1410 c 0,16,17
 475 1383 475 1383 475 1267 c 2,18,-1
 475 849 l 1,19,-1
 1220 849 l 1,20,-1
 1220 1267 l 2,21,22
 1220 1381 1220 1381 1196.5 1403 c 128,-1,23
 1173 1425 1173 1425 1139 1431.5 c 128,-1,24
 1105 1438 1105 1438 1048 1443 c 1,25,-1
 1048 1530 l 1,26,-1
 1593 1530 l 1,27,-1
 1593 1443 l 1,28,29
 1537 1437 1537 1437 1503 1431.5 c 128,-1,30
 1469 1426 1469 1426 1451 1410 c 0,31,32
 1421 1382 1421 1382 1421 1267 c 2,33,-1
 1421 265 l 2,34,35
 1421 207 1421 207 1425.5 174.5 c 128,-1,36
 1430 142 1430 142 1447.5 125 c 128,-1,37
 1465 108 1465 108 1499.5 100 c 128,-1,38
 1534 92 1534 92 1593 83 c 1,39,-1
 1593 0 l 1,40,-1
 1048 0 l 1,41,-1
 1048 83 l 1,42,43
 1104 91 1104 91 1138 98.5 c 128,-1,44
 1172 106 1172 106 1190 124 c 0,45,46
 1220 153 1220 153 1220 265 c 2,47,-1
 1220 736 l 1,48,-1
 475 736 l 1,49,-1
 475 265 l 2,50,51
 475 152 475 152 497.5 130 c 128,-1,52
 520 108 520 108 554 100 c 128,-1,53
 588 92 588 92 647 83 c 1,54,-1
 647 0 l 1,55,-1
 112 0 l 1,56,-1
 112 83 l 1,0,1
EndSplineSet
EndChar

StartChar: I
Encoding: 73 73 63
Width: 848
GlyphClass: 2
Flags: W
LayerCount: 2
Fore
SplineSet
154 82 m 1,0,-1
 156 83 l 1,1,-1
 188 88 l 1,2,3
 279 100 279 100 298 121 c 0,4,5
 327 154 327 154 327 265 c 2,6,-1
 327 1267 l 2,7,8
 327 1381 327 1381 303 1403 c 128,-1,9
 279 1425 279 1425 245 1431.5 c 128,-1,10
 211 1438 211 1438 154 1443 c 1,11,-1
 154 1530 l 1,12,-1
 701 1530 l 1,13,-1
 701 1443 l 1,14,15
 645 1437 645 1437 611 1431.5 c 128,-1,16
 577 1426 577 1426 559 1410 c 0,17,18
 529 1382 529 1382 529 1267 c 2,19,-1
 529 265 l 2,20,21
 529 153 529 153 547 131 c 128,-1,22
 565 109 565 109 591.5 102.5 c 128,-1,23
 618 96 618 96 663 89 c 2,24,-1
 701 83 l 1,25,-1
 701 0 l 1,26,-1
 154 0 l 1,27,-1
 154 82 l 1,0,-1
EndSplineSet
EndChar

StartChar: J
Encoding: 74 74 64
Width: 683
GlyphClass: 2
Flags: W
LayerCount: 2
Fore
SplineSet
283 1266 m 2,0,1
 283 1378 283 1378 240 1410 c 0,2,3
 218 1427 218 1427 181 1432.5 c 128,-1,4
 144 1438 144 1438 90 1443 c 1,5,-1
 90 1530 l 1,6,-1
 678 1530 l 1,7,-1
 678 1443 l 1,8,9
 618 1437 618 1437 580.5 1431.5 c 128,-1,10
 543 1426 543 1426 522 1410 c 0,11,12
 486 1381 486 1381 486 1267 c 2,13,-1
 486 429 l 2,14,15
 486 147 486 147 458 20.5 c 128,-1,16
 430 -106 430 -106 396 -180.5 c 128,-1,17
 362 -255 362 -255 309 -320 c 0,18,19
 210 -443 210 -443 13 -565 c 1,20,-1
 -41 -497 l 1,21,22
 105 -355 105 -355 155.5 -271.5 c 128,-1,23
 206 -188 206 -188 228 -124 c 128,-1,24
 250 -60 250 -60 262 16 c 0,25,26
 283 139 283 139 283 392 c 2,27,-1
 283 1266 l 2,0,1
EndSplineSet
EndChar

StartChar: K
Encoding: 75 75 65
Width: 1533
GlyphClass: 2
Flags: W
LayerCount: 2
Fore
SplineSet
913 1443 m 1,0,-1
 913 1530 l 1,1,-1
 1430 1530 l 1,2,-1
 1430 1443 l 1,3,4
 1341 1432 1341 1432 1276 1370 c 0,5,6
 1254 1349 1254 1349 1230 1321 c 1,7,-1
 824 791 l 1,8,-1
 1617 -244 l 1,9,-1
 1549 -301 l 1,10,-1
 581 724 l 1,11,-1
 991 1270 l 1,12,13
 1061 1350 1061 1350 1061 1396.5 c 128,-1,14
 1061 1443 1061 1443 913 1443 c 1,0,-1
102 83 m 1,15,-1
 137 88 l 2,16,17
 228 100 228 100 246.5 121 c 128,-1,18
 265 142 265 142 270 174.5 c 128,-1,19
 275 207 275 207 275 265 c 2,20,-1
 275 1267 l 2,21,22
 275 1381 275 1381 251.5 1403 c 128,-1,23
 228 1425 228 1425 193.5 1431.5 c 128,-1,24
 159 1438 159 1438 102 1443 c 1,25,-1
 102 1530 l 1,26,-1
 651 1530 l 1,27,-1
 651 1443 l 1,28,29
 593 1438 593 1438 558.5 1432.5 c 128,-1,30
 524 1427 524 1427 506 1410 c 128,-1,31
 488 1393 488 1393 483 1360 c 128,-1,32
 478 1327 478 1327 478 1267 c 2,33,-1
 478 265 l 2,34,35
 478 153 478 153 498.5 131 c 128,-1,36
 519 109 519 109 548.5 102.5 c 128,-1,37
 578 96 578 96 629 89 c 2,38,-1
 672 83 l 1,39,-1
 672 0 l 1,40,-1
 102 0 l 1,41,-1
 102 83 l 1,15,-1
EndSplineSet
EndChar

StartChar: L
Encoding: 76 76 66
Width: 1364
GlyphClass: 2
Flags: W
LayerCount: 2
Fore
SplineSet
74 84 m 1,0,1
 201 96 201 96 225 117.5 c 128,-1,2
 249 139 249 139 253.5 166 c 128,-1,3
 258 193 258 193 258 235 c 2,4,-1
 258 1297 l 2,5,6
 258 1382 258 1382 233 1402.5 c 128,-1,7
 208 1423 208 1423 171.5 1430.5 c 128,-1,8
 135 1438 135 1438 74 1443 c 1,9,-1
 74 1530 l 1,10,-1
 657 1530 l 1,11,-1
 657 1444 l 1,12,13
 535 1438 535 1438 506.5 1418 c 128,-1,14
 478 1398 478 1398 470 1371.5 c 128,-1,15
 462 1345 462 1345 462 1301 c 2,16,-1
 462 210 l 2,17,18
 462 144 462 144 522 125 c 0,19,20
 569 110 569 110 698.5 110 c 128,-1,21
 828 110 828 110 899 113 c 128,-1,22
 970 116 970 116 1020 127 c 128,-1,23
 1070 138 1070 138 1103 159.5 c 128,-1,24
 1136 181 1136 181 1160 217 c 0,25,26
 1194 270 1194 270 1242 436 c 1,27,-1
 1335 436 l 1,28,-1
 1258 -78 l 1,29,-1
 1172 -78 l 1,30,31
 1169 -41 1169 -41 1147.5 -20.5 c 128,-1,32
 1126 0 1126 0 1091 0 c 2,33,-1
 74 0 l 1,34,-1
 74 84 l 1,0,1
EndSplineSet
EndChar

StartChar: M
Encoding: 77 77 67
Width: 2224
GlyphClass: 2
Flags: W
LayerCount: 2
Fore
SplineSet
31 83 m 1,0,1
 121 96 121 96 145 106 c 1,2,3
 183 124 183 124 192 167 c 2,4,-1
 484 1559 l 1,5,-1
 558 1559 l 1,6,-1
 1111 338 l 1,7,-1
 1647 1559 l 1,8,-1
 1715 1559 l 1,9,-1
 1996 266 l 1,10,11
 2020 148 2020 148 2056 119 c 0,12,13
 2076 102 2076 102 2108 96 c 128,-1,14
 2140 90 2140 90 2192 83 c 1,15,-1
 2192 0 l 1,16,-1
 1623 0 l 1,17,-1
 1623 83 l 1,18,19
 1729 100 1729 100 1752 113 c 0,20,21
 1789 133 1789 133 1789 189 c 0,22,23
 1789 204 1789 204 1786 224 c 2,24,-1
 1781 266 l 1,25,-1
 1620 1104 l 1,26,-1
 1110 -50 l 1,27,-1
 1043 -50 l 1,28,-1
 523 1104 l 1,29,-1
 351 203 l 2,30,31
 348 185 348 185 348 167.5 c 128,-1,32
 348 150 348 150 357 135 c 128,-1,33
 366 120 366 120 388 110 c 0,34,35
 430 91 430 91 541 83 c 1,36,-1
 541 0 l 1,37,-1
 31 0 l 1,38,-1
 31 83 l 1,0,1
EndSplineSet
EndChar

StartChar: N
Encoding: 78 78 68
Width: 1703
GlyphClass: 2
Flags: W
LayerCount: 2
Fore
SplineSet
45 83 m 1,0,-1
 90 89 l 1,1,2
 179 103 179 103 200 117 c 0,3,4
 238 142 238 142 238 210 c 2,5,-1
 238 1558 l 1,6,-1
 323 1588 l 1,7,-1
 1307 350 l 1,8,-1
 1307 1287 l 2,9,10
 1307 1383 1307 1383 1267 1412 c 0,11,12
 1237 1434 1237 1434 1113 1445 c 1,13,-1
 1113 1530 l 1,14,-1
 1641 1530 l 1,15,-1
 1641 1445 l 1,16,17
 1588 1439 1588 1439 1553 1433.5 c 128,-1,18
 1518 1428 1518 1428 1497 1413 c 0,19,20
 1459 1386 1459 1386 1459 1290 c 2,21,-1
 1459 -24 l 1,22,-1
 1381 -47 l 1,23,-1
 390 1200 l 1,24,-1
 390 241 l 2,25,26
 390 155 390 155 430 125 c 0,27,28
 459 104 459 104 525 94.5 c 128,-1,29
 591 85 591 85 604 83 c 1,30,-1
 604 0 l 1,31,-1
 45 0 l 1,32,-1
 45 83 l 1,0,-1
EndSplineSet
EndChar

StartChar: O
Encoding: 79 79 69
Width: 1703
GlyphClass: 2
Flags: W
LayerCount: 2
Fore
SplineSet
119 756 m 0,0,1
 119 854 119 854 139 951 c 128,-1,2
 159 1048 159 1048 199.5 1136.5 c 128,-1,3
 240 1225 240 1225 301 1300.5 c 128,-1,4
 362 1376 362 1376 443 1432 c 0,5,6
 615 1551 615 1551 851 1551 c 0,7,8
 1200 1551 1200 1551 1402 1300 c 0,9,10
 1584 1075 1584 1075 1584 756 c 0,11,12
 1584 434 1584 434 1402 218 c 0,13,14
 1202 -20 1202 -20 851 -20 c 0,15,16
 498 -20 498 -20 300 220 c 0,17,18
 119 438 119 438 119 756 c 0,0,1
367 592 m 128,-1,20
 376 510 376 510 397.5 435 c 128,-1,21
 419 360 419 360 455 295 c 128,-1,22
 491 230 491 230 546 182 c 0,23,24
 664 81 664 81 853 81 c 0,25,26
 1205 81 1205 81 1309 434 c 0,27,28
 1349 570 1349 570 1349 756 c 0,29,30
 1349 1296 1349 1296 1028 1415 c 0,31,32
 953 1443 953 1443 853 1443 c 0,33,34
 500 1443 500 1443 398 1078 c 0,35,36
 358 937 358 937 358 805.5 c 128,-1,19
 358 674 358 674 367 592 c 128,-1,20
EndSplineSet
EndChar

StartChar: P
Encoding: 80 80 70
Width: 1361
GlyphClass: 2
Flags: W
LayerCount: 2
Fore
SplineSet
618 648 m 1,0,1
 660 640 660 640 731.5 640 c 128,-1,2
 803 640 803 640 863.5 670 c 128,-1,3
 924 700 924 700 962 754 c 0,4,5
 1035 858 1035 858 1035 1048 c 0,6,7
 1035 1231 1035 1231 988 1320 c 0,8,9
 922 1443 922 1443 733 1443 c 0,10,11
 501 1443 501 1443 478 1330 c 0,12,13
 471 1295 471 1295 471 1254 c 2,14,-1
 471 264 l 2,15,16
 471 206 471 206 477 174 c 128,-1,17
 483 142 483 142 503 125 c 128,-1,18
 523 108 523 108 561.5 101.5 c 128,-1,19
 600 95 600 95 665 88 c 2,20,-1
 720 82 l 1,21,-1
 720 0 l 1,22,-1
 96 0 l 1,23,-1
 96 82 l 1,24,25
 101 84 101 84 111 84.5 c 128,-1,26
 121 85 121 85 146.5 88.5 c 128,-1,27
 172 92 172 92 199 99 c 128,-1,28
 226 106 226 106 242 124 c 0,29,30
 269 155 269 155 269 264 c 2,31,-1
 269 1277 l 2,32,33
 269 1374 269 1374 246.5 1397 c 128,-1,34
 224 1420 224 1420 189.5 1429 c 128,-1,35
 155 1438 155 1438 96 1443 c 1,36,-1
 96 1530 l 1,37,-1
 356 1530 l 2,38,39
 453 1530 453 1530 550.5 1541 c 128,-1,40
 648 1552 648 1552 774.5 1552 c 128,-1,41
 901 1552 901 1552 1000 1511.5 c 128,-1,42
 1099 1471 1099 1471 1157 1403 c 0,43,44
 1261 1281 1261 1281 1261 1060 c 0,45,46
 1261 836 1261 836 1143 696 c 0,47,48
 1007 535 1007 535 742 535 c 0,49,50
 681 535 681 535 601 555 c 1,51,-1
 618 648 l 1,0,1
EndSplineSet
EndChar

StartChar: Q
Encoding: 81 81 71
Width: 1704
GlyphClass: 2
Flags: W
LayerCount: 2
Fore
SplineSet
1210 58 m 1,0,1
 1052 -26 1052 -26 851 -26 c 0,2,3
 497 -26 497 -26 298 217 c 0,4,5
 118 438 118 438 118 756 c 0,6,7
 118 1075 118 1075 300 1300 c 0,8,9
 502 1551 502 1551 851 1551 c 256,10,11
 1200 1551 1200 1551 1402 1300 c 0,12,13
 1584 1075 1584 1075 1584 756 c 0,14,15
 1584 593 1584 593 1531.5 443.5 c 128,-1,16
 1479 294 1479 294 1373 182 c 1,17,-1
 1756 -316 l 1,18,-1
 1696 -368 l 1,19,-1
 1210 58 l 1,0,1
366 591.5 m 128,-1,21
 375 509 375 509 396.5 433.5 c 128,-1,22
 418 358 418 358 454 292.5 c 128,-1,23
 490 227 490 227 545 178 c 0,24,25
 662 75 662 75 852 75 c 0,26,27
 1204 75 1204 75 1308 432 c 0,28,29
 1348 570 1348 570 1348 756 c 0,30,31
 1348 1296 1348 1296 1028 1415 c 0,32,33
 952 1443 952 1443 852 1443 c 0,34,35
 499 1443 499 1443 396 1078 c 0,36,37
 357 937 357 937 357 805.5 c 128,-1,20
 357 674 357 674 366 591.5 c 128,-1,21
EndSplineSet
EndChar

StartChar: R
Encoding: 82 82 72
Width: 1533
GlyphClass: 2
Flags: W
LayerCount: 2
Fore
SplineSet
1071 1108 m 0,0,1
 1071 1443 1071 1443 745 1443 c 0,2,3
 503 1443 503 1443 475 1315 c 0,4,5
 467 1278 467 1278 467 1237 c 2,6,-1
 467 265 l 2,7,8
 467 206 467 206 473 174 c 128,-1,9
 479 142 479 142 499 125 c 128,-1,10
 519 108 519 108 557.5 101.5 c 128,-1,11
 596 95 596 95 661 88 c 2,12,-1
 715 82 l 1,13,-1
 715 -1 l 1,14,-1
 91 -1 l 1,15,-1
 91 82 l 1,16,-1
 125 87 l 2,17,18
 169 93 169 93 196 99.5 c 128,-1,19
 223 106 223 106 238 124 c 0,20,21
 264 154 264 154 264 265 c 2,22,-1
 264 1277 l 2,23,24
 264 1375 264 1375 241.5 1398 c 128,-1,25
 219 1421 219 1421 184.5 1430 c 128,-1,26
 150 1439 150 1439 91 1444 c 1,27,-1
 91 1530 l 1,28,-1
 351 1530 l 2,29,30
 408 1530 408 1530 502 1538 c 0,31,32
 684 1552 684 1552 786.5 1552 c 128,-1,33
 889 1552 889 1552 993.5 1518 c 128,-1,34
 1098 1484 1098 1484 1166 1425 c 0,35,36
 1298 1309 1298 1309 1298 1119 c 0,37,38
 1298 976 1298 976 1212 853 c 1,39,40
 1115 712 1115 712 926 650 c 1,41,-1
 1607 -284 l 1,42,-1
 1532 -341 l 1,43,-1
 657 640 l 1,44,-1
 701 729 l 1,45,-1
 777 729 l 2,46,47
 896 729 896 729 978 822 c 1,48,49
 1071 930 1071 930 1071 1108 c 0,0,1
EndSplineSet
EndChar

StartChar: S
Encoding: 83 83 73
Width: 1364
GlyphClass: 2
Flags: W
LayerCount: 2
Fore
SplineSet
935 1140 m 1,0,1
 981 1202 981 1202 981 1257.5 c 128,-1,2
 981 1313 981 1313 958 1345.5 c 128,-1,3
 935 1378 935 1378 896 1400 c 0,4,5
 815 1445 815 1445 686 1445 c 0,6,7
 569 1445 569 1445 492 1382 c 0,8,9
 415 1318 415 1318 415 1216 c 0,10,11
 415 1101 415 1101 515 1019 c 0,12,13
 565 978 565 978 638 938 c 1,14,15
 910 797 910 797 990 752.5 c 128,-1,16
 1070 708 1070 708 1133 654 c 0,17,18
 1269 539 1269 539 1269 396 c 0,19,20
 1269 181 1269 181 1103 72 c 0,21,22
 956 -24 956 -24 703 -24 c 0,23,24
 505 -24 505 -24 332 62 c 0,25,26
 212 122 212 122 162 212 c 0,27,28
 137 258 137 258 137 314 c 128,-1,29
 137 370 137 370 161.5 413.5 c 128,-1,30
 186 457 186 457 222 488 c 0,31,32
 289 547 289 547 368 562 c 1,33,-1
 422 498 l 1,34,35
 385 447 385 447 379.5 412.5 c 128,-1,36
 374 378 374 378 374 335.5 c 128,-1,37
 374 293 374 293 401 245 c 128,-1,38
 428 197 428 197 474 160 c 0,39,40
 576 79 576 79 715 79 c 0,41,42
 956 79 956 79 1028 232 c 0,43,44
 1051 281 1051 281 1051 348 c 128,-1,45
 1051 415 1051 415 1014.5 465.5 c 128,-1,46
 978 516 978 516 920.5 555.5 c 128,-1,47
 863 595 863 595 791 628.5 c 128,-1,48
 719 662 719 662 628.5 709 c 128,-1,49
 538 756 538 756 456.5 809.5 c 128,-1,50
 375 863 375 863 322 918 c 0,51,52
 217 1028 217 1028 217 1170 c 0,53,54
 217 1345 217 1345 361 1450 c 0,55,56
 499 1551 499 1551 714 1551 c 0,57,58
 913 1551 913 1551 1048 1486 c 0,59,60
 1190 1418 1190 1418 1190 1306 c 0,61,62
 1190 1200 1190 1200 1094 1131 c 0,63,64
 1060 1106 1060 1106 1009 1091 c 1,65,-1
 935 1140 l 1,0,1
EndSplineSet
EndChar

StartChar: T
Encoding: 84 84 74
Width: 1533
GlyphClass: 2
Flags: W
LayerCount: 2
Fore
SplineSet
1257 1100 m 1,0,1
 1278 1213 1278 1213 1278 1265.5 c 128,-1,2
 1278 1318 1278 1318 1265.5 1347.5 c 128,-1,3
 1253 1377 1253 1377 1224 1394 c 0,4,5
 1174 1424 1174 1424 1034 1424 c 2,6,-1
 865 1424 l 1,7,-1
 865 269 l 2,8,9
 865 211 865 211 872 178.5 c 128,-1,10
 879 146 879 146 906 129 c 128,-1,11
 933 112 933 112 986.5 104 c 128,-1,12
 1040 96 1040 96 1133 87 c 1,13,-1
 1133 0 l 1,14,-1
 403 0 l 1,15,-1
 403 87 l 1,16,17
 580 104 580 104 612.5 125 c 128,-1,18
 645 146 645 146 653.5 178.5 c 128,-1,19
 662 211 662 211 662 269 c 2,20,-1
 662 1424 l 1,21,-1
 470 1424 l 2,22,23
 290 1424 290 1424 210 1248 c 0,24,25
 185 1194 185 1194 160 1132 c 2,26,-1
 148 1101 l 1,27,-1
 50 1101 l 1,28,-1
 162 1530 l 1,29,-1
 1458 1530 l 1,30,-1
 1353 1100 l 1,31,-1
 1257 1100 l 1,0,1
EndSplineSet
EndChar

StartChar: U
Encoding: 85 85 75
Width: 1700
GlyphClass: 2
Flags: W
LayerCount: 2
Fore
SplineSet
861 -47 m 1,0,1
 604 98 604 98 476 234 c 0,2,3
 327 392 327 392 262 624 c 0,4,5
 196 861 196 861 196 1254 c 0,6,7
 196 1369 196 1369 180 1393 c 0,8,9
 154 1434 154 1434 55 1443 c 1,10,-1
 55 1530 l 1,11,-1
 568 1530 l 1,12,-1
 568 1443 l 1,13,14
 467 1433 467 1433 436 1399 c 0,15,16
 407 1368 407 1368 407 1236 c 128,-1,17
 407 1104 407 1104 412 973.5 c 128,-1,18
 417 843 417 843 433.5 739 c 128,-1,19
 450 635 450 635 480 552.5 c 128,-1,20
 510 470 510 470 560 396 c 0,21,22
 649 265 649 265 861 96 c 1,23,24
 1067 264 1067 264 1154 396 c 0,25,26
 1243 532 1243 532 1272 737 c 0,27,28
 1293 890 1293 890 1293 1274 c 0,29,30
 1293 1368 1293 1368 1270 1393 c 0,31,32
 1233 1433 1233 1433 1133 1443 c 1,33,-1
 1133 1530 l 1,34,-1
 1644 1530 l 1,35,-1
 1644 1443 l 1,36,37
 1548 1431 1548 1431 1525 1398 c 0,38,39
 1504 1368 1504 1368 1504 1212 c 128,-1,40
 1504 1056 1504 1056 1488.5 901 c 128,-1,41
 1473 746 1473 746 1440 624 c 128,-1,42
 1407 502 1407 502 1355.5 407 c 128,-1,43
 1304 312 1304 312 1233 234 c 0,44,45
 1111 99 1111 99 861 -47 c 1,0,1
EndSplineSet
EndChar

StartChar: V
Encoding: 86 86 76
Width: 1530
GlyphClass: 2
Flags: W
LayerCount: 2
Fore
SplineSet
181 1308 m 2,0,1
 153 1378 153 1378 131 1398 c 1,2,3
 94 1435 94 1435 26 1444 c 1,4,-1
 26 1531 l 1,5,-1
 528 1531 l 1,6,-1
 528 1444 l 1,7,8
 409 1440 409 1440 378 1416 c 0,9,10
 363 1405 363 1405 363 1394.5 c 128,-1,11
 363 1384 363 1384 380 1340 c 2,12,-1
 797 274 l 1,13,14
 1118 1118 1118 1118 1146 1196 c 1,15,-1
 1188 1318 l 2,16,17
 1204 1363 1204 1363 1204 1378.5 c 128,-1,18
 1204 1394 1204 1394 1193.5 1408.5 c 128,-1,19
 1183 1423 1183 1423 1163 1430 c 0,20,21
 1130 1443 1130 1443 1049 1443 c 1,22,-1
 1049 1530 l 1,23,-1
 1504 1530 l 1,24,-1
 1504 1443 l 1,25,26
 1436 1434 1436 1434 1416 1409.5 c 128,-1,27
 1396 1385 1396 1385 1385 1359 c 2,28,-1
 812 -59 l 1,29,-1
 742 -59 l 1,30,-1
 181 1308 l 2,0,1
EndSplineSet
EndChar

StartChar: W
Encoding: 87 87 77
Width: 2223
GlyphClass: 2
Flags: W
LayerCount: 2
Fore
SplineSet
709 62 m 1,0,1
 853 230 853 230 914 368 c 0,2,3
 997 555 997 555 1003 942 c 0,4,5
 1005 1071 1005 1071 1005 1186.5 c 128,-1,6
 1005 1302 1005 1302 1001 1339.5 c 128,-1,7
 997 1377 997 1377 982 1398 c 0,8,9
 955 1433 955 1433 850 1443 c 1,10,-1
 850 1530 l 1,11,-1
 1373 1530 l 1,12,-1
 1373 1443 l 1,13,14
 1319 1436 1319 1436 1287.5 1427 c 128,-1,15
 1256 1418 1256 1418 1240 1397 c 0,16,17
 1216 1364 1216 1364 1216 1212.5 c 128,-1,18
 1216 1061 1216 1061 1218.5 926.5 c 128,-1,19
 1221 792 1221 792 1231 688 c 128,-1,20
 1241 584 1241 584 1260 503.5 c 128,-1,21
 1279 423 1279 423 1312 352 c 0,22,23
 1370 228 1370 228 1513 62 c 1,24,25
 1649 234 1649 234 1704 373 c 0,26,27
 1780 566 1780 566 1783 963 c 0,28,29
 1784 1097 1784 1097 1784 1209.5 c 128,-1,30
 1784 1322 1784 1322 1781 1353 c 128,-1,31
 1778 1384 1778 1384 1763 1402 c 0,32,33
 1737 1433 1737 1433 1628 1443 c 1,34,-1
 1628 1530 l 1,35,-1
 2139 1530 l 1,36,-1
 2139 1443 l 1,37,38
 2035 1435 2035 1435 2012 1401 c 0,39,40
 1993 1372 1993 1372 1993 1211.5 c 128,-1,41
 1993 1051 1993 1051 1983 894 c 128,-1,42
 1973 737 1973 737 1950 611.5 c 128,-1,43
 1927 486 1927 486 1890.5 387.5 c 128,-1,44
 1854 289 1854 289 1800 208 c 0,45,46
 1702 58 1702 58 1513 -80 c 1,47,48
 1210 185 1210 185 1112 493 c 1,49,50
 998 159 998 159 709 -80 c 1,51,52
 517 62 517 62 422 208 c 1,53,54
 267 443 267 443 238 894 c 0,55,56
 228 1051 228 1051 228 1179.5 c 128,-1,57
 228 1308 228 1308 225 1343 c 128,-1,58
 222 1378 222 1378 208 1398 c 0,59,60
 185 1429 185 1429 83 1443 c 1,61,-1
 83 1530 l 1,62,-1
 595 1530 l 1,63,-1
 595 1443 l 1,64,65
 486 1433 486 1433 458 1402 c 0,66,67
 443 1384 443 1384 440 1353 c 128,-1,68
 437 1322 437 1322 437 1209.5 c 128,-1,69
 437 1097 437 1097 438 963 c 128,-1,70
 439 829 439 829 446.5 723 c 128,-1,71
 454 617 454 617 470.5 533 c 128,-1,72
 487 449 487 449 517 373 c 0,73,74
 571 237 571 237 709 62 c 1,0,1
EndSplineSet
EndChar

StartChar: X
Encoding: 88 88 78
Width: 1533
GlyphClass: 2
Flags: W
LayerCount: 2
Fore
SplineSet
54 84 m 1,0,1
 148 92 148 92 168 107.5 c 128,-1,2
 188 123 188 123 196 143 c 128,-1,3
 204 163 204 163 210.5 189.5 c 128,-1,4
 217 216 217 216 226.5 251.5 c 128,-1,5
 236 287 236 287 255 332.5 c 128,-1,6
 274 378 274 378 305 432.5 c 128,-1,7
 336 487 336 487 382 544 c 0,8,9
 489 676 489 676 644 777 c 1,10,11
 363 940 363 940 264 1190 c 0,12,13
 236 1261 236 1261 224 1334 c 1,14,15
 206 1401 206 1401 183 1415 c 0,16,17
 150 1436 150 1436 54 1444 c 1,18,-1
 54 1530 l 1,19,-1
 580 1530 l 1,20,-1
 580 1444 l 1,21,22
 484 1444 484 1444 463 1433 c 128,-1,23
 442 1422 442 1422 439 1411 c 128,-1,24
 436 1400 436 1400 436 1386 c 128,-1,25
 436 1372 436 1372 441 1339 c 128,-1,26
 446 1306 446 1306 458.5 1260.5 c 128,-1,27
 471 1215 471 1215 493.5 1161 c 128,-1,28
 516 1107 516 1107 552 1052 c 1,29,30
 633 923 633 923 755 843 c 1,31,32
 985 989 985 989 1078 1260 c 0,33,34
 1105 1341 1105 1341 1105 1370.5 c 128,-1,35
 1105 1400 1105 1400 1099.5 1411 c 128,-1,36
 1094 1422 1094 1422 1080 1429 c 0,37,38
 1048 1444 1048 1444 973 1444 c 1,39,-1
 973 1530 l 1,40,-1
 1466 1530 l 1,41,-1
 1466 1444 l 1,42,43
 1365 1436 1365 1436 1344 1421.5 c 128,-1,44
 1323 1407 1323 1407 1314.5 1387 c 128,-1,45
 1306 1367 1306 1367 1299 1338 c 2,46,-1
 1282 1273 l 1,47,48
 1227 1057 1227 1057 1017 882 c 0,49,50
 953 828 953 828 867 779 c 1,51,52
 1164 597 1164 597 1275 330 c 0,53,54
 1294 285 1294 285 1304 250 c 2,55,-1
 1318 196 l 2,56,57
 1327 159 1327 159 1334 138.5 c 128,-1,58
 1341 118 1341 118 1356 108 c 0,59,60
 1378 92 1378 92 1477 84 c 1,61,-1
 1477 0 l 1,62,-1
 951 0 l 1,63,-1
 951 84 l 1,64,65
 1048 90 1048 90 1068.5 99 c 128,-1,66
 1089 108 1089 108 1092 118 c 128,-1,67
 1095 128 1095 128 1095 143 c 0,68,69
 1095 228 1095 228 1032 375 c 0,70,71
 945 578 945 578 755 720 c 1,72,73
 523 547 523 547 432 272 c 0,74,75
 404 190 404 190 404 143 c 0,76,77
 404 128 404 128 407.5 118 c 128,-1,78
 411 108 411 108 428 102 c 0,79,80
 460 90 460 90 580 84 c 1,81,-1
 580 0 l 1,82,-1
 54 0 l 1,83,-1
 54 84 l 1,0,1
EndSplineSet
EndChar

StartChar: Y
Encoding: 89 89 79
Width: 1530
GlyphClass: 2
Flags: W
LayerCount: 2
Fore
SplineSet
1313 1255 m 0,0,1
 1313 714 1313 714 866 512 c 1,2,-1
 866 265 l 2,3,4
 866 207 866 207 871.5 174.5 c 128,-1,5
 877 142 877 142 898 125 c 128,-1,6
 919 108 919 108 960 100 c 128,-1,7
 1001 92 1001 92 1072 83 c 1,8,-1
 1072 0 l 1,9,-1
 459 0 l 1,10,-1
 459 83 l 1,11,12
 598 99 598 99 625 120.5 c 128,-1,13
 652 142 652 142 658.5 174.5 c 128,-1,14
 665 207 665 207 665 265 c 2,15,-1
 665 512 l 1,16,17
 217 709 217 709 217 1255 c 0,18,19
 217 1307 217 1307 215 1341 c 128,-1,20
 213 1375 213 1375 200 1396 c 0,21,22
 175 1434 175 1434 77 1443 c 1,23,-1
 77 1530 l 1,24,-1
 589 1530 l 1,25,-1
 589 1443 l 1,26,27
 485 1433 485 1433 451 1399 c 0,28,29
 418 1366 418 1366 418 1282.5 c 128,-1,30
 418 1199 418 1199 421 1131.5 c 128,-1,31
 424 1064 424 1064 435.5 1003 c 128,-1,32
 447 942 447 942 469.5 887 c 128,-1,33
 492 832 492 832 530 782 c 0,34,35
 610 679 610 679 766 599 c 1,36,37
 993 717 993 717 1061 887 c 0,38,39
 1103 991 1103 991 1107.5 1095 c 128,-1,40
 1112 1199 1112 1199 1112 1259.5 c 128,-1,41
 1112 1320 1112 1320 1104.5 1350 c 128,-1,42
 1097 1380 1097 1380 1078 1399 c 0,43,44
 1044 1433 1044 1433 942 1443 c 1,45,-1
 942 1530 l 1,46,-1
 1453 1530 l 1,47,-1
 1453 1443 l 1,48,49
 1358 1431 1358 1431 1334 1398 c 0,50,51
 1313 1369 1313 1369 1313 1255 c 0,0,1
EndSplineSet
EndChar

StartChar: Z
Encoding: 90 90 80
Width: 1364
GlyphClass: 2
Flags: W
LayerCount: 2
Fore
SplineSet
1019 1409 m 1,0,-1
 454 1409 l 2,1,2
 329 1409 329 1409 272 1346 c 0,3,4
 243 1314 243 1314 224 1268 c 128,-1,5
 205 1222 205 1222 183 1161 c 2,6,-1
 161 1101 l 1,7,-1
 61 1101 l 1,8,-1
 195 1611 l 1,9,-1
 288 1611 l 1,10,11
 284 1569 284 1569 301.5 1549.5 c 128,-1,12
 319 1530 319 1530 349 1530 c 2,13,-1
 1287 1530 l 1,14,-1
 1309 1471 l 1,15,-1
 389 123 l 1,16,-1
 919 123 l 2,17,18
 1084 123 1084 123 1144 196 c 0,19,20
 1176 234 1176 234 1193 294.5 c 128,-1,21
 1210 355 1210 355 1227 441 c 1,22,-1
 1324 441 l 1,23,-1
 1261 -78 l 1,24,-1
 1163 -78 l 1,25,26
 1163 -23 1163 -23 1120 -5 c 0,27,28
 1108 0 1108 0 1096 0 c 2,29,-1
 109 0 l 1,30,-1
 86 61 l 1,31,-1
 1019 1409 l 1,0,-1
EndSplineSet
EndChar

StartChar: bracketleft
Encoding: 91 91 81
Width: 848
GlyphClass: 2
Flags: W
LayerCount: 2
Fore
SplineSet
382 64 m 2,0,1
 382 -43 382 -43 483 -43 c 2,2,-1
 662 -43 l 1,3,-1
 662 -150 l 1,4,-1
 200 -150 l 1,5,-1
 200 1817 l 1,6,-1
 662 1817 l 1,7,-1
 662 1714 l 1,8,-1
 476 1714 l 2,9,10
 434 1714 434 1714 408 1689 c 128,-1,11
 382 1664 382 1664 382 1620 c 2,12,-1
 382 64 l 2,0,1
EndSplineSet
EndChar

StartChar: backslash
Encoding: 92 92 82
Width: 848
GlyphClass: 2
Flags: W
LayerCount: 2
Fore
SplineSet
69 1658 m 1,0,-1
 223 1658 l 1,1,-1
 779 -30 l 1,2,-1
 627 -30 l 1,3,-1
 69 1658 l 1,0,-1
EndSplineSet
EndChar

StartChar: bracketright
Encoding: 93 93 83
Width: 848
GlyphClass: 2
Flags: W
LayerCount: 2
Fore
SplineSet
466 64 m 2,0,1
 466 -43 466 -43 365 -43 c 2,2,-1
 186 -43 l 1,3,-1
 186 -150 l 1,4,-1
 648 -150 l 1,5,-1
 648 1817 l 1,6,-1
 186 1817 l 1,7,-1
 186 1714 l 1,8,-1
 372 1714 l 2,9,10
 414 1714 414 1714 440 1689 c 128,-1,11
 466 1664 466 1664 466 1620 c 2,12,-1
 466 64 l 2,0,1
EndSplineSet
EndChar

StartChar: asciicircum
Encoding: 94 94 84
Width: 1360
GlyphClass: 2
Flags: W
LayerCount: 2
Fore
SplineSet
137 651 m 1,0,-1
 624 1653 l 1,1,-1
 745 1653 l 1,2,-1
 1232 651 l 1,3,-1
 1090 580 l 1,4,-1
 695 1317 l 1,5,-1
 684 1317 l 1,6,-1
 279 580 l 1,7,-1
 137 651 l 1,0,-1
EndSplineSet
EndChar

StartChar: underscore
Encoding: 95 95 85
Width: 1189
GlyphClass: 2
Flags: W
LayerCount: 2
Fore
SplineSet
1200 -194 m 1,0,-1
 1200 -312 l 1,1,-1
 -12 -312 l 1,2,-1
 -12 -194 l 1,3,-1
 1200 -194 l 1,0,-1
EndSplineSet
EndChar

StartChar: grave
Encoding: 96 96 86
Width: 850
GlyphClass: 2
Flags: W
LayerCount: 2
Fore
SplineSet
182 1736 m 1,0,-1
 383 1870 l 1,1,-1
 636 1404 l 1,2,-1
 547 1349 l 1,3,-1
 182 1736 l 1,0,-1
EndSplineSet
EndChar

StartChar: a
Encoding: 97 97 87
Width: 1360
GlyphClass: 2
Flags: W
LayerCount: 2
Fore
SplineSet
446 1022 m 0,0,1
 429 991 429 991 429 950.5 c 128,-1,2
 429 910 429 910 467 853 c 1,3,-1
 399 812 l 1,4,5
 281 832 281 832 228 911 c 0,6,7
 209 938 209 938 209 981 c 128,-1,8
 209 1024 209 1024 244 1070.5 c 128,-1,9
 279 1117 279 1117 342 1152 c 0,10,11
 480 1228 480 1228 690 1228 c 0,12,13
 1032 1228 1032 1228 1115 1030 c 0,14,15
 1141 968 1141 968 1141 893 c 2,16,-1
 1141 266 l 2,17,18
 1141 150 1141 150 1163 126.5 c 128,-1,19
 1185 103 1185 103 1216.5 96 c 128,-1,20
 1248 89 1248 89 1301 84 c 1,21,-1
 1301 0 l 1,22,-1
 1053 0 l 2,23,24
 979 0 979 0 884 -8 c 0,25,26
 689 -26 689 -26 584 -26 c 128,-1,27
 479 -26 479 -26 399 2 c 128,-1,28
 319 30 319 30 268 76 c 0,29,30
 169 165 169 165 169 303 c 0,31,32
 169 452 169 452 342 578 c 1,33,34
 550 732 550 732 939 740 c 1,35,-1
 939 915 l 2,36,37
 939 1123 939 1123 662 1123 c 0,38,39
 504 1123 504 1123 446 1022 c 0,0,1
939 636 m 1,40,-1
 941 636 l 1,41,-1
 939 637 l 1,42,-1
 939 636 l 1,40,-1
939 636 m 1,43,44
 398 604 398 604 398 303 c 0,45,46
 398 144 398 144 559 98 c 0,47,48
 609 83 609 83 684 83 c 128,-1,49
 759 83 759 83 811.5 91.5 c 128,-1,50
 864 100 864 100 892.5 122 c 128,-1,51
 921 144 921 144 930 182.5 c 128,-1,52
 939 221 939 221 939 282 c 2,53,-1
 939 636 l 1,43,44
EndSplineSet
EndChar

StartChar: b
Encoding: 98 98 88
Width: 1362
GlyphClass: 2
Flags: W
LayerCount: 2
Fore
SplineSet
101 83 m 1,0,1
 216 93 216 93 240 117.5 c 128,-1,2
 264 142 264 142 269 171.5 c 128,-1,3
 274 201 274 201 274 249 c 2,4,-1
 274 1475 l 2,5,6
 274 1571 274 1571 238 1598 c 0,7,8
 214 1616 214 1616 101 1627 c 1,9,-1
 101 1710 l 1,10,-1
 650 1710 l 1,11,-1
 650 1627 l 1,12,13
 538 1616 538 1616 516 1600 c 0,14,15
 478 1573 478 1573 478 1475 c 2,16,-1
 478 1105 l 1,17,18
 570 1203 570 1203 724 1235 c 0,19,20
 773 1245 773 1245 837.5 1245 c 128,-1,21
 902 1245 902 1245 971 1220.5 c 128,-1,22
 1040 1196 1040 1196 1096 1153 c 128,-1,23
 1152 1110 1152 1110 1195 1051.5 c 128,-1,24
 1238 993 1238 993 1266 924 c 0,25,26
 1325 781 1325 781 1325 621 c 0,27,28
 1325 361 1325 361 1182 174 c 0,29,30
 1084 47 1084 47 932 -4 c 0,31,32
 855 -30 855 -30 784 -30 c 0,33,34
 692 -30 692 -30 592 -20 c 0,35,36
 405 0 405 0 361 0 c 2,37,-1
 101 0 l 1,38,-1
 101 83 l 1,0,1
478 293 m 2,39,40
 478 198 478 198 532 148 c 1,41,42
 602 86 602 86 768 86 c 256,43,44
 934 86 934 86 1022 248 c 1,45,46
 1100 388 1100 388 1100 621 c 0,47,48
 1100 959 1100 959 950 1082 c 0,49,50
 894 1128 894 1128 820 1128 c 128,-1,51
 746 1128 746 1128 686 1106 c 128,-1,52
 626 1084 626 1084 580 1046 c 0,53,54
 478 963 478 963 478 849 c 2,55,-1
 478 293 l 2,39,40
EndSplineSet
EndChar

StartChar: c
Encoding: 99 99 89
Width: 1195
GlyphClass: 2
Flags: W
LayerCount: 2
Fore
SplineSet
673 104 m 0,0,1
 871 104 871 104 1038 233 c 1,2,-1
 1095 178 l 1,3,4
 978 36 978 36 770 -10 c 0,5,6
 704 -24 704 -24 638 -24 c 0,7,8
 379 -24 379 -24 226 168 c 1,9,10
 85 347 85 347 85 608 c 0,11,12
 85 879 85 879 228 1056 c 0,13,14
 382 1245 382 1245 642 1245 c 0,15,16
 770 1245 770 1245 889 1194 c 0,17,18
 907 1186 907 1186 915 1185 c 1,19,20
 980 1202 980 1202 992 1266 c 1,21,-1
 1071 1266 l 1,22,-1
 1071 838 l 1,23,-1
 988 838 l 1,24,25
 934 1139 934 1139 657 1139 c 0,26,27
 479 1139 479 1139 390 974 c 1,28,29
 313 834 313 834 313 606 c 0,30,31
 313 215 313 215 550 124 c 0,32,33
 603 104 603 104 673 104 c 0,0,1
EndSplineSet
EndChar

StartChar: d
Encoding: 100 100 90
Width: 1363
GlyphClass: 2
Flags: W
LayerCount: 2
Fore
SplineSet
934 1155 m 1,0,1
 779 1615 779 1615 313 1718 c 1,2,-1
 334 1806 l 1,3,4
 793 1738 793 1738 1025 1418 c 0,5,6
 1233 1130 1233 1130 1233 703 c 0,7,8
 1233 367 1233 367 1080 171 c 0,9,10
 927 -24 927 -24 670 -24 c 0,11,12
 424 -24 424 -24 268 174 c 1,13,14
 123 356 123 356 123 606 c 0,15,16
 123 859 123 859 258 1039 c 0,17,18
 407 1237 407 1237 664 1237 c 0,19,20
 823 1237 823 1237 934 1155 c 1,0,1
1005 678 m 0,21,22
 1005 1129 1005 1129 683 1129 c 0,23,24
 502 1129 502 1129 420 966 c 1,25,26
 352 834 352 834 352 603 c 0,27,28
 352 261 352 261 518 134 c 0,29,30
 580 87 580 87 678.5 87 c 128,-1,31
 777 87 777 87 842 132 c 128,-1,32
 907 177 907 177 943 256 c 0,33,34
 1005 393 1005 393 1005 678 c 0,21,22
EndSplineSet
EndChar

StartChar: e
Encoding: 101 101 91
Width: 1195
GlyphClass: 2
Flags: W
LayerCount: 2
Fore
SplineSet
1068 149 m 1,0,1
 931 -20 931 -20 657 -20 c 0,2,3
 393 -20 393 -20 244 151 c 0,4,5
 101 316 101 316 101 587 c 0,6,7
 101 866 101 866 260 1048 c 0,8,9
 418 1228 418 1228 665 1228 c 0,10,11
 854 1228 854 1228 960 1148 c 0,12,13
 1061 1073 1061 1073 1061 942 c 0,14,15
 1061 773 1061 773 897 657 c 0,16,17
 706 522 706 522 319 519 c 1,18,19
 354 110 354 110 689 110 c 0,20,21
 899 110 899 110 1011 206 c 1,22,-1
 1068 149 l 1,0,1
316 626 m 1,23,24
 672 633 672 633 798 795 c 0,25,26
 844 855 844 855 844 944 c 0,27,28
 844 1060 844 1060 744 1104 c 0,29,30
 705 1121 705 1121 647 1121 c 128,-1,31
 589 1121 589 1121 544 1100.5 c 128,-1,32
 499 1080 499 1080 463 1044.5 c 128,-1,33
 427 1009 427 1009 400 961.5 c 128,-1,34
 373 914 373 914 355 859 c 0,35,36
 318 746 318 746 316 626 c 1,23,24
EndSplineSet
EndChar

StartChar: f
Encoding: 102 102 92
Width: 854
GlyphClass: 2
Flags: W
LayerCount: 2
Fore
SplineSet
98 85 m 1,0,1
 211 93 211 93 236 114 c 128,-1,2
 261 135 261 135 267 162 c 128,-1,3
 273 189 273 189 273 231 c 2,4,-1
 273 1086 l 1,5,-1
 106 1086 l 1,6,-1
 106 1179 l 1,7,8
 209 1193 209 1193 235.5 1211.5 c 128,-1,9
 262 1230 262 1230 268.5 1248.5 c 128,-1,10
 275 1267 275 1267 275 1294 c 2,11,-1
 275 1350 l 2,12,13
 275 1607 275 1607 404 1716 c 0,14,15
 520 1815 520 1815 768 1815 c 2,16,-1
 885 1815 l 1,17,-1
 894 1708 l 1,18,-1
 772 1692 l 2,19,20
 612 1671 612 1671 546 1608 c 1,21,22
 474 1541 474 1541 474 1397 c 2,23,-1
 474 1208 l 1,24,-1
 813 1208 l 1,25,-1
 813 1086 l 1,26,-1
 476 1086 l 1,27,-1
 476 252 l 2,28,29
 476 200 476 200 484 169.5 c 128,-1,30
 492 139 492 139 518 122 c 0,31,32
 557 97 557 97 724 85 c 1,33,-1
 724 0 l 1,34,-1
 98 0 l 1,35,-1
 98 85 l 1,0,1
EndSplineSet
EndChar

StartChar: g
Encoding: 103 103 93
Width: 1364
GlyphClass: 2
Flags: W
LayerCount: 2
Fore
SplineSet
931 114 m 1,0,1
 801 -24 801 -24 618 -24 c 0,2,3
 366 -24 366 -24 225 163 c 0,4,5
 99 330 99 330 99 588 c 0,6,7
 99 851 99 851 238 1030 c 0,8,9
 392 1228 392 1228 674 1228 c 0,10,11
 754 1228 754 1228 841 1222 c 0,12,13
 1007 1209 1007 1209 1048 1209 c 2,14,-1
 1307 1209 l 1,15,-1
 1307 1124 l 1,16,17
 1193 1116 1193 1116 1169 1091.5 c 128,-1,18
 1145 1067 1145 1067 1140 1036.5 c 128,-1,19
 1135 1006 1135 1006 1135 958 c 2,20,-1
 1135 51 l 2,21,22
 1135 -209 1135 -209 992 -390 c 0,23,24
 837 -587 837 -587 575 -587 c 0,25,26
 444 -587 444 -587 322 -527 c 1,27,-1
 361 -419 l 1,28,29
 447 -453 447 -453 554 -453 c 128,-1,30
 661 -453 661 -453 734.5 -409.5 c 128,-1,31
 808 -366 808 -366 852 -296 c 0,32,33
 931 -167 931 -167 931 49 c 2,34,-1
 931 114 l 1,0,1
326 588 m 0,35,36
 326 87 326 87 626 87 c 0,37,38
 756 87 756 87 844 171 c 0,39,40
 931 254 931 254 931 371 c 2,41,-1
 931 916 l 2,42,43
 931 1017 931 1017 898 1052 c 0,44,45
 834 1120 834 1120 670 1120 c 0,46,47
 326 1120 326 1120 326 588 c 0,35,36
EndSplineSet
EndChar

StartChar: h
Encoding: 104 104 94
Width: 1535
GlyphClass: 2
Flags: W
LayerCount: 2
Fore
SplineSet
527 1000 m 1,0,1
 617 1177 617 1177 860 1300 c 1,2,3
 1034 1207 1034 1207 1124 1097 c 0,4,5
 1271 917 1271 917 1302 572 c 0,6,7
 1312 451 1312 451 1312 339 c 128,-1,8
 1312 227 1312 227 1315.5 187 c 128,-1,9
 1319 147 1319 147 1332 127 c 128,-1,10
 1345 107 1345 107 1369.5 100.5 c 128,-1,11
 1394 94 1394 94 1418.5 90 c 128,-1,12
 1443 86 1443 86 1453.5 85.5 c 128,-1,13
 1464 85 1464 85 1474 83 c 1,14,-1
 1474 0 l 1,15,-1
 931 0 l 1,16,-1
 931 83 l 1,17,18
 988 90 988 90 1022 96.5 c 128,-1,19
 1056 103 1056 103 1074 121 c 0,20,21
 1103 150 1103 150 1103 282 c 2,22,-1
 1103 399 l 2,23,24
 1103 626 1103 626 1092 715.5 c 128,-1,25
 1081 805 1081 805 1064.5 862 c 128,-1,26
 1048 919 1048 919 1020 970 c 0,27,28
 967 1065 967 1065 851 1159 c 1,29,30
 702 1068 702 1068 630 972 c 0,31,32
 527 834 527 834 527 631 c 2,33,-1
 527 292 l 2,34,35
 527 223 527 223 531 184.5 c 128,-1,36
 535 146 535 146 552.5 126 c 128,-1,37
 570 106 570 106 604.5 98.5 c 128,-1,38
 639 91 639 91 700 83 c 1,39,-1
 700 0 l 1,40,-1
 151 0 l 1,41,-1
 151 82 l 1,42,-1
 153 83 l 1,43,44
 212 90 212 90 246 97.5 c 128,-1,45
 280 105 280 105 297 123 c 0,46,47
 323 151 323 151 323 261 c 2,48,-1
 323 1473 l 2,49,50
 323 1584 323 1584 299.5 1606 c 128,-1,51
 276 1628 276 1628 242 1634.5 c 128,-1,52
 208 1641 208 1641 151 1646 c 1,53,-1
 151 1730 l 1,54,-1
 700 1730 l 1,55,-1
 700 1646 l 1,56,57
 644 1640 644 1640 610 1634 c 128,-1,58
 576 1628 576 1628 558 1612 c 0,59,60
 527 1586 527 1586 527 1473 c 2,61,-1
 527 1000 l 1,0,1
EndSplineSet
EndChar

StartChar: i
Encoding: 105 105 95
Width: 680
GlyphClass: 2
Flags: W
LayerCount: 2
Fore
SplineSet
168 1607 m 1,0,-1
 350 1786 l 1,1,-1
 528 1607 l 1,2,-1
 350 1426 l 1,3,-1
 168 1607 l 1,0,-1
85 83 m 1,4,-1
 120 88 l 2,5,6
 163 94 163 94 190 100.5 c 128,-1,7
 217 107 217 107 232 124 c 0,8,9
 258 155 258 155 258 266 c 2,10,-1
 258 944 l 2,11,12
 258 1058 258 1058 234 1081.5 c 128,-1,13
 210 1105 210 1105 176 1111 c 128,-1,14
 142 1117 142 1117 85 1122 c 1,15,-1
 85 1208 l 1,16,-1
 632 1208 l 1,17,-1
 632 1122 l 1,18,19
 575 1116 575 1116 541 1110 c 128,-1,20
 507 1104 507 1104 489 1087 c 0,21,22
 460 1060 460 1060 460 944 c 2,23,-1
 460 266 l 2,24,25
 460 152 460 152 478 131 c 128,-1,26
 496 110 496 110 522.5 103 c 128,-1,27
 549 96 549 96 593 89 c 2,28,-1
 632 83 l 1,29,-1
 632 0 l 1,30,-1
 85 0 l 1,31,-1
 85 83 l 1,4,-1
EndSplineSet
EndChar

StartChar: j
Encoding: 106 106 96
Width: 680
GlyphClass: 2
Flags: W
LayerCount: 2
Fore
SplineSet
180 1607 m 1,0,-1
 362 1786 l 1,1,-1
 540 1607 l 1,2,-1
 362 1426 l 1,3,-1
 180 1607 l 1,0,-1
270 966 m 2,4,5
 270 1063 270 1063 238 1090 c 1,6,7
 211 1111 211 1111 97 1122 c 1,8,-1
 97 1208 l 1,9,-1
 645 1208 l 1,10,-1
 645 1122 l 1,11,12
 588 1116 588 1116 554 1110 c 128,-1,13
 520 1104 520 1104 502 1087 c 0,14,15
 472 1059 472 1059 472 944 c 2,16,-1
 472 310 l 2,17,18
 472 36 472 36 444 -72 c 128,-1,19
 416 -180 416 -180 382 -239.5 c 128,-1,20
 348 -299 348 -299 296 -352 c 1,21,22
 215 -432 215 -432 0 -565 c 1,23,-1
 -54 -497 l 1,24,-1
 -11 -455 l 2,25,26
 9 -435 9 -435 42 -404 c 128,-1,27
 75 -373 75 -373 111.5 -335 c 128,-1,28
 148 -297 148 -297 175 -258.5 c 128,-1,29
 202 -220 202 -220 220 -176.5 c 128,-1,30
 238 -133 238 -133 250 -76 c 0,31,32
 270 26 270 26 270 231 c 2,33,-1
 270 966 l 2,4,5
EndSplineSet
EndChar

StartChar: k
Encoding: 107 107 97
Width: 1364
GlyphClass: 2
Flags: W
LayerCount: 2
Fore
SplineSet
80 83 m 1,0,-1
 114 88 l 1,1,2
 205 100 205 100 224 121 c 0,3,4
 252 153 252 153 252 266 c 2,5,-1
 252 1448 l 2,6,7
 252 1561 252 1561 228.5 1584 c 128,-1,8
 205 1607 205 1607 171 1613.5 c 128,-1,9
 137 1620 137 1620 80 1625 c 1,10,-1
 80 1710 l 1,11,-1
 628 1710 l 1,12,-1
 628 1625 l 1,13,14
 571 1619 571 1619 537 1613 c 128,-1,15
 503 1607 503 1607 485 1590 c 0,16,17
 455 1563 455 1563 455 1448 c 2,18,-1
 455 266 l 2,19,20
 455 152 455 152 473.5 130.5 c 128,-1,21
 492 109 492 109 518.5 102.5 c 128,-1,22
 545 96 545 96 590 89 c 2,23,-1
 628 83 l 1,24,-1
 628 0 l 1,25,-1
 80 0 l 1,26,-1
 80 83 l 1,0,-1
525 650 m 1,27,-1
 850 964 l 1,28,-1
 876 988 l 2,29,30
 889 1000 889 1000 901 1012 c 2,31,-1
 923 1036 l 2,32,33
 945 1060 945 1060 945 1075.5 c 128,-1,34
 945 1091 945 1091 934.5 1100.5 c 128,-1,35
 924 1110 924 1110 907 1114 c 0,36,37
 879 1122 879 1122 829 1122 c 1,38,-1
 829 1209 l 1,39,-1
 1359 1209 l 1,40,-1
 1359 1128 l 1,41,42
 1193 1110 1193 1110 1083 999 c 2,43,-1
 777 689 l 1,44,-1
 1390 -165 l 1,45,-1
 1322 -222 l 1,46,-1
 525 650 l 1,27,-1
EndSplineSet
EndChar

StartChar: l
Encoding: 108 108 98
Width: 686
GlyphClass: 2
Flags: W
LayerCount: 2
Fore
SplineSet
89 83 m 1,0,-1
 124 88 l 2,1,2
 167 94 167 94 194 100.5 c 128,-1,3
 221 107 221 107 236 124 c 0,4,5
 262 155 262 155 262 265 c 2,6,-1
 262 1468 l 2,7,8
 262 1582 262 1582 238 1604.5 c 128,-1,9
 214 1627 214 1627 180 1633.5 c 128,-1,10
 146 1640 146 1640 89 1645 c 1,11,-1
 89 1730 l 1,12,-1
 464 1730 l 1,13,-1
 464 265 l 2,14,15
 464 161 464 161 498 128 c 0,16,17
 523 103 523 103 618 90 c 2,18,-1
 666 83 l 1,19,-1
 666 0 l 1,20,-1
 89 0 l 1,21,-1
 89 83 l 1,0,-1
EndSplineSet
EndChar

StartChar: m
Encoding: 109 109 99
Width: 2213
GlyphClass: 2
Flags: W
LayerCount: 2
Fore
SplineSet
147 83 m 1,0,-1
 175 87 l 2,1,2
 269 100 269 100 288 120 c 128,-1,3
 307 140 307 140 312 171.5 c 128,-1,4
 317 203 317 203 317 260 c 2,5,-1
 317 973 l 2,6,7
 317 1064 317 1064 294 1084.5 c 128,-1,8
 271 1105 271 1105 237.5 1111.5 c 128,-1,9
 204 1118 204 1118 147 1122 c 1,10,-1
 147 1208 l 1,11,-1
 520 1208 l 1,12,-1
 520 1000 l 1,13,14
 563 1093 563 1093 616 1146 c 0,15,16
 707 1239 707 1239 826 1300 c 1,17,18
 953 1228 953 1228 1015 1165 c 0,19,20
 1119 1057 1119 1057 1169 937 c 1,21,22
 1248 1097 1248 1097 1414 1220 c 0,23,24
 1468 1261 1468 1261 1533 1302 c 1,25,26
 1722 1197 1722 1197 1820 1085 c 0,27,28
 1973 911 1973 911 2002 570 c 0,29,30
 2012 451 2012 451 2012 340.5 c 128,-1,31
 2012 230 2012 230 2017.5 190 c 128,-1,32
 2023 150 2023 150 2037.5 129 c 128,-1,33
 2052 108 2052 108 2077 101 c 128,-1,34
 2102 94 2102 94 2142 88 c 2,35,-1
 2180 83 l 1,36,-1
 2180 0 l 1,37,-1
 1633 0 l 1,38,-1
 1633 83 l 1,39,40
 1690 90 1690 90 1724 96.5 c 128,-1,41
 1758 103 1758 103 1776 121 c 0,42,43
 1806 151 1806 151 1806 282 c 2,44,-1
 1807 433 l 2,45,46
 1809 718 1809 718 1758 858 c 0,47,48
 1704 1009 1704 1009 1533 1160 c 1,49,50
 1410 1057 1410 1057 1354 949 c 256,51,52
 1298 841 1298 841 1283 716 c 0,53,54
 1262 540 1262 540 1262 370.5 c 128,-1,55
 1262 201 1262 201 1268 170.5 c 128,-1,56
 1274 140 1274 140 1290 124 c 0,57,58
 1314 100 1314 100 1408 87 c 2,59,-1
 1435 83 l 1,60,-1
 1435 0 l 1,61,-1
 887 0 l 1,62,-1
 887 83 l 1,63,64
 944 90 944 90 978 96 c 128,-1,65
 1012 102 1012 102 1030 120 c 0,66,67
 1059 148 1059 148 1059 276 c 2,68,-1
 1059 397 l 2,69,70
 1059 719 1059 719 1026.5 833.5 c 128,-1,71
 994 948 994 948 945.5 1019 c 128,-1,72
 897 1090 897 1090 816 1159 c 1,73,74
 680 1072 680 1072 610 964 c 0,75,76
 520 824 520 824 520 631 c 2,77,-1
 520 292 l 2,78,79
 520 160 520 160 539.5 134 c 128,-1,80
 559 108 559 108 588 100.5 c 128,-1,81
 617 93 617 93 667 86 c 1,82,-1
 693 83 l 1,83,-1
 693 0 l 1,84,-1
 147 0 l 1,85,-1
 147 83 l 1,0,-1
EndSplineSet
EndChar

StartChar: n
Encoding: 110 110 100
Width: 1538
GlyphClass: 2
Flags: W
LayerCount: 2
Fore
SplineSet
526 1000 m 1,0,1
 617 1181 617 1181 852 1300 c 1,2,3
 1025 1208 1025 1208 1118 1098 c 1,4,5
 1265 921 1265 921 1296 572 c 0,6,7
 1306 452 1306 452 1306 340 c 128,-1,8
 1306 228 1306 228 1310 188 c 128,-1,9
 1314 148 1314 148 1327 127.5 c 128,-1,10
 1340 107 1340 107 1365 100.5 c 128,-1,11
 1390 94 1390 94 1415 90 c 128,-1,12
 1440 86 1440 86 1450.5 85.5 c 128,-1,13
 1461 85 1461 85 1472 83 c 1,14,-1
 1472 0 l 1,15,-1
 925 0 l 1,16,-1
 925 83 l 1,17,18
 982 90 982 90 1016 96.5 c 128,-1,19
 1050 103 1050 103 1068 121 c 0,20,21
 1097 150 1097 150 1097 282 c 2,22,-1
 1097 398 l 2,23,24
 1097 627 1097 627 1086 715.5 c 128,-1,25
 1075 804 1075 804 1058.5 861.5 c 128,-1,26
 1042 919 1042 919 1014 970 c 1,27,28
 959 1066 959 1066 842 1159 c 1,29,30
 526 964 526 964 526 631 c 2,31,-1
 526 292 l 2,32,33
 526 160 526 160 545.5 134 c 128,-1,34
 565 108 565 108 594 100.5 c 128,-1,35
 623 93 623 93 673 86 c 1,36,-1
 699 83 l 1,37,-1
 699 0 l 1,38,-1
 152 0 l 1,39,-1
 152 82 l 1,40,41
 158 85 158 85 167.5 85.5 c 128,-1,42
 177 86 177 86 202.5 89.5 c 128,-1,43
 228 93 228 93 255.5 100 c 128,-1,44
 283 107 283 107 298 124 c 0,45,46
 323 151 323 151 323 260 c 2,47,-1
 323 973 l 2,48,49
 323 1064 323 1064 300 1084.5 c 128,-1,50
 277 1105 277 1105 243 1111.5 c 128,-1,51
 209 1118 209 1118 152 1122 c 1,52,-1
 152 1208 l 1,53,-1
 526 1208 l 1,54,-1
 526 1000 l 1,0,1
EndSplineSet
EndChar

StartChar: o
Encoding: 111 111 101
Width: 1364
GlyphClass: 2
Flags: W
LayerCount: 2
Fore
SplineSet
121 610 m 0,0,1
 121 688 121 688 136.5 765 c 128,-1,2
 152 842 152 842 183.5 911 c 128,-1,3
 215 980 215 980 262 1038 c 128,-1,4
 309 1096 309 1096 371 1138 c 0,5,6
 504 1228 504 1228 680 1228 c 0,7,8
 946 1228 946 1228 1100 1038 c 0,9,10
 1241 864 1241 864 1241 609 c 0,11,12
 1241 352 1241 352 1100 172 c 0,13,14
 946 -24 946 -24 680 -24 c 0,15,16
 415 -24 415 -24 260 175 c 0,17,18
 121 355 121 355 121 610 c 0,0,1
563 109 m 0,19,20
 614 87 614 87 681.5 87 c 128,-1,21
 749 87 749 87 800 108.5 c 128,-1,22
 851 130 851 130 888 168 c 128,-1,23
 925 206 925 206 949.5 256.5 c 128,-1,24
 974 307 974 307 989 365 c 0,25,26
 1016 469 1016 469 1016 570.5 c 128,-1,27
 1016 672 1016 672 1010 734.5 c 128,-1,28
 1004 797 1004 797 989 853.5 c 128,-1,29
 974 910 974 910 949.5 959 c 128,-1,30
 925 1008 925 1008 888 1044 c 0,31,32
 808 1120 808 1120 682 1120 c 0,33,34
 445 1120 445 1120 376 848 c 0,35,36
 349 745 349 745 349 609 c 0,37,38
 349 201 349 201 563 109 c 0,19,20
EndSplineSet
EndChar

StartChar: p
Encoding: 112 112 102
Width: 1364
GlyphClass: 2
Flags: W
LayerCount: 2
Fore
SplineSet
756 -24 m 0,0,1
 571 -24 571 -24 443 110 c 1,2,-1
 443 -330 l 2,3,4
 443 -429 443 -429 484 -454 c 0,5,6
 513 -472 513 -472 637 -483 c 1,7,-1
 637 -566 l 1,8,-1
 77 -566 l 1,9,-1
 77 -484 l 1,10,-1
 79 -483 l 1,11,12
 180 -474 180 -474 202 -457 c 0,13,14
 239 -427 239 -427 239 -330 c 2,15,-1
 239 959 l 2,16,17
 239 1057 239 1057 216.5 1080 c 128,-1,18
 194 1103 194 1103 159.5 1111.5 c 128,-1,19
 125 1120 125 1120 66 1125 c 1,20,-1
 66 1208 l 1,21,-1
 326 1208 l 2,22,23
 388 1208 388 1208 466 1214 c 0,24,25
 626 1228 626 1228 712 1228 c 128,-1,26
 798 1228 798 1228 879 1203.5 c 128,-1,27
 960 1179 960 1179 1024 1135.5 c 128,-1,28
 1088 1092 1088 1092 1135 1032.5 c 128,-1,29
 1182 973 1182 973 1213 902 c 0,30,31
 1274 764 1274 764 1274 619.5 c 128,-1,32
 1274 475 1274 475 1243 363.5 c 128,-1,33
 1212 252 1212 252 1148 166 c 0,34,35
 1008 -24 1008 -24 756 -24 c 0,0,1
1048 594 m 0,36,37
 1048 1122 1048 1122 703 1122 c 0,38,39
 472 1122 472 1122 450 994 c 0,40,41
 443 957 443 957 443 916 c 2,42,-1
 443 366 l 2,43,44
 443 248 443 248 530 168 c 0,45,46
 619 87 619 87 731 87 c 128,-1,47
 843 87 843 87 901.5 132.5 c 128,-1,48
 960 178 960 178 992 251 c 0,49,50
 1048 376 1048 376 1048 594 c 0,36,37
EndSplineSet
EndChar

StartChar: q
Encoding: 113 113 103
Width: 1364
GlyphClass: 2
Flags: W
LayerCount: 2
Fore
SplineSet
143 457.5 m 128,-1,1
 128 536 128 536 128 635 c 128,-1,2
 128 734 128 734 163 844.5 c 128,-1,3
 198 955 198 955 268 1040 c 0,4,5
 422 1229 422 1229 687 1229 c 0,6,7
 927 1229 927 1229 1063 1080 c 1,8,9
 1190 939 1190 939 1190 713 c 2,10,-1
 1190 -349 l 2,11,12
 1190 -424 1190 -424 1214 -443 c 0,13,14
 1250 -471 1250 -471 1362 -481 c 1,15,-1
 1362 -566 l 1,16,-1
 815 -566 l 1,17,-1
 815 -482 l 1,18,-1
 817 -481 l 1,19,20
 928 -471 928 -471 951.5 -452.5 c 128,-1,21
 975 -434 975 -434 981 -408 c 128,-1,22
 987 -382 987 -382 987 -338 c 2,23,-1
 986 116 l 1,24,25
 940 55 940 55 859 15 c 128,-1,26
 778 -25 778 -25 677.5 -25 c 128,-1,27
 577 -25 577 -25 502 0.5 c 128,-1,28
 427 26 427 26 367.5 70.5 c 128,-1,29
 308 115 308 115 263 176 c 128,-1,30
 218 237 218 237 188 308 c 128,-1,0
 158 379 158 379 143 457.5 c 128,-1,1
562 114 m 0,31,32
 612 93 612 93 669.5 93 c 128,-1,33
 727 93 727 93 781 109 c 128,-1,34
 835 125 835 125 880 160 c 1,35,36
 986 239 986 239 986 378 c 2,37,-1
 986 677 l 2,38,39
 986 983 986 983 834 1083 c 0,40,41
 777 1121 777 1121 699.5 1121 c 128,-1,42
 622 1121 622 1121 571 1100.5 c 128,-1,43
 520 1080 520 1080 483 1043.5 c 128,-1,44
 446 1007 446 1007 421.5 958 c 128,-1,45
 397 909 397 909 382 852 c 0,46,47
 356 749 356 749 356 612 c 0,48,49
 356 204 356 204 562 114 c 0,31,32
EndSplineSet
EndChar

StartChar: r
Encoding: 114 114 104
Width: 1195
GlyphClass: 2
Flags: W
LayerCount: 2
Fore
SplineSet
837 845 m 1,0,1
 893 899 893 899 893 1009 c 0,2,3
 893 1063 893 1063 842 1094 c 0,4,5
 799 1119 799 1119 711 1119 c 0,6,7
 521 1119 521 1119 521 995 c 2,8,-1
 521 235 l 2,9,10
 521 192 521 192 529.5 164 c 128,-1,11
 538 136 538 136 568 119 c 0,12,13
 620 89 620 89 808 83 c 1,14,-1
 808 0 l 1,15,-1
 140 0 l 1,16,-1
 140 82 l 1,17,-1
 142 83 l 1,18,19
 260 95 260 95 283.5 116.5 c 128,-1,20
 307 138 307 138 312.5 166.5 c 128,-1,21
 318 195 318 195 318 243 c 2,22,-1
 318 936 l 2,23,24
 318 1045 318 1045 296.5 1071 c 128,-1,25
 275 1097 275 1097 244 1107 c 128,-1,26
 213 1117 213 1117 162 1123 c 1,27,-1
 162 1208 l 1,28,-1
 369 1208 l 2,29,30
 492 1208 492 1208 544 1213 c 128,-1,31
 596 1218 596 1218 626 1220 c 0,32,33
 716 1228 716 1228 772.5 1228 c 128,-1,34
 829 1228 829 1228 889 1219 c 128,-1,35
 949 1210 949 1210 995 1188 c 0,36,37
 1096 1140 1096 1140 1096 1039 c 0,38,39
 1096 958 1096 958 1030 888 c 0,40,41
 968 822 968 822 892 801 c 1,42,-1
 837 845 l 1,0,1
EndSplineSet
EndChar

StartChar: s
Encoding: 115 115 105
Width: 1190
GlyphClass: 2
Flags: W
LayerCount: 2
Fore
SplineSet
810 894 m 1,0,1
 848 953 848 953 848 1000.5 c 128,-1,2
 848 1048 848 1048 791.5 1084.5 c 128,-1,3
 735 1121 735 1121 657 1121 c 128,-1,4
 579 1121 579 1121 537 1107 c 128,-1,5
 495 1093 495 1093 466 1068 c 0,6,7
 409 1019 409 1019 409 937 c 0,8,9
 409 838 409 838 575 754 c 0,10,11
 623 729 623 729 656 714 c 0,12,13
 909 600 909 600 977 545.5 c 128,-1,14
 1045 491 1045 491 1075.5 441 c 128,-1,15
 1106 391 1106 391 1106 317 c 128,-1,16
 1106 243 1106 243 1065 178 c 128,-1,17
 1024 113 1024 113 956 68 c 0,18,19
 818 -24 818 -24 624 -24 c 0,20,21
 443 -24 443 -24 308 50 c 1,22,23
 160 129 160 129 164 251 c 0,24,25
 166 323 166 323 226 380 c 0,26,27
 280 431 280 431 355 448 c 1,28,-1
 399 397 l 1,29,30
 361 350 361 350 361 271 c 0,31,32
 361 202 361 202 433 148 c 0,33,34
 513 87 513 87 637.5 87 c 128,-1,35
 762 87 762 87 833.5 143 c 128,-1,36
 905 199 905 199 905 293 c 0,37,38
 905 403 905 403 721 487 c 0,39,40
 666 512 666 512 631 526.5 c 128,-1,41
 596 541 596 541 587 545 c 128,-1,42
 578 549 578 549 537.5 567.5 c 128,-1,43
 497 586 497 586 432.5 623 c 128,-1,44
 368 660 368 660 319 704 c 0,45,46
 214 797 214 797 214 914 c 0,47,48
 214 1059 214 1059 342 1146 c 0,49,50
 464 1228 464 1228 666 1228 c 0,51,52
 822 1228 822 1228 923.5 1166 c 128,-1,53
 1025 1104 1025 1104 1025 1012 c 0,54,55
 1025 954 1025 954 970 906 c 0,56,57
 922 865 922 865 867 853 c 1,58,-1
 810 894 l 1,0,1
EndSplineSet
EndChar

StartChar: t
Encoding: 116 116 106
Width: 856
GlyphClass: 2
Flags: W
LayerCount: 2
Fore
SplineSet
159 83 m 1,0,1
 204 93 204 93 230.5 100.5 c 128,-1,2
 257 108 257 108 270 126 c 0,3,4
 292 155 292 155 292 276 c 2,5,-1
 292 1086 l 1,6,-1
 121 1086 l 1,7,-1
 121 1178 l 1,8,9
 267 1199 267 1199 289 1221 c 1,10,-1
 288 1221 l 1,11,12
 310 1251 310 1251 327 1355 c 128,-1,13
 344 1459 344 1459 348 1508 c 1,14,-1
 493 1568 l 1,15,-1
 493 1208 l 1,16,-1
 855 1208 l 1,17,-1
 855 1086 l 1,18,-1
 493 1086 l 1,19,-1
 493 279 l 2,20,21
 493 186 493 186 506.5 160.5 c 128,-1,22
 520 135 520 135 540 123 c 128,-1,23
 560 111 560 111 594 105 c 0,24,25
 649 95 649 95 795 93 c 1,26,-1
 795 0 l 1,27,-1
 159 0 l 1,28,-1
 159 83 l 1,0,1
EndSplineSet
EndChar

StartChar: u
Encoding: 117 117 107
Width: 1361
GlyphClass: 2
Flags: W
LayerCount: 2
Fore
SplineSet
680 -52 m 1,0,1
 490 62 490 62 400 160 c 0,2,3
 242 333 242 333 210 662 c 0,4,5
 198 780 198 780 198 882.5 c 128,-1,6
 198 985 198 985 196 1019.5 c 128,-1,7
 194 1054 194 1054 180 1075 c 0,8,9
 156 1113 156 1113 58 1122 c 1,10,-1
 58 1208 l 1,11,-1
 550 1208 l 1,12,-1
 550 1122 l 1,13,14
 451 1112 451 1112 422 1078 c 1,15,16
 399 1049 399 1049 399 938 c 128,-1,17
 399 827 399 827 402.5 731 c 128,-1,18
 406 635 406 635 416 559 c 128,-1,19
 426 483 426 483 445 422.5 c 128,-1,20
 464 362 464 362 496 308 c 0,21,22
 554 208 554 208 680 90 c 1,23,24
 809 211 809 211 852.5 286.5 c 128,-1,25
 896 362 896 362 915 422.5 c 128,-1,26
 934 483 934 483 944 559 c 0,27,28
 961 688 961 688 961 843.5 c 128,-1,29
 961 999 961 999 957 1029 c 128,-1,30
 953 1059 953 1059 938 1078 c 0,31,32
 909 1112 909 1112 811 1122 c 1,33,-1
 811 1208 l 1,34,-1
 1301 1208 l 1,35,-1
 1301 1122 l 1,36,37
 1203 1108 1203 1108 1186 1082.5 c 128,-1,38
 1169 1057 1169 1057 1165.5 1023 c 128,-1,39
 1162 989 1162 989 1162 884.5 c 128,-1,40
 1162 780 1162 780 1150.5 662 c 128,-1,41
 1139 544 1139 544 1114.5 452 c 128,-1,42
 1090 360 1090 360 1052 289.5 c 128,-1,43
 1014 219 1014 219 960 160 c 0,44,45
 870 62 870 62 680 -52 c 1,0,1
EndSplineSet
EndChar

StartChar: v
Encoding: 118 118 108
Width: 1191
GlyphClass: 2
Flags: W
LayerCount: 2
Fore
SplineSet
173 954 m 2,0,1
 136 1048 136 1048 110 1074 c 0,2,3
 71 1112 71 1112 -12 1124 c 1,4,-1
 -12 1208 l 1,5,-1
 477 1208 l 1,6,-1
 477 1122 l 1,7,8
 406 1119 406 1119 387 1113 c 0,9,10
 348 1101 348 1101 348 1064 c 0,11,12
 348 1043 348 1043 360 1010 c 2,13,-1
 625 303 l 1,14,-1
 865 936 l 2,15,16
 893 1011 893 1011 893 1042 c 128,-1,17
 893 1073 893 1073 883 1087 c 128,-1,18
 873 1101 873 1101 856 1109 c 0,19,20
 828 1122 828 1122 765 1122 c 1,21,-1
 765 1208 l 1,22,-1
 1204 1208 l 1,23,-1
 1204 1124 l 1,24,25
 1106 1124 1106 1124 1048 975 c 1,26,-1
 641 -45 l 1,27,-1
 568 -45 l 1,28,-1
 173 954 l 2,0,1
EndSplineSet
EndChar

StartChar: w
Encoding: 119 119 109
Width: 2050
GlyphClass: 2
Flags: W
LayerCount: 2
Fore
SplineSet
666 60 m 1,0,1
 792 184 792 184 831.5 260 c 128,-1,2
 871 336 871 336 887.5 397 c 128,-1,3
 904 458 904 458 912 533 c 0,4,5
 925 643 925 643 925 812.5 c 128,-1,6
 925 982 925 982 921 1020.5 c 128,-1,7
 917 1059 917 1059 901.5 1080.5 c 128,-1,8
 886 1102 886 1102 854.5 1110.5 c 128,-1,9
 823 1119 823 1119 769 1124 c 1,10,-1
 769 1208 l 1,11,-1
 1282 1208 l 1,12,-1
 1282 1124 l 1,13,14
 1228 1117 1228 1117 1196.5 1109.5 c 128,-1,15
 1165 1102 1165 1102 1149 1082 c 0,16,17
 1124 1051 1124 1051 1124 918.5 c 128,-1,18
 1124 786 1124 786 1127 687.5 c 128,-1,19
 1130 589 1130 589 1140 512.5 c 128,-1,20
 1150 436 1150 436 1167.5 377 c 128,-1,21
 1185 318 1185 318 1214 266 c 0,22,23
 1265 175 1265 175 1384 60 c 1,24,25
 1505 181 1505 181 1558 286 c 0,26,27
 1612 395 1612 395 1624 511 c 0,28,29
 1642 674 1642 674 1642 837 c 128,-1,30
 1642 1000 1642 1000 1639 1031.5 c 128,-1,31
 1636 1063 1636 1063 1621 1082 c 0,32,33
 1594 1114 1594 1114 1485 1124 c 1,34,-1
 1485 1208 l 1,35,-1
 1986 1208 l 1,36,-1
 1986 1124 l 1,37,38
 1887 1111 1887 1111 1864 1085 c 1,39,40
 1840 1056 1840 1056 1840 916 c 128,-1,41
 1840 776 1840 776 1830.5 656.5 c 128,-1,42
 1821 537 1821 537 1799 442.5 c 128,-1,43
 1777 348 1777 348 1742.5 273.5 c 128,-1,44
 1708 199 1708 199 1657 138 c 0,45,46
 1566 28 1566 28 1384 -81 c 1,47,48
 1252 6 1252 6 1186 78 c 0,49,50
 1075 200 1075 200 1026 320 c 1,51,52
 970 192 970 192 906 122 c 0,53,54
 797 3 797 3 666 -81 c 1,55,56
 484 28 484 28 393 138 c 0,57,58
 247 314 247 314 220 656 c 0,59,60
 210 776 210 776 210 881.5 c 128,-1,61
 210 987 210 987 206.5 1022.5 c 128,-1,62
 203 1058 203 1058 189 1078 c 0,63,64
 166 1110 166 1110 64 1124 c 1,65,-1
 64 1208 l 1,66,-1
 565 1208 l 1,67,-1
 565 1124 l 1,68,69
 455 1115 455 1115 428 1078 c 0,70,71
 407 1050 407 1050 407 937.5 c 128,-1,72
 407 825 407 825 409.5 726.5 c 128,-1,73
 412 628 412 628 420.5 549 c 128,-1,74
 429 470 429 470 446 406.5 c 128,-1,75
 463 343 463 343 492 286 c 0,76,77
 546 180 546 180 666 60 c 1,0,1
EndSplineSet
EndChar

StartChar: x
Encoding: 120 120 110
Width: 1364
GlyphClass: 2
Flags: W
LayerCount: 2
Fore
SplineSet
101 82 m 1,0,1
 190 90 190 90 209.5 105.5 c 128,-1,2
 229 121 229 121 236.5 141.5 c 128,-1,3
 244 162 244 162 254 195 c 2,4,-1
 260 215 l 1,5,6
 341 459 341 459 596 623 c 1,7,8
 385 745 385 745 310 893 c 0,9,10
 285 941 285 941 272.5 987 c 128,-1,11
 260 1033 260 1033 250.5 1057.5 c 128,-1,12
 241 1082 241 1082 224 1096 c 0,13,14
 200 1116 200 1116 101 1126 c 1,15,-1
 101 1208 l 1,16,-1
 627 1208 l 1,17,-1
 627 1126 l 1,18,19
 526 1119 526 1119 506 1105.5 c 128,-1,20
 486 1092 486 1092 484.5 1079.5 c 128,-1,21
 483 1067 483 1067 483 1051 c 128,-1,22
 483 1035 483 1035 494 995 c 128,-1,23
 505 955 505 955 532 904 c 0,24,25
 600 776 600 776 717 693 c 1,26,27
 857 775 857 775 934 904 c 0,28,29
 990 997 990 997 990 1050 c 0,30,31
 990 1088 990 1088 974 1099 c 0,32,33
 946 1119 946 1119 857 1126 c 1,34,-1
 857 1208 l 1,35,-1
 1328 1208 l 1,36,-1
 1328 1126 l 1,37,38
 1239 1116 1239 1116 1216 1099 c 128,-1,39
 1193 1082 1193 1082 1184 1062.5 c 128,-1,40
 1175 1043 1175 1043 1166 1015 c 2,41,-1
 1159 993 l 1,42,43
 1120 882 1120 882 1070 819 c 0,44,45
 980 707 980 707 842 624 c 1,46,47
 1117 459 1117 459 1181 215 c 1,48,49
 1201 131 1201 131 1219 115 c 0,50,51
 1244 92 1244 92 1339 82 c 1,52,-1
 1339 0 l 1,53,-1
 814 0 l 1,54,-1
 814 82 l 1,55,56
 909 89 909 89 930.5 102.5 c 128,-1,57
 952 116 952 116 955 128.5 c 128,-1,58
 958 141 958 141 958 157.5 c 128,-1,59
 958 174 958 174 948 219 c 128,-1,60
 938 264 938 264 911 322 c 0,61,62
 842 468 842 468 717 559 c 1,63,64
 574 468 574 468 490 322 c 0,65,66
 429 215 429 215 429 158 c 0,67,68
 429 120 429 120 450 109 c 0,69,70
 488 89 488 89 605 82 c 1,71,-1
 605 0 l 1,72,-1
 101 0 l 1,73,-1
 101 82 l 1,0,1
EndSplineSet
EndChar

StartChar: y
Encoding: 121 121 111
Width: 1361
GlyphClass: 2
Flags: W
LayerCount: 2
Fore
SplineSet
954 183 m 1,0,1
 841 7 841 7 640 -92 c 1,2,3
 467 0 467 0 374 110 c 1,4,5
 227 287 227 287 196 636 c 0,6,7
 186 756 186 756 186 865 c 128,-1,8
 186 974 186 974 181 1015 c 128,-1,9
 176 1056 176 1056 161.5 1078.5 c 128,-1,10
 147 1101 147 1101 120.5 1109.5 c 128,-1,11
 94 1118 94 1118 50 1122 c 1,12,-1
 50 1208 l 1,13,-1
 554 1208 l 1,14,-1
 554 1122 l 1,15,-1
 529 1119 l 2,16,17
 484 1113 484 1113 457.5 1106.5 c 128,-1,18
 431 1100 431 1100 417 1082 c 0,19,20
 395 1052 395 1052 395 926 c 2,21,-1
 395 810 l 2,22,23
 395 657 395 657 401.5 545 c 128,-1,24
 408 433 408 433 434 346 c 0,25,26
 483 180 483 180 649 49 c 1,27,28
 956 238 956 238 956 578 c 2,29,-1
 956 916 l 2,30,31
 956 1051 956 1051 937.5 1075 c 128,-1,32
 919 1099 919 1099 892.5 1106 c 128,-1,33
 866 1113 866 1113 821 1119 c 2,34,-1
 797 1122 l 1,35,-1
 797 1208 l 1,36,-1
 1300 1208 l 1,37,-1
 1300 1123 l 1,38,-1
 1298 1122 l 1,39,40
 1210 1114 1210 1114 1190 1085 c 0,41,42
 1159 1040 1159 1040 1159 908 c 2,43,-1
 1159 461 l 2,44,45
 1159 14 1159 14 1032 -229 c 0,46,47
 878 -525 878 -525 486 -587 c 1,48,-1
 465 -482 l 1,49,50
 705 -423 705 -423 819 -264 c 0,51,52
 930 -110 930 -110 954 183 c 1,0,1
EndSplineSet
EndChar

StartChar: z
Encoding: 122 122 112
Width: 1193
GlyphClass: 2
Flags: W
LayerCount: 2
Fore
SplineSet
1006 -51 m 1,0,1
 998 0 998 0 934 0 c 2,2,-1
 132 0 l 1,3,-1
 110 63 l 1,4,-1
 854 1086 l 1,5,-1
 491 1086 l 2,6,7
 372 1086 372 1086 314 1024 c 0,8,9
 286 995 286 995 266 953 c 1,10,-1
 225 859 l 1,11,-1
 126 859 l 1,12,-1
 230 1259 l 1,13,-1
 325 1259 l 1,14,15
 335 1208 335 1208 407 1208 c 2,16,-1
 1112 1208 l 1,17,-1
 1134 1145 l 1,18,-1
 400 123 l 1,19,-1
 772 123 l 2,20,21
 917 123 917 123 976 176 c 0,22,23
 1021 216 1021 216 1061 344 c 1,24,-1
 1158 344 l 1,25,-1
 1104 -51 l 1,26,-1
 1006 -51 l 1,0,1
EndSplineSet
EndChar

StartChar: braceleft
Encoding: 123 123 113
Width: 1022
GlyphClass: 2
Flags: W
LayerCount: 2
Fore
SplineSet
619 1270 m 1,0,1
 619 912 619 912 352 836 c 1,2,3
 619 760 619 760 619 402 c 1,4,-1
 618 220 l 2,5,6
 618 73 618 73 672 10 c 0,7,8
 727 -54 727 -54 868 -74 c 1,9,-1
 867 -166 l 1,10,11
 656 -166 656 -166 548 -69 c 0,12,13
 423 43 423 43 423 300 c 2,14,-1
 423 471 l 2,15,16
 423 690 423 690 266 750 c 0,17,18
 213 770 213 770 143 776 c 1,19,-1
 143 897 l 1,20,21
 356 915 356 915 406 1070 c 0,22,23
 423 1125 423 1125 423 1201 c 2,24,-1
 423 1373 l 2,25,26
 423 1744 423 1744 688 1816 c 0,27,28
 770 1838 770 1838 867 1838 c 1,29,-1
 868 1746 l 1,30,31
 728 1726 728 1726 674 1663 c 0,32,33
 618 1599 618 1599 618 1453 c 2,34,-1
 619 1270 l 1,0,1
EndSplineSet
EndChar

StartChar: bar
Encoding: 124 124 114
Width: 510
GlyphClass: 2
Flags: W
LayerCount: 2
Fore
SplineSet
182 1909 m 1,0,-1
 327 1909 l 1,1,-1
 327 -193 l 1,2,-1
 182 -193 l 1,3,-1
 182 1909 l 1,0,-1
EndSplineSet
EndChar

StartChar: braceright
Encoding: 125 125 115
Width: 1022
GlyphClass: 2
Flags: W
LayerCount: 2
Fore
SplineSet
403 1270 m 1,0,1
 403 912 403 912 670 836 c 1,2,3
 403 760 403 760 403 402 c 1,4,-1
 404 220 l 2,5,6
 404 73 404 73 350 10 c 0,7,8
 295 -54 295 -54 154 -74 c 1,9,-1
 155 -166 l 1,10,11
 366 -166 366 -166 474 -69 c 0,12,13
 599 43 599 43 599 300 c 2,14,-1
 599 471 l 2,15,16
 599 690 599 690 756 750 c 0,17,18
 809 770 809 770 879 776 c 1,19,-1
 879 897 l 1,20,21
 666 915 666 915 616 1070 c 0,22,23
 599 1125 599 1125 599 1201 c 2,24,-1
 599 1373 l 2,25,26
 599 1744 599 1744 334 1816 c 0,27,28
 252 1838 252 1838 155 1838 c 1,29,-1
 154 1746 l 1,30,31
 294 1726 294 1726 348 1663 c 0,32,33
 404 1599 404 1599 404 1453 c 2,34,-1
 403 1270 l 1,0,1
EndSplineSet
EndChar

StartChar: asciitilde
Encoding: 126 126 116
Width: 1370
GlyphClass: 2
Flags: W
LayerCount: 2
Fore
SplineSet
913 846 m 0,0,1
 1064 846 1064 846 1166 993 c 1,2,-1
 1238 939 l 1,3,4
 1172 823 1172 823 1111 774 c 1,5,6
 995 678 995 678 860 678 c 0,7,8
 791 678 791 678 733 701 c 128,-1,9
 675 724 675 724 624 749 c 2,10,-1
 554 782 l 1,11,12
 492 813 492 813 428 813 c 0,13,14
 300 813 300 813 202 676 c 1,15,-1
 131 730 l 1,16,17
 269 975 269 975 509 975 c 0,18,19
 588 975 588 975 701 922 c 1,20,-1
 803 876 l 2,21,22
 871 846 871 846 913 846 c 0,0,1
EndSplineSet
EndChar

StartChar: exclamdown
Encoding: 161 161 118
Width: 512
GlyphClass: 2
Flags: W
LayerCount: 2
Fore
SplineSet
99 1539 m 1,0,-1
 278 1720 l 1,1,-1
 459 1539 l 1,2,-1
 278 1361 l 1,3,-1
 99 1539 l 1,0,-1
104 135 m 1,4,5
 185 352 185 352 217 821 c 0,6,7
 232 1030 232 1030 234 1253 c 1,8,-1
 330 1253 l 1,9,10
 341 453 341 453 465 135 c 1,11,-1
 283 -44 l 1,12,-1
 104 135 l 1,4,5
EndSplineSet
EndChar

StartChar: cent
Encoding: 162 162 119
Width: 1360
GlyphClass: 2
Flags: W
LayerCount: 2
Fore
SplineSet
769 105 m 2,0,1
 967 105 967 105 1134 234 c 1,2,-1
 1191 179 l 1,3,4
 1080 43 1080 43 874 -6 c 0,5,6
 810 -22 810 -22 746 -23 c 1,7,-1
 719 -295 l 1,8,-1
 604 -287 l 1,9,-1
 631 -14 l 1,10,11
 421 22 421 22 296 206 c 0,12,13
 181 375 181 375 181 609 c 0,14,15
 181 880 181 880 324 1057 c 0,16,17
 478 1246 478 1246 738 1246 c 2,18,-1
 754 1246 l 1,19,-1
 779 1498 l 1,20,-1
 895 1490 l 1,21,-1
 869 1232 l 1,22,23
 924 1220 924 1220 966.5 1203 c 128,-1,24
 1009 1186 1009 1186 1011 1186 c 0,25,26
 1076 1203 1076 1203 1088 1267 c 1,27,-1
 1167 1267 l 1,28,-1
 1167 839 l 1,29,-1
 1084 839 l 1,30,31
 1045 1079 1045 1079 859 1127 c 1,32,-1
 758 105 l 1,33,-1
 769 105 l 2,0,1
744 1140 m 1,34,35
 516 1133 516 1133 440 863 c 0,36,37
 409 750 409 750 409 640.5 c 128,-1,38
 409 531 409 531 420.5 456 c 128,-1,39
 432 381 432 381 460 316 c 0,40,41
 520 172 520 172 644 126 c 1,42,-1
 744 1140 l 1,34,35
EndSplineSet
EndChar

StartChar: sterling
Encoding: 163 163 120
Width: 1529
GlyphClass: 2
Flags: W
LayerCount: 2
Fore
SplineSet
1142 1495 m 0,0,1
 1203 1495 1203 1495 1233 1560 c 1,2,-1
 1336 1560 l 1,3,-1
 1216 1031 l 1,4,-1
 1110 1031 l 1,5,6
 1112 1048 1112 1048 1113 1069 c 2,7,-1
 1114 1102 l 2,8,9
 1115 1115 1115 1115 1115 1147 c 128,-1,10
 1115 1179 1115 1179 1105.5 1237 c 128,-1,11
 1096 1295 1096 1295 1069 1343 c 0,12,13
 1008 1452 1008 1452 869 1452 c 0,14,15
 728 1452 728 1452 668 1352 c 0,16,17
 622 1276 622 1276 622 1153 c 0,18,19
 622 1060 622 1060 635.5 942 c 128,-1,20
 649 824 649 824 654 772 c 1,21,-1
 1070 772 l 1,22,-1
 1043 659 l 1,23,-1
 662 659 l 1,24,25
 665 606 665 606 665 531 c 128,-1,26
 665 456 665 456 659 394.5 c 128,-1,27
 653 333 653 333 646.5 293 c 128,-1,28
 640 253 640 253 634 228.5 c 128,-1,29
 628 204 628 204 628 181 c 128,-1,30
 628 158 628 158 640.5 143 c 128,-1,31
 653 128 653 128 680 120 c 0,32,33
 718 110 718 110 819 110 c 128,-1,34
 920 110 920 110 977.5 112.5 c 128,-1,35
 1035 115 1035 115 1081 125 c 128,-1,36
 1127 135 1127 135 1163 155 c 128,-1,37
 1199 175 1199 175 1228 212 c 0,38,39
 1284 284 1284 284 1323 437 c 1,40,-1
 1424 437 l 1,41,-1
 1361 0 l 1,42,-1
 127 0 l 1,43,-1
 127 83 l 1,44,45
 324 117 324 117 389 224 c 0,46,47
 445 315 445 315 445 550 c 0,48,49
 445 592 445 592 440 659 c 1,50,-1
 205 659 l 1,51,-1
 231 772 l 1,52,-1
 428 772 l 1,53,54
 406 956 406 956 406 1057 c 128,-1,55
 406 1158 406 1158 438.5 1252.5 c 128,-1,56
 471 1347 471 1347 532 1416 c 0,57,58
 662 1560 662 1560 879 1560 c 0,59,60
 955 1560 955 1560 1015 1538 c 1,61,-1
 1099 1505 l 2,62,63
 1124 1495 1124 1495 1142 1495 c 0,0,1
EndSplineSet
EndChar

StartChar: currency
Encoding: 164 164 121
Width: 1532
GlyphClass: 2
Flags: W
LayerCount: 2
Fore
SplineSet
766 335 m 0,0,1
 613 335 613 335 509 416 c 1,2,-1
 278 177 l 1,3,-1
 198 257 l 1,4,-1
 436 489 l 1,5,6
 355 604 355 604 355 745 c 0,7,8
 355 885 355 885 437 1001 c 1,9,-1
 198 1231 l 1,10,-1
 278 1311 l 1,11,-1
 510 1073 l 1,12,13
 617 1154 617 1154 766 1154 c 256,14,15
 915 1154 915 1154 1021 1074 c 1,16,-1
 1253 1311 l 1,17,-1
 1333 1231 l 1,18,-1
 1094 1001 l 1,19,20
 1178 888 1178 888 1178 747 c 128,-1,21
 1178 606 1178 606 1095 488 c 1,22,-1
 1333 257 l 1,23,-1
 1253 177 l 1,24,-1
 1023 415 l 1,25,26
 918 335 918 335 766 335 c 0,0,1
657 477 m 128,-1,28
 700 450 700 450 767.5 450 c 128,-1,29
 835 450 835 450 878.5 477 c 128,-1,30
 922 504 922 504 947 546 c 0,31,32
 991 621 991 621 991 745 c 0,33,34
 991 946 991 946 878 1014 c 0,35,36
 835 1041 835 1041 768 1041 c 0,37,38
 647 1041 647 1041 590 943 c 0,39,40
 546 867 546 867 546 745 c 0,41,42
 546 621 546 621 580 562.5 c 128,-1,27
 614 504 614 504 657 477 c 128,-1,28
EndSplineSet
EndChar

StartChar: yen
Encoding: 165 165 122
Width: 1701
GlyphClass: 2
Flags: W
LayerCount: 2
Fore
SplineSet
1416 1256 m 0,0,1
 1416 927 1416 927 1076 752 c 1,2,-1
 1418 752 l 1,3,-1
 1391 639 l 1,4,-1
 949 639 l 1,5,-1
 949 451 l 1,6,-1
 1418 451 l 1,7,-1
 1391 338 l 1,8,-1
 949 338 l 1,9,-1
 949 266 l 2,10,11
 949 208 949 208 954.5 175.5 c 128,-1,12
 960 143 960 143 981 126 c 128,-1,13
 1002 109 1002 109 1043 101 c 128,-1,14
 1084 93 1084 93 1155 84 c 1,15,-1
 1155 1 l 1,16,-1
 542 1 l 1,17,-1
 542 84 l 1,18,19
 681 100 681 100 708 121.5 c 128,-1,20
 735 143 735 143 741.5 175.5 c 128,-1,21
 748 208 748 208 748 266 c 2,22,-1
 748 338 l 1,23,-1
 261 338 l 1,24,-1
 287 451 l 1,25,-1
 748 451 l 1,26,-1
 748 639 l 1,27,-1
 261 639 l 1,28,-1
 287 752 l 1,29,-1
 618 752 l 1,30,31
 280 923 280 923 280 1256 c 0,32,33
 280 1308 280 1308 278 1342 c 128,-1,34
 276 1376 276 1376 262 1397 c 0,35,36
 238 1435 238 1435 140 1444 c 1,37,-1
 140 1531 l 1,38,-1
 652 1531 l 1,39,-1
 652 1444 l 1,40,41
 548 1434 548 1434 514 1400 c 0,42,43
 481 1367 481 1367 481 1277 c 128,-1,44
 481 1187 481 1187 501 1111.5 c 128,-1,45
 521 1036 521 1036 566 976 c 0,46,47
 658 850 658 850 849 802 c 1,48,49
 1152 870 1152 870 1200 1112 c 0,50,51
 1215 1187 1215 1187 1215 1254 c 128,-1,52
 1215 1321 1215 1321 1207.5 1351 c 128,-1,53
 1200 1381 1200 1381 1181 1400 c 0,54,55
 1147 1434 1147 1434 1045 1444 c 1,56,-1
 1045 1531 l 1,57,-1
 1556 1531 l 1,58,-1
 1556 1444 l 1,59,60
 1461 1432 1461 1432 1437 1400 c 1,61,62
 1416 1370 1416 1370 1416 1256 c 0,0,1
EndSplineSet
EndChar

StartChar: brokenbar
Encoding: 166 166 123
Width: 510
GlyphClass: 2
Flags: W
LayerCount: 2
Fore
SplineSet
182 1911 m 1,0,-1
 327 1911 l 1,1,-1
 327 1019 l 1,2,-1
 182 1019 l 1,3,-1
 182 1911 l 1,0,-1
182 697 m 1,4,-1
 327 697 l 1,5,-1
 327 -191 l 1,6,-1
 182 -191 l 1,7,-1
 182 697 l 1,4,-1
EndSplineSet
EndChar

StartChar: section
Encoding: 167 167 124
Width: 1189
GlyphClass: 2
Flags: W
LayerCount: 2
Fore
SplineSet
733 1288 m 1,0,1
 801 1356 801 1356 801 1432 c 0,2,3
 801 1517 801 1517 743 1570 c 0,4,5
 683 1624 683 1624 582 1624 c 0,6,7
 445 1624 445 1624 396 1524 c 0,8,9
 381 1493 381 1493 381 1452 c 128,-1,10
 381 1411 381 1411 401.5 1373.5 c 128,-1,11
 422 1336 422 1336 453 1304 c 128,-1,12
 484 1272 484 1272 521 1244 c 2,13,-1
 592 1188 l 1,14,-1
 786 1026 l 2,15,16
 902 929 902 929 950 862 c 0,17,18
 1042 734 1042 734 1042 626 c 0,19,20
 1042 492 1042 492 963 406 c 0,21,22
 882 317 882 317 754 317 c 0,23,24
 731 317 731 317 719 320 c 1,25,-1
 765 276 l 2,26,27
 803 240 803 240 845.5 205 c 128,-1,28
 888 170 888 170 924 132 c 0,29,30
 1007 44 1007 44 1007 -41.5 c 128,-1,31
 1007 -127 1007 -127 973.5 -183 c 128,-1,32
 940 -239 940 -239 883 -278 c 0,33,34
 767 -356 767 -356 587 -356 c 0,35,36
 417 -356 417 -356 301 -282 c 0,37,38
 176 -201 176 -201 176 -63 c 0,39,40
 176 71 176 71 360 195 c 2,41,-1
 460 262 l 1,42,-1
 400 313 l 1,43,44
 236 448 236 448 180 598 c 0,45,46
 160 654 160 654 160 715 c 128,-1,47
 160 776 160 776 183.5 832 c 128,-1,48
 207 888 207 888 248 929 c 0,49,50
 336 1017 336 1017 461 1017 c 0,51,52
 473 1017 473 1017 481 1015.5 c 128,-1,53
 489 1014 489 1014 496 1013 c 1,54,55
 439 1062 439 1062 385 1103.5 c 128,-1,56
 331 1145 331 1145 289 1188 c 0,57,58
 197 1284 197 1284 197 1403 c 0,59,60
 197 1539 197 1539 313 1623 c 0,61,62
 428 1707 428 1707 609 1707 c 0,63,64
 771 1707 771 1707 879 1633 c 0,65,66
 988 1558 988 1558 988 1447 c 0,67,68
 988 1333 988 1333 823 1260 c 1,69,-1
 733 1288 l 1,0,1
488 518 m 0,70,71
 615 406 615 406 723 406 c 0,72,73
 788 406 788 406 830 450 c 0,74,75
 874 495 874 495 874 550 c 0,76,77
 874 657 874 657 727 798 c 1,78,79
 580 929 580 929 474 929 c 0,80,81
 414 929 414 929 370 886 c 0,82,83
 326 844 326 844 326 793.5 c 128,-1,84
 326 743 326 743 335.5 711 c 128,-1,85
 345 679 345 679 364 650 c 0,86,87
 396 598 396 598 488 518 c 0,70,71
376 28 m 0,88,89
 361 -8 361 -8 361 -49 c 128,-1,90
 361 -90 361 -90 374 -133.5 c 128,-1,91
 387 -177 387 -177 416 -209 c 0,92,93
 476 -277 476 -277 588.5 -277 c 128,-1,94
 701 -277 701 -277 762 -231.5 c 128,-1,95
 823 -186 823 -186 823 -101 c 0,96,97
 823 9 823 9 654 124 c 2,98,-1
 574 179 l 2,99,100
 562 187 562 187 552 195 c 2,101,-1
 530 211 l 1,102,103
 424 138 424 138 376 28 c 0,88,89
EndSplineSet
EndChar

StartChar: dieresis
Encoding: 168 168 125
Width: 1020
GlyphClass: 2
Flags: W
LayerCount: 2
Fore
SplineSet
564 1612 m 1,0,-1
 747 1791 l 1,1,-1
 926 1612 l 1,2,-1
 747 1432 l 1,3,-1
 564 1612 l 1,0,-1
94 1612 m 1,4,-1
 277 1791 l 1,5,-1
 456 1612 l 1,6,-1
 277 1432 l 1,7,-1
 94 1612 l 1,4,-1
EndSplineSet
EndChar

StartChar: copyright
Encoding: 169 169 126
Width: 1870
GlyphClass: 2
Flags: W
LayerCount: 2
Fore
SplineSet
74 675 m 0,0,1
 74 1018 74 1018 310 1258 c 0,2,3
 460 1411 460 1411 672 1470 c 0,4,5
 777 1500 777 1500 891.5 1500 c 128,-1,6
 1006 1500 1006 1500 1111 1470.5 c 128,-1,7
 1216 1441 1216 1441 1306.5 1387.5 c 128,-1,8
 1397 1334 1397 1334 1470.5 1258.5 c 128,-1,9
 1544 1183 1544 1183 1596 1092 c 0,10,11
 1705 900 1705 900 1705 675 c 0,12,13
 1705 451 1705 451 1596 260 c 0,14,15
 1490 75 1490 75 1306 -34 c 0,16,17
 1118 -145 1118 -145 892 -145 c 0,18,19
 548 -145 548 -145 310 94 c 0,20,21
 159 246 159 246 102 456 c 0,22,23
 74 561 74 561 74 675 c 0,0,1
183 675 m 0,24,25
 183 485 183 485 280 314 c 0,26,27
 374 148 374 148 534 48 c 0,28,29
 700 -55 700 -55 872 -55 c 128,-1,30
 1044 -55 1044 -55 1172.5 2 c 128,-1,31
 1301 59 1301 59 1395 158 c 0,32,33
 1594 366 1594 366 1594 675 c 0,34,35
 1594 976 1594 976 1401 1188 c 0,36,37
 1275 1326 1275 1326 1090 1380 c 0,38,39
 997 1407 997 1407 893 1407 c 128,-1,40
 789 1407 789 1407 696 1380 c 128,-1,41
 603 1353 603 1353 524.5 1304 c 128,-1,42
 446 1255 446 1255 382.5 1187 c 128,-1,43
 319 1119 319 1119 275 1038 c 0,44,45
 183 869 183 869 183 675 c 0,24,25
1138 834 m 1,46,47
 1140 850 1140 850 1140 882.5 c 128,-1,48
 1140 915 1140 915 1123.5 958.5 c 128,-1,49
 1107 1002 1107 1002 1078 1034 c 0,50,51
 1015 1102 1015 1102 924 1102 c 128,-1,52
 833 1102 833 1102 778.5 1061.5 c 128,-1,53
 724 1021 724 1021 690 957 c 0,54,55
 627 838 627 838 627 661 c 0,56,57
 627 393 627 393 786 289 c 0,58,59
 843 252 843 252 924.5 252 c 128,-1,60
 1006 252 1006 252 1076 295 c 128,-1,61
 1146 338 1146 338 1218 414 c 1,62,-1
 1268 359 l 1,63,64
 1178 219 1178 219 1007 175 c 0,65,66
 953 161 953 161 867 161 c 128,-1,67
 781 161 781 161 692 202.5 c 128,-1,68
 603 244 603 244 543 314 c 0,69,70
 422 454 422 454 422 663 c 0,71,72
 422 874 422 874 546 1024 c 0,73,74
 681 1186 681 1186 900 1186 c 0,75,76
 982 1186 982 1186 1036 1167 c 0,77,78
 1124 1136 1124 1136 1141 1136 c 128,-1,79
 1158 1136 1158 1136 1168 1139.5 c 128,-1,80
 1178 1143 1178 1143 1188 1150 c 0,81,82
 1213 1167 1213 1167 1224 1186 c 1,83,-1
 1281 1186 l 1,84,-1
 1194 834 l 1,85,-1
 1138 834 l 1,46,47
EndSplineSet
EndChar

StartChar: ordfeminine
Encoding: 170 170 127
Width: 1189
GlyphClass: 2
Flags: W
LayerCount: 2
Fore
SplineSet
450 1590 m 128,-1,1
 405 1561 405 1561 405 1520.5 c 128,-1,2
 405 1480 405 1480 440 1437 c 1,3,-1
 375 1390 l 1,4,5
 289 1411 289 1411 250 1474 c 0,6,7
 236 1497 236 1497 236 1532 c 128,-1,8
 236 1567 236 1567 262 1603 c 128,-1,9
 288 1639 288 1639 335 1664 c 0,10,11
 435 1719 435 1719 597.5 1719 c 128,-1,12
 760 1719 760 1719 836 1653 c 128,-1,13
 912 1587 912 1587 912 1471 c 2,14,-1
 912 1001 l 2,15,16
 912 932 912 932 928 918 c 0,17,18
 951 898 951 898 1027 892 c 1,19,-1
 1027 791 l 1,20,-1
 828 791 l 2,21,22
 790 791 790 791 752 788 c 2,23,-1
 677 782 l 1,24,25
 592 773 592 773 506.5 773 c 128,-1,26
 421 773 421 773 354 794.5 c 128,-1,27
 287 816 287 816 244 852 c 0,28,29
 162 922 162 922 162 1028 c 0,30,31
 162 1074 162 1074 192 1128.5 c 128,-1,32
 222 1183 222 1183 289 1231 c 0,33,34
 447 1344 447 1344 726 1353 c 1,35,-1
 726 1486 l 2,36,37
 726 1619 726 1619 565 1619 c 0,38,0
 495 1619 495 1619 450 1590 c 128,-1,1
726 1253 m 1,39,40
 367 1227 367 1227 367 1028 c 0,41,42
 367 967 367 967 423 922 c 0,43,44
 483 875 483 875 552.5 875 c 128,-1,45
 622 875 622 875 652.5 881.5 c 128,-1,46
 683 888 683 888 700 904 c 0,47,48
 726 930 726 930 726 1013 c 2,49,-1
 726 1253 l 1,39,40
629 580 m 1,50,-1
 807 401 l 1,51,-1
 629 220 l 1,52,-1
 447 401 l 1,53,-1
 629 580 l 1,50,-1
EndSplineSet
EndChar

StartChar: guillemotleft
Encoding: 171 171 128
Width: 1533
GlyphClass: 2
Flags: W
LayerCount: 2
Fore
SplineSet
1327 1209 m 1,0,-1
 1402 1156 l 1,1,-1
 1045 651 l 1,2,-1
 1402 148 l 1,3,-1
 1327 95 l 1,4,-1
 715 651 l 1,5,-1
 1327 1209 l 1,0,-1
762 1209 m 1,6,-1
 837 1156 l 1,7,-1
 480 651 l 1,8,-1
 837 148 l 1,9,-1
 762 95 l 1,10,-1
 150 651 l 1,11,-1
 762 1209 l 1,6,-1
EndSplineSet
EndChar

StartChar: logicalnot
Encoding: 172 172 129
Width: 1360
GlyphClass: 2
Flags: W
LayerCount: 2
Fore
SplineSet
183 1085 m 1,0,-1
 1216 1085 l 1,1,-1
 1216 473 l 1,2,-1
 1048 473 l 1,3,-1
 1048 917 l 1,4,-1
 143 917 l 1,5,-1
 183 1085 l 1,0,-1
EndSplineSet
EndChar

StartChar: uni00AD
Encoding: 173 173 130
Width: 1360
GlyphClass: 2
Flags: W
LayerCount: 2
Fore
SplineSet
292 919 m 1,0,-1
 1108 919 l 1,1,-1
 1065 753 l 1,2,-1
 251 753 l 1,3,-1
 292 919 l 1,0,-1
EndSplineSet
EndChar

StartChar: registered
Encoding: 174 174 131
Width: 1870
GlyphClass: 2
Flags: W
LayerCount: 2
Fore
SplineSet
74 675 m 0,0,1
 74 1018 74 1018 310 1258 c 0,2,3
 460 1411 460 1411 672 1470 c 0,4,5
 777 1500 777 1500 891.5 1500 c 128,-1,6
 1006 1500 1006 1500 1111 1470.5 c 128,-1,7
 1216 1441 1216 1441 1306.5 1387.5 c 128,-1,8
 1397 1334 1397 1334 1470.5 1258.5 c 128,-1,9
 1544 1183 1544 1183 1596 1092 c 0,10,11
 1705 900 1705 900 1705 675 c 0,12,13
 1705 451 1705 451 1596 260 c 0,14,15
 1490 75 1490 75 1306 -34 c 0,16,17
 1118 -145 1118 -145 892 -145 c 0,18,19
 548 -145 548 -145 310 94 c 0,20,21
 159 246 159 246 102 456 c 0,22,23
 74 561 74 561 74 675 c 0,0,1
183 675 m 0,24,25
 183 485 183 485 280 314 c 0,26,27
 374 148 374 148 534 48 c 0,28,29
 700 -55 700 -55 872 -55 c 128,-1,30
 1044 -55 1044 -55 1172.5 2 c 128,-1,31
 1301 59 1301 59 1395 158 c 0,32,33
 1594 366 1594 366 1594 675 c 0,34,35
 1594 976 1594 976 1401 1188 c 0,36,37
 1275 1326 1275 1326 1090 1380 c 0,38,39
 997 1407 997 1407 893 1407 c 128,-1,40
 789 1407 789 1407 696 1380 c 128,-1,41
 603 1353 603 1353 524.5 1304 c 128,-1,42
 446 1255 446 1255 382.5 1187 c 128,-1,43
 319 1119 319 1119 275 1038 c 0,44,45
 183 869 183 869 183 675 c 0,24,25
874 632 m 1,46,-1
 807 634 l 1,47,48
 797 636 797 636 783 636 c 1,49,-1
 783 370 l 2,50,51
 783 305 783 305 801 287 c 0,52,53
 828 261 828 261 901 253 c 1,54,-1
 901 204 l 1,55,-1
 485 204 l 1,56,-1
 485 249 l 1,57,-1
 487 250 l 1,58,59
 559 262 559 262 578 283 c 0,60,61
 609 316 609 316 609 387 c 2,62,-1
 609 996 l 2,63,64
 609 1059 609 1059 588 1077 c 0,65,66
 556 1105 556 1105 485 1115 c 1,67,-1
 485 1164 l 1,68,-1
 925 1164 l 2,69,70
 1167 1164 1167 1164 1245 1026 c 0,71,72
 1273 977 1273 977 1273 906 c 0,73,74
 1273 710 1273 710 1064 653 c 1,75,-1
 1363 187 l 1,76,-1
 1305 141 l 1,77,-1
 889 632 l 1,78,-1
 874 632 l 1,46,-1
783 1048 m 2,79,-1
 783 711 l 1,80,81
 946 711 946 711 996.5 735.5 c 128,-1,82
 1047 760 1047 760 1068.5 799 c 128,-1,83
 1090 838 1090 838 1090 895 c 128,-1,84
 1090 952 1090 952 1076 986 c 128,-1,85
 1062 1020 1062 1020 1036 1042 c 0,86,87
 985 1084 985 1084 884 1084 c 128,-1,88
 783 1084 783 1084 783 1048 c 2,79,-1
EndSplineSet
EndChar

StartChar: macron
Encoding: 175 175 132
Width: 1189
GlyphClass: 2
Flags: W
LayerCount: 2
Fore
SplineSet
260 1706 m 1,0,-1
 929 1735 l 1,1,-1
 929 1552 l 1,2,-1
 260 1575 l 1,3,-1
 260 1706 l 1,0,-1
EndSplineSet
EndChar

StartChar: degree
Encoding: 176 176 133
Width: 1025
GlyphClass: 2
Flags: W
LayerCount: 2
Fore
SplineSet
512 943 m 0,0,1
 434 943 434 943 365.5 972 c 128,-1,2
 297 1001 297 1001 246 1051 c 0,3,4
 138 1158 138 1158 138 1317 c 0,5,6
 138 1473 138 1473 246.5 1581.5 c 128,-1,7
 355 1690 355 1690 513 1690 c 0,8,9
 668 1690 668 1690 778 1582 c 0,10,11
 887 1474 887 1474 887 1317 c 0,12,13
 887 1158 887 1158 778 1051 c 0,14,15
 668 943 668 943 512 943 c 0,0,1
512 1061 m 0,16,17
 563 1061 563 1061 607 1082 c 128,-1,18
 651 1103 651 1103 684 1138 c 1,19,20
 754 1216 754 1216 754 1317 c 0,21,22
 754 1417 754 1417 684 1494 c 0,23,24
 613 1572 613 1572 513 1572 c 0,25,26
 412 1572 412 1572 342 1494 c 1,27,28
 272 1419 272 1419 272 1317 c 0,29,30
 272 1214 272 1214 342 1138 c 0,31,32
 412 1061 412 1061 512 1061 c 0,16,17
EndSplineSet
EndChar

StartChar: plusminus
Encoding: 177 177 134
Width: 1360
GlyphClass: 2
Flags: W
LayerCount: 2
Fore
SplineSet
616 927 m 1,0,-1
 99 927 l 1,1,-1
 139 1094 l 1,2,-1
 616 1094 l 1,3,-1
 616 1462 l 1,4,-1
 785 1462 l 1,5,-1
 785 1094 l 1,6,-1
 1261 1094 l 1,7,-1
 1220 927 l 1,8,-1
 785 927 l 1,9,-1
 785 611 l 1,10,-1
 616 611 l 1,11,-1
 616 927 l 1,0,-1
139 449 m 1,12,-1
 1261 449 l 1,13,-1
 1220 282 l 1,14,-1
 99 282 l 1,15,-1
 139 449 l 1,12,-1
EndSplineSet
EndChar

StartChar: twosuperior
Encoding: 178 178 135
Width: 1236
GlyphClass: 2
Flags: W
LayerCount: 2
Fore
SplineSet
564 1728 m 0,0,1
 331 1728 331 1728 200 1411 c 1,2,-1
 113 1411 l 1,3,-1
 258 1912 l 1,4,-1
 337 1912 l 1,5,6
 337 1874 337 1874 354.5 1853 c 128,-1,7
 372 1832 372 1832 389.5 1832 c 128,-1,8
 407 1832 407 1832 422 1835 c 2,9,-1
 454 1842 l 1,10,11
 559 1866 559 1866 630.5 1866 c 128,-1,12
 702 1866 702 1866 771 1844 c 128,-1,13
 840 1822 840 1822 894 1781 c 0,14,15
 1011 1691 1011 1691 1011 1550 c 0,16,17
 1011 1418 1011 1418 893 1291 c 0,18,19
 789 1179 789 1179 474 952 c 1,20,-1
 798 952 l 2,21,22
 916 952 916 952 977 1000 c 0,23,24
 1037 1048 1037 1048 1079 1163 c 1,25,-1
 1167 1163 l 1,26,-1
 1060 702 l 1,27,-1
 973 702 l 1,28,29
 966 739 966 739 944 759.5 c 128,-1,30
 922 780 922 780 891 780 c 2,31,-1
 152 780 l 1,32,-1
 141 832 l 1,33,-1
 296 943 l 1,34,35
 798 1307 798 1307 798 1510 c 0,36,37
 798 1651 798 1651 675 1708 c 0,38,39
 630 1728 630 1728 564 1728 c 0,0,1
EndSplineSet
EndChar

StartChar: threesuperior
Encoding: 179 179 136
Width: 1185
GlyphClass: 2
Flags: W
LayerCount: 2
Fore
SplineSet
1020 1798 m 2,0,1
 1020 1563 1020 1563 792 1368 c 1,2,3
 883 1357 883 1357 976 1280 c 0,4,5
 1086 1190 1086 1190 1086 1050 c 0,6,7
 1086 847 1086 847 930 733 c 0,8,9
 794 634 794 634 588 634 c 0,10,11
 407 634 407 634 250 714 c 0,12,13
 203 737 203 737 170 764 c 1,14,-1
 209 854 l 1,15,16
 301 781 301 781 456 755 c 0,17,18
 505 747 505 747 561.5 747 c 128,-1,19
 618 747 618 747 679 763 c 128,-1,20
 740 779 740 779 786 812 c 1,21,22
 889 883 889 883 889 1003 c 0,23,24
 889 1088 889 1088 807 1158 c 0,25,26
 714 1237 714 1237 577 1233 c 1,27,28
 551 1219 551 1219 525 1208 c 2,29,-1
 475 1187 l 1,30,-1
 436 1274 l 1,31,32
 600 1337 600 1337 708 1449 c 0,33,34
 807 1551 807 1551 832 1666 c 1,35,-1
 451 1666 l 2,36,37
 369 1666 369 1666 320 1608 c 1,38,39
 285 1565 285 1565 240 1457 c 1,40,-1
 150 1457 l 1,41,-1
 283 1921 l 1,42,-1
 368 1921 l 1,43,44
 367 1916 367 1916 367 1912 c 2,45,-1
 367 1903 l 2,46,47
 367 1841 367 1841 431 1841 c 2,48,-1
 1020 1841 l 1,49,-1
 1020 1798 l 2,0,1
EndSplineSet
EndChar

StartChar: acute
Encoding: 180 180 137
Width: 850
GlyphClass: 2
Flags: W
LayerCount: 2
Fore
SplineSet
328 1414 m 1,0,-1
 581 1880 l 1,1,-1
 791 1746 l 1,2,-1
 426 1359 l 1,3,-1
 328 1414 l 1,0,-1
EndSplineSet
EndChar

StartChar: mu
Encoding: 181 181 138
AltUni2: 0003bc.ffffffff.0
Width: 1700
GlyphClass: 2
Flags: W
LayerCount: 2
Fore
SplineSet
326 909 m 2,0,1
 326 1042 326 1042 304.5 1072 c 128,-1,2
 283 1102 283 1102 255.5 1110.5 c 128,-1,3
 228 1119 228 1119 184 1123 c 1,4,-1
 184 1209 l 1,5,-1
 688 1209 l 1,6,-1
 688 1123 l 1,7,-1
 661 1119 l 2,8,9
 584 1108 584 1108 566 1092 c 0,10,11
 534 1063 534 1063 530 980 c 1,12,-1
 530 535 l 1,13,14
 546 286 546 286 733 130 c 0,15,16
 787 85 787 85 845 50 c 1,17,18
 1161 239 1161 239 1161 578 c 2,19,-1
 1161 916 l 2,20,21
 1161 1047 1161 1047 1142 1073.5 c 128,-1,22
 1123 1100 1123 1100 1097 1107 c 128,-1,23
 1071 1114 1071 1114 1028 1120 c 1,24,-1
 1002 1123 l 1,25,-1
 1002 1209 l 1,26,-1
 1506 1209 l 1,27,-1
 1506 1124 l 1,28,-1
 1504 1123 l 1,29,30
 1415 1115 1415 1115 1394.5 1086 c 128,-1,31
 1374 1057 1374 1057 1368.5 1016.5 c 128,-1,32
 1363 976 1363 976 1363 909 c 2,33,-1
 1363 236 l 2,34,35
 1363 145 1363 145 1386.5 124 c 128,-1,36
 1410 103 1410 103 1444 96.5 c 128,-1,37
 1478 90 1478 90 1535 86 c 1,38,-1
 1535 0 l 1,39,-1
 1161 0 l 1,40,-1
 1161 209 l 1,41,42
 1064 20 1064 20 845 -90 c 1,43,44
 637 10 637 10 530 185 c 1,45,-1
 530 -329 l 2,46,47
 530 -427 530 -427 570 -454 c 1,48,49
 599 -472 599 -472 725 -483 c 1,50,-1
 725 -566 l 1,51,-1
 164 -566 l 1,52,-1
 164 -483 l 1,53,54
 267 -474 267 -474 289 -457 c 0,55,56
 326 -427 326 -427 326 -329 c 2,57,-1
 326 909 l 2,0,1
EndSplineSet
EndChar

StartChar: paragraph
Encoding: 182 182 139
Width: 1703
GlyphClass: 2
Flags: W
LayerCount: 2
Fore
SplineSet
846 350 m 1,0,1
 833 349 833 349 821 349 c 128,-1,2
 809 349 809 349 797 349 c 0,3,4
 454 349 454 349 260 550 c 1,5,6
 82 736 82 736 82 1018 c 0,7,8
 82 1317 82 1317 270 1504 c 0,9,10
 477 1710 477 1710 859 1710 c 0,11,12
 950 1710 950 1710 1063 1698 c 0,13,14
 1245 1680 1245 1680 1291 1680 c 2,15,-1
 1526 1680 l 1,16,-1
 1526 1597 l 1,17,18
 1413 1587 1413 1587 1388 1563 c 128,-1,19
 1363 1539 1363 1539 1358 1509.5 c 128,-1,20
 1353 1480 1353 1480 1352 1433 c 2,21,-1
 1300 -565 l 1,22,-1
 1183 -565 l 1,23,-1
 1148 1579 l 1,24,-1
 1022 1579 l 1,25,-1
 987 -565 l 1,26,-1
 871 -565 l 1,27,-1
 846 350 l 1,0,1
814 1578 m 1,28,29
 417 1551 417 1551 417 1002 c 0,30,31
 417 751 417 751 526 610 c 0,32,33
 636 467 636 467 843 465 c 1,34,-1
 814 1578 l 1,28,29
EndSplineSet
EndChar

StartChar: periodcentered
Encoding: 183 183 140
Width: 512
GlyphClass: 2
Flags: W
LayerCount: 2
Fore
SplineSet
75 690 m 1,0,-1
 257 869 l 1,1,-1
 435 690 l 1,2,-1
 257 509 l 1,3,-1
 75 690 l 1,0,-1
EndSplineSet
EndChar

StartChar: cedilla
Encoding: 184 184 141
Width: 934
GlyphClass: 2
Flags: W
LayerCount: 2
Fore
SplineSet
478 -351 m 0,0,1
 478 -220 478 -220 268 -220 c 1,2,-1
 355 2 l 1,3,-1
 474 2 l 1,4,-1
 425 -127 l 1,5,6
 530 -125 530 -125 605 -175 c 0,7,8
 685 -228 685 -228 685 -318 c 0,9,10
 685 -392 685 -392 623 -458 c 0,11,12
 546 -539 546 -539 408 -575 c 0,13,14
 370 -585 370 -585 339 -587 c 1,15,-1
 282 -504 l 1,16,17
 373 -482 373 -482 425.5 -442 c 128,-1,18
 478 -402 478 -402 478 -351 c 0,0,1
EndSplineSet
EndChar

StartChar: onesuperior
Encoding: 185 185 142
Width: 984
GlyphClass: 2
Flags: W
LayerCount: 2
Fore
SplineSet
138 856 m 1,0,1
 279 863 279 863 318 879.5 c 128,-1,2
 357 896 357 896 373.5 920 c 128,-1,3
 390 944 390 944 390 985 c 2,4,-1
 390 1620 l 2,5,6
 390 1672 390 1672 381.5 1704.5 c 128,-1,7
 373 1737 373 1737 346 1756 c 0,8,9
 300 1787 300 1787 138 1787 c 1,10,-1
 138 1871 l 1,11,-1
 590 1871 l 1,12,-1
 590 985 l 2,13,14
 590 910 590 910 656 883 c 0,15,16
 703 864 703 864 845 857 c 1,17,-1
 845 776 l 1,18,-1
 138 776 l 1,19,-1
 138 856 l 1,0,1
EndSplineSet
EndChar

StartChar: ordmasculine
Encoding: 186 186 143
Width: 1189
GlyphClass: 2
Flags: W
LayerCount: 2
Fore
SplineSet
594 772 m 0,0,1
 483 772 483 772 400 813 c 128,-1,2
 317 854 317 854 262 921 c 0,3,4
 151 1054 151 1054 151 1245 c 0,5,6
 151 1437 151 1437 262 1570 c 0,7,8
 386 1719 386 1719 594 1719 c 0,9,10
 803 1719 803 1719 926 1570 c 1,11,12
 1038 1437 1038 1437 1038 1245 c 0,13,14
 1038 1052 1038 1052 926 918 c 0,15,16
 804 772 804 772 594 772 c 0,0,1
475 908 m 0,17,18
 522 874 522 874 595.5 874 c 128,-1,19
 669 874 669 874 715.5 908 c 128,-1,20
 762 942 762 942 789 995 c 0,21,22
 837 1089 837 1089 837 1245 c 0,23,24
 837 1498 837 1498 716 1586 c 0,25,26
 669 1619 669 1619 595.5 1619 c 128,-1,27
 522 1619 522 1619 475 1584.5 c 128,-1,28
 428 1550 428 1550 401 1496 c 0,29,30
 354 1402 354 1402 354 1245 c 0,31,32
 354 996 354 996 475 908 c 0,17,18
592 580 m 1,33,-1
 770 401 l 1,34,-1
 592 220 l 1,35,-1
 410 401 l 1,36,-1
 592 580 l 1,33,-1
EndSplineSet
EndChar

StartChar: guillemotright
Encoding: 187 187 144
Width: 1533
GlyphClass: 2
Flags: W
LayerCount: 2
Fore
SplineSet
1082 651 m 1,0,-1
 724 1156 l 1,1,-1
 799 1209 l 1,2,-1
 1411 651 l 1,3,-1
 799 95 l 1,4,-1
 724 148 l 1,5,-1
 1082 651 l 1,0,-1
517 651 m 1,6,-1
 159 1156 l 1,7,-1
 234 1209 l 1,8,-1
 846 651 l 1,9,-1
 234 95 l 1,10,-1
 159 148 l 1,11,-1
 517 651 l 1,6,-1
EndSplineSet
EndChar

StartChar: onequarter
Encoding: 188 188 145
Width: 2694
GlyphClass: 2
Flags: W
LayerCount: 2
Fore
SplineSet
1486 1972 m 1,0,-1
 1637 1972 l 1,1,-1
 874 -352 l 1,2,-1
 720 -352 l 1,3,-1
 1486 1972 l 1,0,-1
2190 1449 m 1,4,-1
 2152 347 l 1,5,-1
 2174 347 l 2,6,7
 2285 347 2285 347 2344 397 c 0,8,9
 2399 444 2399 444 2442 559 c 1,10,-1
 2531 559 l 1,11,-1
 2432 125 l 1,12,-1
 2345 125 l 1,13,14
 2339 160 2339 160 2318.5 181.5 c 128,-1,15
 2298 203 2298 203 2269 203 c 2,16,-1
 2147 203 l 1,17,-1
 2134 -192 l 1,18,-1
 2018 -192 l 1,19,-1
 2005 203 l 1,20,-1
 1372 203 l 1,21,-1
 1346 277 l 1,22,-1
 2190 1449 l 1,4,-1
2000 347 m 1,23,-1
 1982 901 l 1,24,-1
 1563 347 l 1,25,-1
 2000 347 l 1,23,-1
161 857 m 1,26,27
 302 864 302 864 341 880.5 c 128,-1,28
 380 897 380 897 396.5 921 c 128,-1,29
 413 945 413 945 413 986 c 2,30,-1
 413 1621 l 2,31,32
 413 1673 413 1673 404.5 1705.5 c 128,-1,33
 396 1738 396 1738 369 1756 c 0,34,35
 323 1788 323 1788 161 1788 c 1,36,-1
 161 1872 l 1,37,-1
 613 1872 l 1,38,-1
 613 986 l 2,39,40
 613 911 613 911 679 884 c 0,41,42
 726 865 726 865 868 858 c 1,43,-1
 868 777 l 1,44,-1
 161 777 l 1,45,-1
 161 857 l 1,26,27
EndSplineSet
EndChar

StartChar: onehalf
Encoding: 189 189 146
Width: 2649
GlyphClass: 2
Flags: W
LayerCount: 2
Fore
SplineSet
1447 1970 m 1,0,-1
 1598 1970 l 1,1,-1
 835 -354 l 1,2,-1
 681 -354 l 1,3,-1
 1447 1970 l 1,0,-1
160 857 m 1,4,5
 301 864 301 864 340 880.5 c 128,-1,6
 379 897 379 897 395.5 921 c 128,-1,7
 412 945 412 945 412 986 c 2,8,-1
 412 1621 l 2,9,10
 412 1673 412 1673 403.5 1705.5 c 128,-1,11
 395 1738 395 1738 368 1756 c 0,12,13
 322 1788 322 1788 160 1788 c 1,14,-1
 160 1872 l 1,15,-1
 612 1872 l 1,16,-1
 612 986 l 2,17,18
 612 911 612 911 678 884 c 0,19,20
 725 865 725 865 867 858 c 1,21,-1
 867 777 l 1,22,-1
 160 777 l 1,23,-1
 160 857 l 1,4,5
1884 950 m 0,24,25
 1651 950 1651 950 1520 633 c 1,26,-1
 1433 633 l 1,27,-1
 1578 1134 l 1,28,-1
 1657 1134 l 1,29,30
 1657 1096 1657 1096 1674.5 1075 c 128,-1,31
 1692 1054 1692 1054 1709.5 1054 c 128,-1,32
 1727 1054 1727 1054 1742 1057 c 2,33,-1
 1774 1064 l 1,34,35
 1879 1088 1879 1088 1950.5 1088 c 128,-1,36
 2022 1088 2022 1088 2091 1066 c 128,-1,37
 2160 1044 2160 1044 2214 1003 c 0,38,39
 2331 913 2331 913 2331 772 c 0,40,41
 2331 640 2331 640 2213 513 c 0,42,43
 2109 401 2109 401 1794 174 c 1,44,-1
 2118 174 l 2,45,46
 2236 174 2236 174 2297 222 c 0,47,48
 2357 270 2357 270 2399 385 c 1,49,-1
 2487 385 l 1,50,-1
 2380 -76 l 1,51,-1
 2293 -76 l 1,52,53
 2286 -39 2286 -39 2264 -18.5 c 128,-1,54
 2242 2 2242 2 2211 2 c 2,55,-1
 1472 2 l 1,56,-1
 1461 54 l 1,57,-1
 1616 165 l 1,58,59
 2118 529 2118 529 2118 732 c 0,60,61
 2118 873 2118 873 1995 930 c 0,62,63
 1950 950 1950 950 1884 950 c 0,24,25
EndSplineSet
EndChar

StartChar: threequarters
Encoding: 190 190 147
Width: 2865
GlyphClass: 2
Flags: W
LayerCount: 2
Fore
SplineSet
1653 1970 m 1,0,-1
 1805 1970 l 1,1,-1
 1041 -354 l 1,2,-1
 888 -354 l 1,3,-1
 1653 1970 l 1,0,-1
2362 1449 m 1,4,-1
 2323 347 l 1,5,-1
 2344 347 l 2,6,7
 2455 347 2455 347 2515 397 c 0,8,9
 2571 444 2571 444 2614 559 c 1,10,-1
 2702 559 l 1,11,-1
 2603 125 l 1,12,-1
 2516 125 l 1,13,14
 2510 160 2510 160 2489.5 181.5 c 128,-1,15
 2469 203 2469 203 2441 203 c 2,16,-1
 2318 203 l 1,17,-1
 2304 -192 l 1,18,-1
 2189 -192 l 1,19,-1
 2176 203 l 1,20,-1
 1543 203 l 1,21,-1
 1517 277 l 1,22,-1
 2362 1449 l 1,4,-1
2171 347 m 1,23,-1
 2153 901 l 1,24,-1
 1733 347 l 1,25,-1
 2171 347 l 1,23,-1
1030 1799 m 2,26,27
 1030 1564 1030 1564 802 1369 c 1,28,29
 893 1358 893 1358 986 1281 c 0,30,31
 1096 1191 1096 1191 1096 1051 c 0,32,33
 1096 848 1096 848 940 734 c 0,34,35
 804 635 804 635 598 635 c 0,36,37
 417 635 417 635 260 714 c 0,38,39
 213 738 213 738 180 765 c 1,40,-1
 219 855 l 1,41,42
 311 782 311 782 466 756 c 0,43,44
 515 748 515 748 571.5 748 c 128,-1,45
 628 748 628 748 689 764 c 128,-1,46
 750 780 750 780 796 812 c 0,47,48
 899 884 899 884 899 1004 c 0,49,50
 899 1089 899 1089 817 1159 c 0,51,52
 724 1238 724 1238 587 1234 c 1,53,54
 561 1220 561 1220 535 1209 c 2,55,-1
 485 1188 l 1,56,-1
 446 1275 l 1,57,58
 610 1338 610 1338 718 1450 c 0,59,60
 817 1552 817 1552 842 1667 c 1,61,-1
 461 1667 l 2,62,63
 379 1667 379 1667 330 1608 c 0,64,65
 295 1566 295 1566 250 1458 c 1,66,-1
 160 1458 l 1,67,-1
 293 1922 l 1,68,-1
 378 1922 l 1,69,70
 377 1917 377 1917 377 1912 c 2,71,-1
 377 1904 l 2,72,73
 377 1842 377 1842 441 1842 c 2,74,-1
 1030 1842 l 1,75,-1
 1030 1799 l 2,26,27
EndSplineSet
EndChar

StartChar: questiondown
Encoding: 191 191 148
Width: 1195
GlyphClass: 2
Flags: W
LayerCount: 2
Fore
SplineSet
803 24 m 1,0,-1
 607 13 l 1,1,2
 395 13 395 13 259 123 c 1,3,4
 114 242 114 242 114 454 c 0,5,6
 114 649 114 649 229 794 c 0,7,8
 346 942 346 942 535 982 c 1,9,-1
 558 1272 l 1,10,-1
 654 1272 l 1,11,-1
 694 885 l 1,12,-1
 631 885 l 1,13,14
 353 843 353 843 353 473 c 0,15,16
 353 319 353 319 427 222 c 0,17,18
 503 121 503 121 630 121 c 0,19,20
 775 121 775 121 853 185 c 0,21,22
 936 254 936 254 1000 445 c 1,23,-1
 1113 445 l 1,24,-1
 992 -56 l 1,25,-1
 877 -56 l 1,26,27
 875 -19 875 -19 852.5 2.5 c 128,-1,28
 830 24 830 24 803 24 c 1,0,-1
606 1398 m 1,29,-1
 428 1577 l 1,30,-1
 606 1758 l 1,31,-1
 788 1577 l 1,32,-1
 606 1398 l 1,29,-1
EndSplineSet
EndChar

StartChar: Agrave
Encoding: 192 192 149
Width: 1534
GlyphClass: 2
Flags: W
LayerCount: 2
Fore
SplineSet
46 83 m 1,0,1
 160 103 160 103 175.5 117.5 c 128,-1,2
 191 132 191 132 192 152.5 c 128,-1,3
 193 173 193 173 193 210 c 2,4,-1
 192 313 l 1,5,-1
 192 367 l 2,6,7
 192 896 192 896 326 1154 c 1,8,9
 411 1320 411 1320 581 1456 c 0,10,11
 663 1521 663 1521 765 1589 c 1,12,-1
 766 1589 l 1,13,14
 989 1440 989 1440 1094 1314 c 0,15,16
 1221 1163 1221 1163 1276 950 c 0,17,18
 1332 732 1332 732 1332 369 c 2,19,-1
 1332 313 l 1,20,-1
 1331 212 l 2,21,22
 1331 174 1331 174 1334 153 c 128,-1,23
 1337 132 1337 132 1352 120 c 1,24,25
 1371 103 1371 103 1488 83 c 1,26,-1
 1488 0 l 1,27,-1
 939 0 l 1,28,-1
 939 83 l 1,29,30
 1070 98 1070 98 1096 126 c 0,31,32
 1117 149 1117 149 1119.5 195 c 128,-1,33
 1122 241 1122 241 1122 284 c 2,34,-1
 1122 526 l 1,35,-1
 403 526 l 1,36,-1
 403 284 l 2,37,38
 403 219 403 219 406.5 182.5 c 128,-1,39
 410 146 410 146 428 126.5 c 128,-1,40
 446 107 446 107 483 99 c 128,-1,41
 520 91 520 91 587 83 c 1,42,-1
 587 0 l 1,43,-1
 46 0 l 1,44,-1
 46 83 l 1,0,1
1120 638 m 1,45,46
 1118 896 1118 896 1048 1064 c 0,47,48
 974 1241 974 1241 765 1448 c 1,49,50
 624 1307 624 1307 567.5 1216.5 c 128,-1,51
 511 1126 511 1126 485 1064 c 128,-1,52
 459 1002 459 1002 442 935 c 1,53,54
 414 817 414 817 405 638 c 1,55,-1
 1120 638 l 1,45,46
482 1752 m 1,56,-1
 596 1970 l 1,57,-1
 1048 1692 l 1,58,-1
 1016 1602 l 1,59,-1
 482 1752 l 1,56,-1
EndSplineSet
EndChar

StartChar: Aacute
Encoding: 193 193 150
Width: 1534
GlyphClass: 2
Flags: W
LayerCount: 2
Fore
SplineSet
46 83 m 1,0,1
 160 103 160 103 175.5 117.5 c 128,-1,2
 191 132 191 132 192 152.5 c 128,-1,3
 193 173 193 173 193 210 c 2,4,-1
 192 313 l 1,5,-1
 192 367 l 2,6,7
 192 896 192 896 326 1154 c 1,8,9
 411 1320 411 1320 581 1456 c 0,10,11
 663 1521 663 1521 765 1589 c 1,12,-1
 766 1589 l 1,13,14
 989 1440 989 1440 1094 1314 c 0,15,16
 1221 1163 1221 1163 1276 950 c 0,17,18
 1332 732 1332 732 1332 369 c 2,19,-1
 1332 313 l 1,20,-1
 1331 212 l 2,21,22
 1331 174 1331 174 1334 153 c 128,-1,23
 1337 132 1337 132 1352 120 c 1,24,25
 1371 103 1371 103 1488 83 c 1,26,-1
 1488 0 l 1,27,-1
 939 0 l 1,28,-1
 939 83 l 1,29,30
 1070 98 1070 98 1096 126 c 0,31,32
 1117 149 1117 149 1119.5 195 c 128,-1,33
 1122 241 1122 241 1122 284 c 2,34,-1
 1122 526 l 1,35,-1
 403 526 l 1,36,-1
 403 284 l 2,37,38
 403 219 403 219 406.5 182.5 c 128,-1,39
 410 146 410 146 428 126.5 c 128,-1,40
 446 107 446 107 483 99 c 128,-1,41
 520 91 520 91 587 83 c 1,42,-1
 587 0 l 1,43,-1
 46 0 l 1,44,-1
 46 83 l 1,0,1
1120 638 m 1,45,46
 1118 896 1118 896 1048 1064 c 0,47,48
 974 1241 974 1241 765 1448 c 1,49,50
 624 1307 624 1307 567.5 1216.5 c 128,-1,51
 511 1126 511 1126 485 1064 c 128,-1,52
 459 1002 459 1002 442 935 c 1,53,54
 414 817 414 817 405 638 c 1,55,-1
 1120 638 l 1,45,46
482 1692 m 1,56,-1
 934 1970 l 1,57,-1
 1048 1752 l 1,58,-1
 514 1602 l 1,59,-1
 482 1692 l 1,56,-1
EndSplineSet
EndChar

StartChar: Acircumflex
Encoding: 194 194 151
Width: 1534
GlyphClass: 2
Flags: W
LayerCount: 2
Fore
SplineSet
46 83 m 1,0,1
 160 103 160 103 175.5 117.5 c 128,-1,2
 191 132 191 132 192 152.5 c 128,-1,3
 193 173 193 173 193 210 c 2,4,-1
 192 313 l 1,5,-1
 192 367 l 2,6,7
 192 896 192 896 326 1154 c 1,8,9
 411 1320 411 1320 581 1456 c 0,10,11
 663 1521 663 1521 765 1589 c 1,12,-1
 766 1589 l 1,13,14
 989 1440 989 1440 1094 1314 c 0,15,16
 1221 1163 1221 1163 1276 950 c 0,17,18
 1332 732 1332 732 1332 369 c 2,19,-1
 1332 313 l 1,20,-1
 1331 212 l 2,21,22
 1331 174 1331 174 1334 153 c 128,-1,23
 1337 132 1337 132 1352 120 c 1,24,25
 1371 103 1371 103 1488 83 c 1,26,-1
 1488 0 l 1,27,-1
 939 0 l 1,28,-1
 939 83 l 1,29,30
 1070 98 1070 98 1096 126 c 0,31,32
 1117 149 1117 149 1119.5 195 c 128,-1,33
 1122 241 1122 241 1122 284 c 2,34,-1
 1122 526 l 1,35,-1
 403 526 l 1,36,-1
 403 284 l 2,37,38
 403 219 403 219 406.5 182.5 c 128,-1,39
 410 146 410 146 428 126.5 c 128,-1,40
 446 107 446 107 483 99 c 128,-1,41
 520 91 520 91 587 83 c 1,42,-1
 587 0 l 1,43,-1
 46 0 l 1,44,-1
 46 83 l 1,0,1
1120 638 m 1,45,46
 1118 896 1118 896 1048 1064 c 0,47,48
 974 1241 974 1241 765 1448 c 1,49,50
 624 1307 624 1307 567.5 1216.5 c 128,-1,51
 511 1126 511 1126 485 1064 c 128,-1,52
 459 1002 459 1002 442 935 c 1,53,54
 414 817 414 817 405 638 c 1,55,-1
 1120 638 l 1,45,46
430 1690 m 1,56,-1
 672 1971 l 1,57,-1
 858 1971 l 1,58,-1
 1100 1690 l 1,59,-1
 1036 1626 l 1,60,-1
 765 1798 l 1,61,-1
 494 1626 l 1,62,-1
 430 1690 l 1,56,-1
EndSplineSet
EndChar

StartChar: Atilde
Encoding: 195 195 152
Width: 1534
GlyphClass: 2
Flags: W
LayerCount: 2
Fore
SplineSet
46 83 m 1,0,1
 160 103 160 103 175.5 117.5 c 128,-1,2
 191 132 191 132 192 152.5 c 128,-1,3
 193 173 193 173 193 210 c 2,4,-1
 192 313 l 1,5,-1
 192 367 l 2,6,7
 192 896 192 896 326 1154 c 1,8,9
 411 1320 411 1320 581 1456 c 0,10,11
 663 1521 663 1521 765 1589 c 1,12,-1
 766 1589 l 1,13,14
 989 1440 989 1440 1094 1314 c 0,15,16
 1221 1163 1221 1163 1276 950 c 0,17,18
 1332 732 1332 732 1332 369 c 2,19,-1
 1332 313 l 1,20,-1
 1331 212 l 2,21,22
 1331 174 1331 174 1334 153 c 128,-1,23
 1337 132 1337 132 1352 120 c 1,24,25
 1371 103 1371 103 1488 83 c 1,26,-1
 1488 0 l 1,27,-1
 939 0 l 1,28,-1
 939 83 l 1,29,30
 1070 98 1070 98 1096 126 c 0,31,32
 1117 149 1117 149 1119.5 195 c 128,-1,33
 1122 241 1122 241 1122 284 c 2,34,-1
 1122 526 l 1,35,-1
 403 526 l 1,36,-1
 403 284 l 2,37,38
 403 219 403 219 406.5 182.5 c 128,-1,39
 410 146 410 146 428 126.5 c 128,-1,40
 446 107 446 107 483 99 c 128,-1,41
 520 91 520 91 587 83 c 1,42,-1
 587 0 l 1,43,-1
 46 0 l 1,44,-1
 46 83 l 1,0,1
1120 638 m 1,45,46
 1118 896 1118 896 1048 1064 c 0,47,48
 974 1241 974 1241 765 1448 c 1,49,50
 624 1307 624 1307 567.5 1216.5 c 128,-1,51
 511 1126 511 1126 485 1064 c 128,-1,52
 459 1002 459 1002 442 935 c 1,53,54
 414 817 414 817 405 638 c 1,55,-1
 1120 638 l 1,45,46
601 1804 m 0,56,57
 522 1804 522 1804 506 1716 c 1,58,-1
 413 1716 l 1,59,60
 419 1831 419 1831 493 1903 c 0,61,62
 563 1971 563 1971 653 1971 c 0,63,64
 713 1971 713 1971 811 1915 c 0,65,66
 890 1869 890 1869 929 1869 c 0,67,68
 1008 1869 1008 1869 1024 1957 c 1,69,-1
 1117 1957 l 1,70,71
 1111 1844 1111 1844 1037 1770 c 1,72,73
 967 1702 967 1702 877 1702 c 0,74,75
 820 1702 820 1702 724 1757 c 1,76,-1
 661 1789 l 2,77,78
 630 1804 630 1804 601 1804 c 0,56,57
EndSplineSet
EndChar

StartChar: Adieresis
Encoding: 196 196 153
Width: 1534
GlyphClass: 2
Flags: W
LayerCount: 2
Fore
SplineSet
46 83 m 1,0,1
 160 103 160 103 175.5 117.5 c 128,-1,2
 191 132 191 132 192 152.5 c 128,-1,3
 193 173 193 173 193 210 c 2,4,-1
 192 313 l 1,5,-1
 192 367 l 2,6,7
 192 896 192 896 326 1154 c 1,8,9
 411 1320 411 1320 581 1456 c 0,10,11
 663 1521 663 1521 765 1589 c 1,12,-1
 766 1589 l 1,13,14
 989 1440 989 1440 1094 1314 c 0,15,16
 1221 1163 1221 1163 1276 950 c 0,17,18
 1332 732 1332 732 1332 369 c 2,19,-1
 1332 313 l 1,20,-1
 1331 212 l 2,21,22
 1331 174 1331 174 1334 153 c 128,-1,23
 1337 132 1337 132 1352 120 c 1,24,25
 1371 103 1371 103 1488 83 c 1,26,-1
 1488 0 l 1,27,-1
 939 0 l 1,28,-1
 939 83 l 1,29,30
 1070 98 1070 98 1096 126 c 0,31,32
 1117 149 1117 149 1119.5 195 c 128,-1,33
 1122 241 1122 241 1122 284 c 2,34,-1
 1122 526 l 1,35,-1
 403 526 l 1,36,-1
 403 284 l 2,37,38
 403 219 403 219 406.5 182.5 c 128,-1,39
 410 146 410 146 428 126.5 c 128,-1,40
 446 107 446 107 483 99 c 128,-1,41
 520 91 520 91 587 83 c 1,42,-1
 587 0 l 1,43,-1
 46 0 l 1,44,-1
 46 83 l 1,0,1
1120 638 m 1,45,46
 1118 896 1118 896 1048 1064 c 0,47,48
 974 1241 974 1241 765 1448 c 1,49,50
 624 1307 624 1307 567.5 1216.5 c 128,-1,51
 511 1126 511 1126 485 1064 c 128,-1,52
 459 1002 459 1002 442 935 c 1,53,54
 414 817 414 817 405 638 c 1,55,-1
 1120 638 l 1,45,46
819 1793 m 1,56,-1
 1002 1972 l 1,57,-1
 1181 1793 l 1,58,-1
 1002 1612 l 1,59,-1
 819 1793 l 1,56,-1
349 1793 m 1,60,-1
 532 1972 l 1,61,-1
 711 1793 l 1,62,-1
 532 1612 l 1,63,-1
 349 1793 l 1,60,-1
EndSplineSet
EndChar

StartChar: Aring
Encoding: 197 197 154
Width: 1534
GlyphClass: 2
Flags: W
LayerCount: 2
Fore
SplineSet
46 83 m 1,0,1
 160 103 160 103 175.5 117.5 c 128,-1,2
 191 132 191 132 192 152.5 c 128,-1,3
 193 173 193 173 193 210 c 2,4,-1
 192 313 l 1,5,-1
 192 367 l 2,6,7
 192 896 192 896 326 1154 c 1,8,9
 411 1320 411 1320 581 1456 c 0,10,11
 663 1521 663 1521 765 1589 c 1,12,-1
 766 1589 l 1,13,14
 989 1440 989 1440 1094 1314 c 0,15,16
 1221 1163 1221 1163 1276 950 c 0,17,18
 1332 732 1332 732 1332 369 c 2,19,-1
 1332 313 l 1,20,-1
 1331 212 l 2,21,22
 1331 174 1331 174 1334 153 c 128,-1,23
 1337 132 1337 132 1352 120 c 1,24,25
 1371 103 1371 103 1488 83 c 1,26,-1
 1488 0 l 1,27,-1
 939 0 l 1,28,-1
 939 83 l 1,29,30
 1070 98 1070 98 1096 126 c 0,31,32
 1117 149 1117 149 1119.5 195 c 128,-1,33
 1122 241 1122 241 1122 284 c 2,34,-1
 1122 526 l 1,35,-1
 403 526 l 1,36,-1
 403 284 l 2,37,38
 403 219 403 219 406.5 182.5 c 128,-1,39
 410 146 410 146 428 126.5 c 128,-1,40
 446 107 446 107 483 99 c 128,-1,41
 520 91 520 91 587 83 c 1,42,-1
 587 0 l 1,43,-1
 46 0 l 1,44,-1
 46 83 l 1,0,1
1120 638 m 1,45,46
 1118 896 1118 896 1048 1064 c 0,47,48
 974 1241 974 1241 765 1448 c 1,49,50
 624 1307 624 1307 567.5 1216.5 c 128,-1,51
 511 1126 511 1126 485 1064 c 128,-1,52
 459 1002 459 1002 442 935 c 1,53,54
 414 817 414 817 405 638 c 1,55,-1
 1120 638 l 1,45,46
766 1480 m 0,56,57
 652 1480 652 1480 573 1548 c 0,58,59
 492 1617 492 1617 492 1724 c 0,60,61
 492 1830 492 1830 573 1901 c 0,62,63
 652 1971 652 1971 766 1971 c 0,64,65
 879 1971 879 1971 959 1901 c 0,66,67
 1039 1830 1039 1830 1039 1724 c 0,68,69
 1039 1617 1039 1617 959 1548 c 0,70,71
 879 1480 879 1480 766 1480 c 0,56,57
712 1605.5 m 128,-1,73
 737 1597 737 1597 765.5 1597 c 128,-1,74
 794 1597 794 1597 819 1605.5 c 128,-1,75
 844 1614 844 1614 863 1630 c 0,76,77
 903 1664 903 1664 903 1707 c 128,-1,78
 903 1750 903 1750 892.5 1773 c 128,-1,79
 882 1796 882 1796 863 1812 c 0,80,81
 823 1847 823 1847 780 1847 c 128,-1,82
 737 1847 737 1847 712 1838 c 128,-1,83
 687 1829 687 1829 669 1812 c 0,84,85
 628 1776 628 1776 628 1734.5 c 128,-1,86
 628 1693 628 1693 639 1669.5 c 128,-1,87
 650 1646 650 1646 668.5 1630 c 128,-1,72
 687 1614 687 1614 712 1605.5 c 128,-1,73
EndSplineSet
EndChar

StartChar: AE
Encoding: 198 198 155
Width: 2219
GlyphClass: 2
Flags: W
LayerCount: 2
Fore
SplineSet
1364 779 m 1,0,1
 1388 563 1388 563 1388 313 c 2,2,-1
 1388 112 l 1,3,-1
 1666 112 l 2,4,5
 1807 112 1807 112 1862.5 126.5 c 128,-1,6
 1918 141 1918 141 1951.5 161.5 c 128,-1,7
 1985 182 1985 182 2014 217 c 0,8,9
 2069 284 2069 284 2119 425 c 1,10,-1
 2214 425 l 1,11,-1
 2141 0 l 1,12,-1
 1004 0 l 1,13,-1
 1004 83 l 1,14,15
 1135 98 1135 98 1162 126 c 1,16,17
 1182 149 1182 149 1184.5 195 c 128,-1,18
 1187 241 1187 241 1187 284 c 2,19,-1
 1187 486 l 1,20,-1
 460 486 l 1,21,-1
 460 284 l 2,22,23
 460 191 460 191 467 165 c 128,-1,24
 474 139 474 139 485.5 126.5 c 128,-1,25
 497 114 497 114 518 106 c 0,26,27
 554 93 554 93 644 83 c 1,28,-1
 644 0 l 1,29,-1
 98 0 l 1,30,-1
 98 83 l 1,31,-1
 166 97 l 2,32,33
 224 109 224 109 239 128.5 c 128,-1,34
 254 148 254 148 259 171 c 0,35,36
 267 208 267 208 267 351 c 128,-1,37
 267 494 267 494 280.5 642 c 128,-1,38
 294 790 294 790 323 911.5 c 128,-1,39
 352 1033 352 1033 397.5 1130.5 c 128,-1,40
 443 1228 443 1228 507 1310 c 0,41,42
 628 1464 628 1464 842 1590 c 1,43,-1
 844 1590 l 1,44,45
 906 1547 906 1547 929 1530 c 1,46,-1
 2172 1530 l 1,47,-1
 2067 1100 l 1,48,-1
 1971 1100 l 1,49,50
 1992 1213 1992 1213 1992 1265 c 128,-1,51
 1992 1317 1992 1317 1979.5 1345.5 c 128,-1,52
 1967 1374 1967 1374 1938 1390 c 0,53,54
 1889 1418 1889 1418 1748 1418 c 2,55,-1
 1059 1418 l 1,56,57
 1232 1284 1232 1284 1306 1054 c 0,58,59
 1330 980 1330 980 1349 893 c 1,60,-1
 1902 893 l 1,61,-1
 1875 779 l 1,62,-1
 1364 779 l 1,0,1
1185 598 m 1,63,64
 1183 906 1183 906 1117 1081 c 0,65,66
 1042 1281 1042 1281 843 1449 c 1,67,68
 634 1275 634 1275 552 1084 c 0,69,70
 474 903 474 903 462 598 c 1,71,-1
 1185 598 l 1,63,64
EndSplineSet
EndChar

StartChar: Ccedilla
Encoding: 199 199 156
Width: 1531
GlyphClass: 2
Flags: W
LayerCount: 2
Fore
SplineSet
921 -351 m 0,0,1
 921 -220 921 -220 711 -220 c 1,2,-1
 789 -19 l 1,3,4
 473 13 473 13 289 243 c 0,5,6
 120 454 120 454 120 755 c 0,7,8
 120 958 120 958 208 1138 c 0,9,10
 350 1427 350 1427 662 1520 c 0,11,12
 769 1551 769 1551 857 1551 c 128,-1,13
 945 1551 945 1551 985 1546.5 c 128,-1,14
 1025 1542 1025 1542 1058 1534.5 c 128,-1,15
 1091 1527 1091 1527 1118 1518 c 2,16,-1
 1169 1501 l 2,17,18
 1256 1471 1256 1471 1306 1471 c 128,-1,19
 1356 1471 1356 1471 1417 1553 c 1,20,-1
 1512 1553 l 1,21,-1
 1380 1023 l 1,22,-1
 1284 1023 l 1,23,24
 1289 1083 1289 1083 1289 1118 c 0,25,26
 1289 1193 1289 1193 1273.5 1245.5 c 128,-1,27
 1258 1298 1258 1298 1219 1333.5 c 128,-1,28
 1180 1369 1180 1369 1128 1393 c 0,29,30
 1020 1442 1020 1442 906.5 1442 c 128,-1,31
 793 1442 793 1442 714 1413.5 c 128,-1,32
 635 1385 635 1385 575.5 1336 c 128,-1,33
 516 1287 516 1287 474 1220 c 128,-1,34
 432 1153 432 1153 406 1076 c 0,35,36
 355 929 355 929 355 748 c 0,37,38
 355 500 355 500 489 320 c 0,39,40
 584 194 584 194 747 142 c 0,41,42
 830 115 830 115 919 115 c 128,-1,43
 1008 115 1008 115 1072 125.5 c 128,-1,44
 1136 136 1136 136 1192 158 c 0,45,46
 1304 200 1304 200 1398 292 c 1,47,-1
 1448 225 l 1,48,49
 1373 112 1373 112 1235.5 45 c 128,-1,50
 1098 -22 1098 -22 906 -25 c 1,51,-1
 868 -127 l 1,52,53
 973 -125 973 -125 1048 -175 c 0,54,55
 1128 -228 1128 -228 1128 -318 c 0,56,57
 1128 -392 1128 -392 1066 -458 c 0,58,59
 989 -539 989 -539 851 -575 c 0,60,61
 813 -585 813 -585 782 -587 c 1,62,-1
 725 -504 l 1,63,64
 816 -482 816 -482 868.5 -442 c 128,-1,65
 921 -402 921 -402 921 -351 c 0,0,1
EndSplineSet
EndChar

StartChar: Egrave
Encoding: 200 200 157
Width: 1533
GlyphClass: 2
Flags: W
LayerCount: 2
Fore
SplineSet
898 104 m 0,0,1
 1198 104 1198 104 1375 292 c 1,2,-1
 1425 225 l 1,3,4
 1292 44 1292 44 1028 -8 c 0,5,6
 945 -25 945 -25 856 -25 c 0,7,8
 683 -25 683 -25 544 35.5 c 128,-1,9
 405 96 405 96 308 199 c 0,10,11
 107 412 107 412 107 725 c 0,12,13
 107 1055 107 1055 290 1294 c 0,14,15
 413 1455 413 1455 607 1520 c 0,16,17
 705 1552 705 1552 789.5 1552 c 128,-1,18
 874 1552 874 1552 914.5 1547 c 128,-1,19
 955 1542 955 1542 987 1534 c 128,-1,20
 1019 1526 1019 1526 1044.5 1516.5 c 128,-1,21
 1070 1507 1070 1507 1100 1497 c 0,22,23
 1182 1469 1182 1469 1232 1469 c 128,-1,24
 1282 1469 1282 1469 1341 1551 c 1,25,-1
 1437 1551 l 1,26,-1
 1304 1021 l 1,27,-1
 1209 1021 l 1,28,29
 1214 1098 1214 1098 1214 1129 c 0,30,31
 1214 1195 1214 1195 1198.5 1245.5 c 128,-1,32
 1183 1296 1183 1296 1146 1332 c 128,-1,33
 1109 1368 1109 1368 1058 1393 c 0,34,35
 956 1443 956 1443 833.5 1443 c 128,-1,36
 711 1443 711 1443 623.5 1394 c 128,-1,37
 536 1345 536 1345 476 1260 c 0,38,39
 363 1097 363 1097 341 817 c 1,40,-1
 986 817 l 1,41,-1
 959 704 l 1,42,-1
 338 704 l 1,43,44
 348 471 348 471 492 296 c 0,45,46
 651 104 651 104 898 104 c 0,0,1
529 1752 m 1,47,-1
 643 1970 l 1,48,-1
 1095 1692 l 1,49,-1
 1063 1602 l 1,50,-1
 529 1752 l 1,47,-1
EndSplineSet
EndChar

StartChar: Eacute
Encoding: 201 201 158
Width: 1533
GlyphClass: 2
Flags: W
LayerCount: 2
Fore
SplineSet
898 104 m 0,0,1
 1198 104 1198 104 1375 292 c 1,2,-1
 1425 225 l 1,3,4
 1292 44 1292 44 1028 -8 c 0,5,6
 945 -25 945 -25 856 -25 c 0,7,8
 683 -25 683 -25 544 35.5 c 128,-1,9
 405 96 405 96 308 199 c 0,10,11
 107 412 107 412 107 725 c 0,12,13
 107 1055 107 1055 290 1294 c 0,14,15
 413 1455 413 1455 607 1520 c 0,16,17
 705 1552 705 1552 789.5 1552 c 128,-1,18
 874 1552 874 1552 914.5 1547 c 128,-1,19
 955 1542 955 1542 987 1534 c 128,-1,20
 1019 1526 1019 1526 1044.5 1516.5 c 128,-1,21
 1070 1507 1070 1507 1100 1497 c 0,22,23
 1182 1469 1182 1469 1232 1469 c 128,-1,24
 1282 1469 1282 1469 1341 1551 c 1,25,-1
 1437 1551 l 1,26,-1
 1304 1021 l 1,27,-1
 1209 1021 l 1,28,29
 1214 1098 1214 1098 1214 1129 c 0,30,31
 1214 1195 1214 1195 1198.5 1245.5 c 128,-1,32
 1183 1296 1183 1296 1146 1332 c 128,-1,33
 1109 1368 1109 1368 1058 1393 c 0,34,35
 956 1443 956 1443 833.5 1443 c 128,-1,36
 711 1443 711 1443 623.5 1394 c 128,-1,37
 536 1345 536 1345 476 1260 c 0,38,39
 363 1097 363 1097 341 817 c 1,40,-1
 986 817 l 1,41,-1
 959 704 l 1,42,-1
 338 704 l 1,43,44
 348 471 348 471 492 296 c 0,45,46
 651 104 651 104 898 104 c 0,0,1
529 1692 m 1,47,-1
 981 1970 l 1,48,-1
 1095 1752 l 1,49,-1
 561 1602 l 1,50,-1
 529 1692 l 1,47,-1
EndSplineSet
EndChar

StartChar: Ecircumflex
Encoding: 202 202 159
Width: 1533
GlyphClass: 2
Flags: W
LayerCount: 2
Fore
SplineSet
898 104 m 0,0,1
 1198 104 1198 104 1375 292 c 1,2,-1
 1425 225 l 1,3,4
 1292 44 1292 44 1028 -8 c 0,5,6
 945 -25 945 -25 856 -25 c 0,7,8
 683 -25 683 -25 544 35.5 c 128,-1,9
 405 96 405 96 308 199 c 0,10,11
 107 412 107 412 107 725 c 0,12,13
 107 1055 107 1055 290 1294 c 0,14,15
 413 1455 413 1455 607 1520 c 0,16,17
 705 1552 705 1552 789.5 1552 c 128,-1,18
 874 1552 874 1552 914.5 1547 c 128,-1,19
 955 1542 955 1542 987 1534 c 128,-1,20
 1019 1526 1019 1526 1044.5 1516.5 c 128,-1,21
 1070 1507 1070 1507 1100 1497 c 0,22,23
 1182 1469 1182 1469 1232 1469 c 128,-1,24
 1282 1469 1282 1469 1341 1551 c 1,25,-1
 1437 1551 l 1,26,-1
 1304 1021 l 1,27,-1
 1209 1021 l 1,28,29
 1214 1098 1214 1098 1214 1129 c 0,30,31
 1214 1195 1214 1195 1198.5 1245.5 c 128,-1,32
 1183 1296 1183 1296 1146 1332 c 128,-1,33
 1109 1368 1109 1368 1058 1393 c 0,34,35
 956 1443 956 1443 833.5 1443 c 128,-1,36
 711 1443 711 1443 623.5 1394 c 128,-1,37
 536 1345 536 1345 476 1260 c 0,38,39
 363 1097 363 1097 341 817 c 1,40,-1
 986 817 l 1,41,-1
 959 704 l 1,42,-1
 338 704 l 1,43,44
 348 471 348 471 492 296 c 0,45,46
 651 104 651 104 898 104 c 0,0,1
477 1690 m 1,47,-1
 719 1971 l 1,48,-1
 905 1971 l 1,49,-1
 1147 1690 l 1,50,-1
 1083 1626 l 1,51,-1
 812 1798 l 1,52,-1
 541 1626 l 1,53,-1
 477 1690 l 1,47,-1
EndSplineSet
EndChar

StartChar: Edieresis
Encoding: 203 203 160
Width: 1533
GlyphClass: 2
Flags: W
LayerCount: 2
Fore
SplineSet
898 104 m 0,0,1
 1198 104 1198 104 1375 292 c 1,2,-1
 1425 225 l 1,3,4
 1292 44 1292 44 1028 -8 c 0,5,6
 945 -25 945 -25 856 -25 c 0,7,8
 683 -25 683 -25 544 35.5 c 128,-1,9
 405 96 405 96 308 199 c 0,10,11
 107 412 107 412 107 725 c 0,12,13
 107 1055 107 1055 290 1294 c 0,14,15
 413 1455 413 1455 607 1520 c 0,16,17
 705 1552 705 1552 789.5 1552 c 128,-1,18
 874 1552 874 1552 914.5 1547 c 128,-1,19
 955 1542 955 1542 987 1534 c 128,-1,20
 1019 1526 1019 1526 1044.5 1516.5 c 128,-1,21
 1070 1507 1070 1507 1100 1497 c 0,22,23
 1182 1469 1182 1469 1232 1469 c 128,-1,24
 1282 1469 1282 1469 1341 1551 c 1,25,-1
 1437 1551 l 1,26,-1
 1304 1021 l 1,27,-1
 1209 1021 l 1,28,29
 1214 1098 1214 1098 1214 1129 c 0,30,31
 1214 1195 1214 1195 1198.5 1245.5 c 128,-1,32
 1183 1296 1183 1296 1146 1332 c 128,-1,33
 1109 1368 1109 1368 1058 1393 c 0,34,35
 956 1443 956 1443 833.5 1443 c 128,-1,36
 711 1443 711 1443 623.5 1394 c 128,-1,37
 536 1345 536 1345 476 1260 c 0,38,39
 363 1097 363 1097 341 817 c 1,40,-1
 986 817 l 1,41,-1
 959 704 l 1,42,-1
 338 704 l 1,43,44
 348 471 348 471 492 296 c 0,45,46
 651 104 651 104 898 104 c 0,0,1
866 1793 m 1,47,-1
 1049 1972 l 1,48,-1
 1228 1793 l 1,49,-1
 1049 1612 l 1,50,-1
 866 1793 l 1,47,-1
396 1793 m 1,51,-1
 579 1972 l 1,52,-1
 758 1793 l 1,53,-1
 579 1612 l 1,54,-1
 396 1793 l 1,51,-1
EndSplineSet
EndChar

StartChar: Igrave
Encoding: 204 204 161
Width: 848
GlyphClass: 2
Flags: W
LayerCount: 2
Fore
SplineSet
154 82 m 1,0,-1
 156 83 l 1,1,-1
 188 88 l 1,2,3
 279 100 279 100 298 121 c 0,4,5
 327 154 327 154 327 265 c 2,6,-1
 327 1267 l 2,7,8
 327 1381 327 1381 303 1403 c 128,-1,9
 279 1425 279 1425 245 1431.5 c 128,-1,10
 211 1438 211 1438 154 1443 c 1,11,-1
 154 1530 l 1,12,-1
 701 1530 l 1,13,-1
 701 1443 l 1,14,15
 645 1437 645 1437 611 1431.5 c 128,-1,16
 577 1426 577 1426 559 1410 c 0,17,18
 529 1382 529 1382 529 1267 c 2,19,-1
 529 265 l 2,20,21
 529 153 529 153 547 131 c 128,-1,22
 565 109 565 109 591.5 102.5 c 128,-1,23
 618 96 618 96 663 89 c 2,24,-1
 701 83 l 1,25,-1
 701 0 l 1,26,-1
 154 0 l 1,27,-1
 154 82 l 1,0,-1
144 1752 m 1,28,-1
 258 1970 l 1,29,-1
 710 1692 l 1,30,-1
 678 1602 l 1,31,-1
 144 1752 l 1,28,-1
EndSplineSet
EndChar

StartChar: Iacute
Encoding: 205 205 162
Width: 848
GlyphClass: 2
Flags: W
LayerCount: 2
Fore
SplineSet
154 82 m 1,0,-1
 156 83 l 1,1,-1
 188 88 l 1,2,3
 279 100 279 100 298 121 c 0,4,5
 327 154 327 154 327 265 c 2,6,-1
 327 1267 l 2,7,8
 327 1381 327 1381 303 1403 c 128,-1,9
 279 1425 279 1425 245 1431.5 c 128,-1,10
 211 1438 211 1438 154 1443 c 1,11,-1
 154 1530 l 1,12,-1
 701 1530 l 1,13,-1
 701 1443 l 1,14,15
 645 1437 645 1437 611 1431.5 c 128,-1,16
 577 1426 577 1426 559 1410 c 0,17,18
 529 1382 529 1382 529 1267 c 2,19,-1
 529 265 l 2,20,21
 529 153 529 153 547 131 c 128,-1,22
 565 109 565 109 591.5 102.5 c 128,-1,23
 618 96 618 96 663 89 c 2,24,-1
 701 83 l 1,25,-1
 701 0 l 1,26,-1
 154 0 l 1,27,-1
 154 82 l 1,0,-1
144 1692 m 1,28,-1
 596 1970 l 1,29,-1
 710 1752 l 1,30,-1
 176 1602 l 1,31,-1
 144 1692 l 1,28,-1
EndSplineSet
EndChar

StartChar: Icircumflex
Encoding: 206 206 163
Width: 848
GlyphClass: 2
Flags: W
LayerCount: 2
Fore
SplineSet
154 82 m 1,0,-1
 156 83 l 1,1,-1
 188 88 l 1,2,3
 279 100 279 100 298 121 c 0,4,5
 327 154 327 154 327 265 c 2,6,-1
 327 1267 l 2,7,8
 327 1381 327 1381 303 1403 c 128,-1,9
 279 1425 279 1425 245 1431.5 c 128,-1,10
 211 1438 211 1438 154 1443 c 1,11,-1
 154 1530 l 1,12,-1
 701 1530 l 1,13,-1
 701 1443 l 1,14,15
 645 1437 645 1437 611 1431.5 c 128,-1,16
 577 1426 577 1426 559 1410 c 0,17,18
 529 1382 529 1382 529 1267 c 2,19,-1
 529 265 l 2,20,21
 529 153 529 153 547 131 c 128,-1,22
 565 109 565 109 591.5 102.5 c 128,-1,23
 618 96 618 96 663 89 c 2,24,-1
 701 83 l 1,25,-1
 701 0 l 1,26,-1
 154 0 l 1,27,-1
 154 82 l 1,0,-1
93 1690 m 1,28,-1
 335 1971 l 1,29,-1
 521 1971 l 1,30,-1
 763 1690 l 1,31,-1
 699 1626 l 1,32,-1
 428 1798 l 1,33,-1
 157 1626 l 1,34,-1
 93 1690 l 1,28,-1
EndSplineSet
EndChar

StartChar: Idieresis
Encoding: 207 207 164
Width: 848
GlyphClass: 2
Flags: W
LayerCount: 2
Fore
SplineSet
154 82 m 1,0,-1
 156 83 l 1,1,-1
 188 88 l 1,2,3
 279 100 279 100 298 121 c 0,4,5
 327 154 327 154 327 265 c 2,6,-1
 327 1267 l 2,7,8
 327 1381 327 1381 303 1403 c 128,-1,9
 279 1425 279 1425 245 1431.5 c 128,-1,10
 211 1438 211 1438 154 1443 c 1,11,-1
 154 1530 l 1,12,-1
 701 1530 l 1,13,-1
 701 1443 l 1,14,15
 645 1437 645 1437 611 1431.5 c 128,-1,16
 577 1426 577 1426 559 1410 c 0,17,18
 529 1382 529 1382 529 1267 c 2,19,-1
 529 265 l 2,20,21
 529 153 529 153 547 131 c 128,-1,22
 565 109 565 109 591.5 102.5 c 128,-1,23
 618 96 618 96 663 89 c 2,24,-1
 701 83 l 1,25,-1
 701 0 l 1,26,-1
 154 0 l 1,27,-1
 154 82 l 1,0,-1
482 1793 m 1,28,-1
 665 1972 l 1,29,-1
 844 1793 l 1,30,-1
 665 1612 l 1,31,-1
 482 1793 l 1,28,-1
12 1793 m 1,32,-1
 195 1972 l 1,33,-1
 374 1793 l 1,34,-1
 195 1612 l 1,35,-1
 12 1793 l 1,32,-1
EndSplineSet
EndChar

StartChar: Eth
Encoding: 208 208 165
Width: 1533
GlyphClass: 2
Flags: W
LayerCount: 2
Fore
SplineSet
355 1532 m 1,0,-1
 435 1531 l 2,1,2
 481 1531 481 1531 522 1534 c 2,3,-1
 594 1538 l 2,4,5
 704 1545 704 1545 743 1545 c 0,6,7
 1094 1545 1094 1545 1298 1372 c 1,8,9
 1519 1183 1519 1183 1519 818 c 0,10,11
 1519 435 1519 435 1314 210 c 0,12,13
 1101 -24 1101 -24 726 -24 c 0,14,15
 631 -24 631 -24 554 -16 c 2,16,-1
 428 -3 l 2,17,18
 379 2 379 2 355 2 c 2,19,-1
 64 1 l 1,20,-1
 64 84 l 1,21,22
 121 92 121 92 155 99.5 c 128,-1,23
 189 107 189 107 207 124 c 0,24,25
 237 154 237 154 237 266 c 2,26,-1
 237 766 l 1,27,-1
 7 766 l 1,28,-1
 36 891 l 1,29,-1
 237 891 l 1,30,-1
 237 1270 l 2,31,32
 237 1383 237 1383 213 1405 c 128,-1,33
 189 1427 189 1427 155 1433 c 128,-1,34
 121 1439 121 1439 64 1444 c 1,35,-1
 64 1532 l 1,36,-1
 355 1532 l 1,0,-1
440 218 m 2,37,38
 440 130 440 130 638 98 c 0,39,40
 697 89 697 89 751 89 c 0,41,42
 1172 89 1172 89 1264 524 c 0,43,44
 1295 667 1295 667 1295 843 c 128,-1,45
 1295 1019 1295 1019 1252.5 1131.5 c 128,-1,46
 1210 1244 1210 1244 1134 1314 c 1,47,48
 990 1444 990 1444 714 1444 c 0,49,50
 544 1444 544 1444 468 1386 c 0,51,52
 440 1364 440 1364 440 1330 c 2,53,-1
 440 891 l 1,54,-1
 782 891 l 1,55,-1
 752 766 l 1,56,-1
 440 766 l 1,57,-1
 440 218 l 2,37,38
EndSplineSet
EndChar

StartChar: Ntilde
Encoding: 209 209 166
Width: 1703
GlyphClass: 2
Flags: W
LayerCount: 2
Fore
SplineSet
45 83 m 1,0,-1
 90 89 l 1,1,2
 179 103 179 103 200 117 c 0,3,4
 238 142 238 142 238 210 c 2,5,-1
 238 1558 l 1,6,-1
 323 1588 l 1,7,-1
 1307 350 l 1,8,-1
 1307 1287 l 2,9,10
 1307 1383 1307 1383 1267 1412 c 0,11,12
 1237 1434 1237 1434 1113 1445 c 1,13,-1
 1113 1530 l 1,14,-1
 1641 1530 l 1,15,-1
 1641 1445 l 1,16,17
 1588 1439 1588 1439 1553 1433.5 c 128,-1,18
 1518 1428 1518 1428 1497 1413 c 0,19,20
 1459 1386 1459 1386 1459 1290 c 2,21,-1
 1459 -24 l 1,22,-1
 1381 -47 l 1,23,-1
 390 1200 l 1,24,-1
 390 241 l 2,25,26
 390 155 390 155 430 125 c 0,27,28
 459 104 459 104 525 94.5 c 128,-1,29
 591 85 591 85 604 83 c 1,30,-1
 604 0 l 1,31,-1
 45 0 l 1,32,-1
 45 83 l 1,0,-1
679 1804 m 0,33,34
 600 1804 600 1804 584 1716 c 1,35,-1
 491 1716 l 1,36,37
 497 1831 497 1831 571 1903 c 0,38,39
 641 1971 641 1971 731 1971 c 0,40,41
 791 1971 791 1971 889 1915 c 0,42,43
 968 1869 968 1869 1007 1869 c 0,44,45
 1086 1869 1086 1869 1102 1957 c 1,46,-1
 1195 1957 l 1,47,48
 1189 1844 1189 1844 1115 1770 c 1,49,50
 1045 1702 1045 1702 955 1702 c 0,51,52
 898 1702 898 1702 802 1757 c 1,53,-1
 739 1789 l 2,54,55
 708 1804 708 1804 679 1804 c 0,33,34
EndSplineSet
EndChar

StartChar: Ograve
Encoding: 210 210 167
Width: 1703
GlyphClass: 2
Flags: W
LayerCount: 2
Fore
SplineSet
119 756 m 0,0,1
 119 854 119 854 139 951 c 128,-1,2
 159 1048 159 1048 199.5 1136.5 c 128,-1,3
 240 1225 240 1225 301 1300.5 c 128,-1,4
 362 1376 362 1376 443 1432 c 0,5,6
 615 1551 615 1551 851 1551 c 0,7,8
 1200 1551 1200 1551 1402 1300 c 0,9,10
 1584 1075 1584 1075 1584 756 c 0,11,12
 1584 434 1584 434 1402 218 c 0,13,14
 1202 -20 1202 -20 851 -20 c 0,15,16
 498 -20 498 -20 300 220 c 0,17,18
 119 438 119 438 119 756 c 0,0,1
367 592 m 128,-1,20
 376 510 376 510 397.5 435 c 128,-1,21
 419 360 419 360 455 295 c 128,-1,22
 491 230 491 230 546 182 c 0,23,24
 664 81 664 81 853 81 c 0,25,26
 1205 81 1205 81 1309 434 c 0,27,28
 1349 570 1349 570 1349 756 c 0,29,30
 1349 1296 1349 1296 1028 1415 c 0,31,32
 953 1443 953 1443 853 1443 c 0,33,34
 500 1443 500 1443 398 1078 c 0,35,36
 358 937 358 937 358 805.5 c 128,-1,19
 358 674 358 674 367 592 c 128,-1,20
568 1752 m 1,37,-1
 682 1970 l 1,38,-1
 1134 1692 l 1,39,-1
 1102 1602 l 1,40,-1
 568 1752 l 1,37,-1
EndSplineSet
EndChar

StartChar: Oacute
Encoding: 211 211 168
Width: 1703
GlyphClass: 2
Flags: W
LayerCount: 2
Fore
SplineSet
119 756 m 0,0,1
 119 854 119 854 139 951 c 128,-1,2
 159 1048 159 1048 199.5 1136.5 c 128,-1,3
 240 1225 240 1225 301 1300.5 c 128,-1,4
 362 1376 362 1376 443 1432 c 0,5,6
 615 1551 615 1551 851 1551 c 0,7,8
 1200 1551 1200 1551 1402 1300 c 0,9,10
 1584 1075 1584 1075 1584 756 c 0,11,12
 1584 434 1584 434 1402 218 c 0,13,14
 1202 -20 1202 -20 851 -20 c 0,15,16
 498 -20 498 -20 300 220 c 0,17,18
 119 438 119 438 119 756 c 0,0,1
367 592 m 128,-1,20
 376 510 376 510 397.5 435 c 128,-1,21
 419 360 419 360 455 295 c 128,-1,22
 491 230 491 230 546 182 c 0,23,24
 664 81 664 81 853 81 c 0,25,26
 1205 81 1205 81 1309 434 c 0,27,28
 1349 570 1349 570 1349 756 c 0,29,30
 1349 1296 1349 1296 1028 1415 c 0,31,32
 953 1443 953 1443 853 1443 c 0,33,34
 500 1443 500 1443 398 1078 c 0,35,36
 358 937 358 937 358 805.5 c 128,-1,19
 358 674 358 674 367 592 c 128,-1,20
568 1692 m 1,37,-1
 1020 1970 l 1,38,-1
 1134 1752 l 1,39,-1
 600 1602 l 1,40,-1
 568 1692 l 1,37,-1
EndSplineSet
EndChar

StartChar: Ocircumflex
Encoding: 212 212 169
Width: 1703
GlyphClass: 2
Flags: W
LayerCount: 2
Fore
SplineSet
119 756 m 0,0,1
 119 854 119 854 139 951 c 128,-1,2
 159 1048 159 1048 199.5 1136.5 c 128,-1,3
 240 1225 240 1225 301 1300.5 c 128,-1,4
 362 1376 362 1376 443 1432 c 0,5,6
 615 1551 615 1551 851 1551 c 0,7,8
 1200 1551 1200 1551 1402 1300 c 0,9,10
 1584 1075 1584 1075 1584 756 c 0,11,12
 1584 434 1584 434 1402 218 c 0,13,14
 1202 -20 1202 -20 851 -20 c 0,15,16
 498 -20 498 -20 300 220 c 0,17,18
 119 438 119 438 119 756 c 0,0,1
367 592 m 128,-1,20
 376 510 376 510 397.5 435 c 128,-1,21
 419 360 419 360 455 295 c 128,-1,22
 491 230 491 230 546 182 c 0,23,24
 664 81 664 81 853 81 c 0,25,26
 1205 81 1205 81 1309 434 c 0,27,28
 1349 570 1349 570 1349 756 c 0,29,30
 1349 1296 1349 1296 1028 1415 c 0,31,32
 953 1443 953 1443 853 1443 c 0,33,34
 500 1443 500 1443 398 1078 c 0,35,36
 358 937 358 937 358 805.5 c 128,-1,19
 358 674 358 674 367 592 c 128,-1,20
516 1690 m 1,37,-1
 758 1971 l 1,38,-1
 944 1971 l 1,39,-1
 1186 1690 l 1,40,-1
 1122 1626 l 1,41,-1
 851 1798 l 1,42,-1
 580 1626 l 1,43,-1
 516 1690 l 1,37,-1
EndSplineSet
EndChar

StartChar: Otilde
Encoding: 213 213 170
Width: 1703
GlyphClass: 2
Flags: W
LayerCount: 2
Fore
SplineSet
119 756 m 0,0,1
 119 854 119 854 139 951 c 128,-1,2
 159 1048 159 1048 199.5 1136.5 c 128,-1,3
 240 1225 240 1225 301 1300.5 c 128,-1,4
 362 1376 362 1376 443 1432 c 0,5,6
 615 1551 615 1551 851 1551 c 0,7,8
 1200 1551 1200 1551 1402 1300 c 0,9,10
 1584 1075 1584 1075 1584 756 c 0,11,12
 1584 434 1584 434 1402 218 c 0,13,14
 1202 -20 1202 -20 851 -20 c 0,15,16
 498 -20 498 -20 300 220 c 0,17,18
 119 438 119 438 119 756 c 0,0,1
367 592 m 128,-1,20
 376 510 376 510 397.5 435 c 128,-1,21
 419 360 419 360 455 295 c 128,-1,22
 491 230 491 230 546 182 c 0,23,24
 664 81 664 81 853 81 c 0,25,26
 1205 81 1205 81 1309 434 c 0,27,28
 1349 570 1349 570 1349 756 c 0,29,30
 1349 1296 1349 1296 1028 1415 c 0,31,32
 953 1443 953 1443 853 1443 c 0,33,34
 500 1443 500 1443 398 1078 c 0,35,36
 358 937 358 937 358 805.5 c 128,-1,19
 358 674 358 674 367 592 c 128,-1,20
687 1804 m 0,37,38
 608 1804 608 1804 592 1716 c 1,39,-1
 499 1716 l 1,40,41
 505 1831 505 1831 579 1903 c 0,42,43
 649 1971 649 1971 739 1971 c 0,44,45
 799 1971 799 1971 897 1915 c 0,46,47
 976 1869 976 1869 1015 1869 c 0,48,49
 1094 1869 1094 1869 1110 1957 c 1,50,-1
 1203 1957 l 1,51,52
 1197 1844 1197 1844 1123 1770 c 1,53,54
 1053 1702 1053 1702 963 1702 c 0,55,56
 906 1702 906 1702 810 1757 c 1,57,-1
 747 1789 l 2,58,59
 716 1804 716 1804 687 1804 c 0,37,38
EndSplineSet
EndChar

StartChar: Odieresis
Encoding: 214 214 171
Width: 1703
GlyphClass: 2
Flags: W
LayerCount: 2
Fore
SplineSet
119 756 m 0,0,1
 119 854 119 854 139 951 c 128,-1,2
 159 1048 159 1048 199.5 1136.5 c 128,-1,3
 240 1225 240 1225 301 1300.5 c 128,-1,4
 362 1376 362 1376 443 1432 c 0,5,6
 615 1551 615 1551 851 1551 c 0,7,8
 1200 1551 1200 1551 1402 1300 c 0,9,10
 1584 1075 1584 1075 1584 756 c 0,11,12
 1584 434 1584 434 1402 218 c 0,13,14
 1202 -20 1202 -20 851 -20 c 0,15,16
 498 -20 498 -20 300 220 c 0,17,18
 119 438 119 438 119 756 c 0,0,1
367 592 m 128,-1,20
 376 510 376 510 397.5 435 c 128,-1,21
 419 360 419 360 455 295 c 128,-1,22
 491 230 491 230 546 182 c 0,23,24
 664 81 664 81 853 81 c 0,25,26
 1205 81 1205 81 1309 434 c 0,27,28
 1349 570 1349 570 1349 756 c 0,29,30
 1349 1296 1349 1296 1028 1415 c 0,31,32
 953 1443 953 1443 853 1443 c 0,33,34
 500 1443 500 1443 398 1078 c 0,35,36
 358 937 358 937 358 805.5 c 128,-1,19
 358 674 358 674 367 592 c 128,-1,20
905 1793 m 1,37,-1
 1088 1972 l 1,38,-1
 1267 1793 l 1,39,-1
 1088 1612 l 1,40,-1
 905 1793 l 1,37,-1
435 1793 m 1,41,-1
 618 1972 l 1,42,-1
 797 1793 l 1,43,-1
 618 1612 l 1,44,-1
 435 1793 l 1,41,-1
EndSplineSet
EndChar

StartChar: multiply
Encoding: 215 215 172
Width: 1360
GlyphClass: 2
Flags: W
LayerCount: 2
Fore
SplineSet
169 445 m 1,0,-1
 561 837 l 1,1,-1
 169 1229 l 1,2,-1
 288 1348 l 1,3,-1
 680 956 l 1,4,-1
 1071 1348 l 1,5,-1
 1190 1229 l 1,6,-1
 799 837 l 1,7,-1
 1191 446 l 1,8,-1
 1072 327 l 1,9,-1
 680 718 l 1,10,-1
 288 326 l 1,11,-1
 169 445 l 1,0,-1
EndSplineSet
EndChar

StartChar: Oslash
Encoding: 216 216 173
Width: 1703
GlyphClass: 2
Flags: W
LayerCount: 2
Fore
SplineSet
471 75 m 1,0,-1
 368 -91 l 1,1,-1
 271 -30 l 1,2,-1
 377 141 l 1,3,4
 187 302 187 302 135 581 c 0,5,6
 119 667 119 667 119 760.5 c 128,-1,7
 119 854 119 854 139 951 c 128,-1,8
 159 1048 159 1048 199.5 1136.5 c 128,-1,9
 240 1225 240 1225 301 1300.5 c 128,-1,10
 362 1376 362 1376 443 1432 c 0,11,12
 615 1551 615 1551 829 1551 c 128,-1,13
 1043 1551 1043 1551 1200 1468 c 1,14,-1
 1295 1621 l 1,15,-1
 1391 1560 l 1,16,-1
 1295 1405 l 1,17,18
 1508 1237 1508 1237 1566 940 c 0,19,20
 1584 848 1584 848 1584 751.5 c 128,-1,21
 1584 655 1584 655 1564 558.5 c 128,-1,22
 1544 462 1544 462 1503.5 376 c 128,-1,23
 1463 290 1463 290 1402 217.5 c 128,-1,24
 1341 145 1341 145 1260 92 c 0,25,26
 1087 -20 1087 -20 861.5 -20 c 128,-1,27
 636 -20 636 -20 471 75 c 1,0,-1
1133 1359 m 1,28,29
 1020 1443 1020 1443 853 1443 c 0,30,31
 500 1443 500 1443 398 1078 c 0,32,33
 358 937 358 937 358 756 c 0,34,35
 358 451 358 451 464 281 c 1,36,-1
 1133 1359 l 1,28,29
541 188 m 1,37,38
 658 81 658 81 853 81 c 0,39,40
 1205 81 1205 81 1309 434 c 0,41,42
 1349 570 1349 570 1349 756 c 0,43,44
 1349 1102 1349 1102 1216 1277 c 1,45,-1
 541 188 l 1,37,38
EndSplineSet
EndChar

StartChar: Ugrave
Encoding: 217 217 174
Width: 1700
GlyphClass: 2
Flags: W
LayerCount: 2
Fore
SplineSet
861 -47 m 1,0,1
 604 98 604 98 476 234 c 0,2,3
 327 392 327 392 262 624 c 0,4,5
 196 861 196 861 196 1254 c 0,6,7
 196 1369 196 1369 180 1393 c 0,8,9
 154 1434 154 1434 55 1443 c 1,10,-1
 55 1530 l 1,11,-1
 568 1530 l 1,12,-1
 568 1443 l 1,13,14
 467 1433 467 1433 436 1399 c 0,15,16
 407 1368 407 1368 407 1236 c 128,-1,17
 407 1104 407 1104 412 973.5 c 128,-1,18
 417 843 417 843 433.5 739 c 128,-1,19
 450 635 450 635 480 552.5 c 128,-1,20
 510 470 510 470 560 396 c 0,21,22
 649 265 649 265 861 96 c 1,23,24
 1067 264 1067 264 1154 396 c 0,25,26
 1243 532 1243 532 1272 737 c 0,27,28
 1293 890 1293 890 1293 1274 c 0,29,30
 1293 1368 1293 1368 1270 1393 c 0,31,32
 1233 1433 1233 1433 1133 1443 c 1,33,-1
 1133 1530 l 1,34,-1
 1644 1530 l 1,35,-1
 1644 1443 l 1,36,37
 1548 1431 1548 1431 1525 1398 c 0,38,39
 1504 1368 1504 1368 1504 1212 c 128,-1,40
 1504 1056 1504 1056 1488.5 901 c 128,-1,41
 1473 746 1473 746 1440 624 c 128,-1,42
 1407 502 1407 502 1355.5 407 c 128,-1,43
 1304 312 1304 312 1233 234 c 0,44,45
 1111 99 1111 99 861 -47 c 1,0,1
579 1752 m 1,46,-1
 693 1970 l 1,47,-1
 1145 1692 l 1,48,-1
 1113 1602 l 1,49,-1
 579 1752 l 1,46,-1
EndSplineSet
EndChar

StartChar: Uacute
Encoding: 218 218 175
Width: 1700
GlyphClass: 2
Flags: W
LayerCount: 2
Fore
SplineSet
861 -47 m 1,0,1
 604 98 604 98 476 234 c 0,2,3
 327 392 327 392 262 624 c 0,4,5
 196 861 196 861 196 1254 c 0,6,7
 196 1369 196 1369 180 1393 c 0,8,9
 154 1434 154 1434 55 1443 c 1,10,-1
 55 1530 l 1,11,-1
 568 1530 l 1,12,-1
 568 1443 l 1,13,14
 467 1433 467 1433 436 1399 c 0,15,16
 407 1368 407 1368 407 1236 c 128,-1,17
 407 1104 407 1104 412 973.5 c 128,-1,18
 417 843 417 843 433.5 739 c 128,-1,19
 450 635 450 635 480 552.5 c 128,-1,20
 510 470 510 470 560 396 c 0,21,22
 649 265 649 265 861 96 c 1,23,24
 1067 264 1067 264 1154 396 c 0,25,26
 1243 532 1243 532 1272 737 c 0,27,28
 1293 890 1293 890 1293 1274 c 0,29,30
 1293 1368 1293 1368 1270 1393 c 0,31,32
 1233 1433 1233 1433 1133 1443 c 1,33,-1
 1133 1530 l 1,34,-1
 1644 1530 l 1,35,-1
 1644 1443 l 1,36,37
 1548 1431 1548 1431 1525 1398 c 0,38,39
 1504 1368 1504 1368 1504 1212 c 128,-1,40
 1504 1056 1504 1056 1488.5 901 c 128,-1,41
 1473 746 1473 746 1440 624 c 128,-1,42
 1407 502 1407 502 1355.5 407 c 128,-1,43
 1304 312 1304 312 1233 234 c 0,44,45
 1111 99 1111 99 861 -47 c 1,0,1
579 1692 m 1,46,-1
 1031 1970 l 1,47,-1
 1145 1752 l 1,48,-1
 611 1602 l 1,49,-1
 579 1692 l 1,46,-1
EndSplineSet
EndChar

StartChar: Ucircumflex
Encoding: 219 219 176
Width: 1700
GlyphClass: 2
Flags: W
LayerCount: 2
Fore
SplineSet
861 -47 m 1,0,1
 604 98 604 98 476 234 c 0,2,3
 327 392 327 392 262 624 c 0,4,5
 196 861 196 861 196 1254 c 0,6,7
 196 1369 196 1369 180 1393 c 0,8,9
 154 1434 154 1434 55 1443 c 1,10,-1
 55 1530 l 1,11,-1
 568 1530 l 1,12,-1
 568 1443 l 1,13,14
 467 1433 467 1433 436 1399 c 0,15,16
 407 1368 407 1368 407 1236 c 128,-1,17
 407 1104 407 1104 412 973.5 c 128,-1,18
 417 843 417 843 433.5 739 c 128,-1,19
 450 635 450 635 480 552.5 c 128,-1,20
 510 470 510 470 560 396 c 0,21,22
 649 265 649 265 861 96 c 1,23,24
 1067 264 1067 264 1154 396 c 0,25,26
 1243 532 1243 532 1272 737 c 0,27,28
 1293 890 1293 890 1293 1274 c 0,29,30
 1293 1368 1293 1368 1270 1393 c 0,31,32
 1233 1433 1233 1433 1133 1443 c 1,33,-1
 1133 1530 l 1,34,-1
 1644 1530 l 1,35,-1
 1644 1443 l 1,36,37
 1548 1431 1548 1431 1525 1398 c 0,38,39
 1504 1368 1504 1368 1504 1212 c 128,-1,40
 1504 1056 1504 1056 1488.5 901 c 128,-1,41
 1473 746 1473 746 1440 624 c 128,-1,42
 1407 502 1407 502 1355.5 407 c 128,-1,43
 1304 312 1304 312 1233 234 c 0,44,45
 1111 99 1111 99 861 -47 c 1,0,1
527 1690 m 1,46,-1
 769 1971 l 1,47,-1
 955 1971 l 1,48,-1
 1197 1690 l 1,49,-1
 1133 1626 l 1,50,-1
 862 1798 l 1,51,-1
 591 1626 l 1,52,-1
 527 1690 l 1,46,-1
EndSplineSet
EndChar

StartChar: Udieresis
Encoding: 220 220 177
Width: 1700
GlyphClass: 2
Flags: W
LayerCount: 2
Fore
SplineSet
861 -47 m 1,0,1
 604 98 604 98 476 234 c 0,2,3
 327 392 327 392 262 624 c 0,4,5
 196 861 196 861 196 1254 c 0,6,7
 196 1369 196 1369 180 1393 c 0,8,9
 154 1434 154 1434 55 1443 c 1,10,-1
 55 1530 l 1,11,-1
 568 1530 l 1,12,-1
 568 1443 l 1,13,14
 467 1433 467 1433 436 1399 c 0,15,16
 407 1368 407 1368 407 1236 c 128,-1,17
 407 1104 407 1104 412 973.5 c 128,-1,18
 417 843 417 843 433.5 739 c 128,-1,19
 450 635 450 635 480 552.5 c 128,-1,20
 510 470 510 470 560 396 c 0,21,22
 649 265 649 265 861 96 c 1,23,24
 1067 264 1067 264 1154 396 c 0,25,26
 1243 532 1243 532 1272 737 c 0,27,28
 1293 890 1293 890 1293 1274 c 0,29,30
 1293 1368 1293 1368 1270 1393 c 0,31,32
 1233 1433 1233 1433 1133 1443 c 1,33,-1
 1133 1530 l 1,34,-1
 1644 1530 l 1,35,-1
 1644 1443 l 1,36,37
 1548 1431 1548 1431 1525 1398 c 0,38,39
 1504 1368 1504 1368 1504 1212 c 128,-1,40
 1504 1056 1504 1056 1488.5 901 c 128,-1,41
 1473 746 1473 746 1440 624 c 128,-1,42
 1407 502 1407 502 1355.5 407 c 128,-1,43
 1304 312 1304 312 1233 234 c 0,44,45
 1111 99 1111 99 861 -47 c 1,0,1
916 1793 m 1,46,-1
 1099 1972 l 1,47,-1
 1278 1793 l 1,48,-1
 1099 1612 l 1,49,-1
 916 1793 l 1,46,-1
446 1793 m 1,50,-1
 629 1972 l 1,51,-1
 808 1793 l 1,52,-1
 629 1612 l 1,53,-1
 446 1793 l 1,50,-1
EndSplineSet
EndChar

StartChar: Yacute
Encoding: 221 221 178
Width: 1530
GlyphClass: 2
Flags: W
LayerCount: 2
Fore
SplineSet
1313 1255 m 0,0,1
 1313 714 1313 714 866 512 c 1,2,-1
 866 265 l 2,3,4
 866 207 866 207 871.5 174.5 c 128,-1,5
 877 142 877 142 898 125 c 128,-1,6
 919 108 919 108 960 100 c 128,-1,7
 1001 92 1001 92 1072 83 c 1,8,-1
 1072 0 l 1,9,-1
 459 0 l 1,10,-1
 459 83 l 1,11,12
 598 99 598 99 625 120.5 c 128,-1,13
 652 142 652 142 658.5 174.5 c 128,-1,14
 665 207 665 207 665 265 c 2,15,-1
 665 512 l 1,16,17
 217 709 217 709 217 1255 c 0,18,19
 217 1307 217 1307 215 1341 c 128,-1,20
 213 1375 213 1375 200 1396 c 0,21,22
 175 1434 175 1434 77 1443 c 1,23,-1
 77 1530 l 1,24,-1
 589 1530 l 1,25,-1
 589 1443 l 1,26,27
 485 1433 485 1433 451 1399 c 0,28,29
 418 1366 418 1366 418 1282.5 c 128,-1,30
 418 1199 418 1199 421 1131.5 c 128,-1,31
 424 1064 424 1064 435.5 1003 c 128,-1,32
 447 942 447 942 469.5 887 c 128,-1,33
 492 832 492 832 530 782 c 0,34,35
 610 679 610 679 766 599 c 1,36,37
 993 717 993 717 1061 887 c 0,38,39
 1103 991 1103 991 1107.5 1095 c 128,-1,40
 1112 1199 1112 1199 1112 1259.5 c 128,-1,41
 1112 1320 1112 1320 1104.5 1350 c 128,-1,42
 1097 1380 1097 1380 1078 1399 c 0,43,44
 1044 1433 1044 1433 942 1443 c 1,45,-1
 942 1530 l 1,46,-1
 1453 1530 l 1,47,-1
 1453 1443 l 1,48,49
 1358 1431 1358 1431 1334 1398 c 0,50,51
 1313 1369 1313 1369 1313 1255 c 0,0,1
482 1692 m 1,52,-1
 934 1970 l 1,53,-1
 1048 1752 l 1,54,-1
 514 1602 l 1,55,-1
 482 1692 l 1,52,-1
EndSplineSet
EndChar

StartChar: Thorn
Encoding: 222 222 179
Width: 1361
GlyphClass: 2
Flags: W
LayerCount: 2
Fore
SplineSet
629 475 m 1,0,1
 683 467 683 467 745.5 467 c 128,-1,2
 808 467 808 467 861.5 491.5 c 128,-1,3
 915 516 915 516 950 560 c 0,4,5
 1021 649 1021 649 1021 807 c 0,6,7
 1021 949 1021 949 972 1024 c 0,8,9
 905 1125 905 1125 733 1125 c 0,10,11
 499 1125 499 1125 470 984 c 0,12,13
 461 943 461 943 461 898 c 2,14,-1
 461 264 l 2,15,16
 461 206 461 206 467 174 c 128,-1,17
 473 142 473 142 493 125 c 128,-1,18
 513 108 513 108 551.5 101.5 c 128,-1,19
 590 95 590 95 655 88 c 2,20,-1
 709 82 l 1,21,-1
 709 -1 l 1,22,-1
 86 -1 l 1,23,-1
 86 82 l 1,24,-1
 121 87 l 2,25,26
 164 93 164 93 191 99.5 c 128,-1,27
 218 106 218 106 233 124 c 0,28,29
 259 154 259 154 259 264 c 2,30,-1
 259 1267 l 2,31,32
 259 1382 259 1382 235 1404.5 c 128,-1,33
 211 1427 211 1427 177 1433.5 c 128,-1,34
 143 1440 143 1440 86 1445 c 1,35,-1
 86 1530 l 1,36,-1
 634 1530 l 1,37,-1
 634 1445 l 1,38,39
 577 1439 577 1439 543 1433 c 128,-1,40
 509 1427 509 1427 491 1410 c 0,41,42
 461 1382 461 1382 461 1267 c 2,43,-1
 461 1198 l 1,44,45
 585 1230 585 1230 713 1230 c 128,-1,46
 841 1230 841 1230 919.5 1212.5 c 128,-1,47
 998 1195 998 1195 1055.5 1165 c 128,-1,48
 1113 1135 1113 1135 1152 1094.5 c 128,-1,49
 1191 1054 1191 1054 1214 1008 c 0,50,51
 1258 924 1258 924 1258 828.5 c 128,-1,52
 1258 733 1258 733 1230.5 651 c 128,-1,53
 1203 569 1203 569 1142 506 c 0,54,55
 1006 364 1006 364 753 364 c 0,56,57
 685 364 685 364 613 382 c 1,58,-1
 629 475 l 1,0,1
EndSplineSet
EndChar

StartChar: germandbls
Encoding: 223 223 180
Width: 1529
GlyphClass: 2
Flags: W
LayerCount: 2
Fore
SplineSet
729 1602 m 0,0,1
 470 1602 470 1602 470 1233 c 2,2,-1
 470 0 l 1,3,-1
 89 0 l 1,4,-1
 89 84 l 1,5,6
 201 92 201 92 227 113 c 128,-1,7
 253 134 253 134 259 161 c 128,-1,8
 265 188 265 188 265 230 c 2,9,-1
 265 1185 l 2,10,11
 265 1473 265 1473 401 1603 c 0,12,13
 514 1711 514 1711 725 1711 c 0,14,15
 1007 1711 1007 1711 1114 1534 c 0,16,17
 1152 1470 1152 1470 1152 1409.5 c 128,-1,18
 1152 1349 1152 1349 1135.5 1303 c 128,-1,19
 1119 1257 1119 1257 1094 1219 c 128,-1,20
 1069 1181 1069 1181 1040 1150 c 2,21,22
 1040 1150 1040 1150 985 1091 c 1,23,24
 927 1026 927 1026 927 988 c 128,-1,25
 927 950 927 950 941 926 c 128,-1,26
 955 902 955 902 977.5 880.5 c 128,-1,27
 1000 859 1000 859 1028 838 c 0,28,29
 1155 747 1155 747 1218 697 c 128,-1,30
 1281 647 1281 647 1326 594 c 1,31,32
 1420 480 1420 480 1420 336 c 0,33,34
 1420 166 1420 166 1293 67 c 0,35,36
 1177 -23 1177 -23 998 -23 c 0,37,38
 843 -23 843 -23 745 46 c 0,39,40
 651 111 651 111 651 205 c 0,41,42
 651 268 651 268 704 323 c 1,43,44
 752 371 752 371 806 385 c 1,45,-1
 858 325 l 1,46,47
 825 294 825 294 825 212 c 0,48,49
 825 164 825 164 883 124 c 0,50,51
 944 83 944 83 1007.5 83 c 128,-1,52
 1071 83 1071 83 1108.5 95 c 128,-1,53
 1146 107 1146 107 1173 132 c 0,54,55
 1229 185 1229 185 1229 292 c 0,56,57
 1229 402 1229 402 1134 490 c 0,58,59
 1091 530 1091 530 1034.5 568 c 128,-1,60
 978 606 978 606 930.5 643 c 128,-1,61
 883 680 883 680 852.5 710 c 128,-1,62
 822 740 822 740 800 774 c 0,63,64
 751 849 751 849 751 920 c 128,-1,65
 751 991 751 991 766 1026 c 128,-1,66
 781 1061 781 1061 804 1086.5 c 128,-1,67
 827 1112 827 1112 853 1133.5 c 128,-1,68
 879 1155 879 1155 902 1184 c 0,69,70
 955 1252 955 1252 955 1367 c 0,71,72
 955 1467 955 1467 895 1533 c 0,73,74
 832 1602 832 1602 729 1602 c 0,0,1
EndSplineSet
EndChar

StartChar: agrave
Encoding: 224 224 181
Width: 1360
GlyphClass: 2
Flags: W
LayerCount: 2
Fore
SplineSet
446 1022 m 0,0,1
 429 991 429 991 429 950.5 c 128,-1,2
 429 910 429 910 467 853 c 1,3,-1
 399 812 l 1,4,5
 281 832 281 832 228 911 c 0,6,7
 209 938 209 938 209 981 c 128,-1,8
 209 1024 209 1024 244 1070.5 c 128,-1,9
 279 1117 279 1117 342 1152 c 0,10,11
 480 1228 480 1228 690 1228 c 0,12,13
 1032 1228 1032 1228 1115 1030 c 0,14,15
 1141 968 1141 968 1141 893 c 2,16,-1
 1141 266 l 2,17,18
 1141 150 1141 150 1163 126.5 c 128,-1,19
 1185 103 1185 103 1216.5 96 c 128,-1,20
 1248 89 1248 89 1301 84 c 1,21,-1
 1301 0 l 1,22,-1
 1053 0 l 2,23,24
 979 0 979 0 884 -8 c 0,25,26
 689 -26 689 -26 584 -26 c 128,-1,27
 479 -26 479 -26 399 2 c 128,-1,28
 319 30 319 30 268 76 c 0,29,30
 169 165 169 165 169 303 c 0,31,32
 169 452 169 452 342 578 c 1,33,34
 550 732 550 732 939 740 c 1,35,-1
 939 915 l 2,36,37
 939 1123 939 1123 662 1123 c 0,38,39
 504 1123 504 1123 446 1022 c 0,0,1
939 636 m 1,40,-1
 941 636 l 1,41,-1
 939 637 l 1,42,-1
 939 636 l 1,40,-1
939 636 m 1,43,44
 398 604 398 604 398 303 c 0,45,46
 398 144 398 144 559 98 c 0,47,48
 609 83 609 83 684 83 c 128,-1,49
 759 83 759 83 811.5 91.5 c 128,-1,50
 864 100 864 100 892.5 122 c 128,-1,51
 921 144 921 144 930 182.5 c 128,-1,52
 939 221 939 221 939 282 c 2,53,-1
 939 636 l 1,43,44
389 1736 m 1,54,-1
 590 1870 l 1,55,-1
 843 1404 l 1,56,-1
 754 1349 l 1,57,-1
 389 1736 l 1,54,-1
EndSplineSet
EndChar

StartChar: aacute
Encoding: 225 225 182
Width: 1360
GlyphClass: 2
Flags: W
LayerCount: 2
Fore
SplineSet
446 1022 m 0,0,1
 429 991 429 991 429 950.5 c 128,-1,2
 429 910 429 910 467 853 c 1,3,-1
 399 812 l 1,4,5
 281 832 281 832 228 911 c 0,6,7
 209 938 209 938 209 981 c 128,-1,8
 209 1024 209 1024 244 1070.5 c 128,-1,9
 279 1117 279 1117 342 1152 c 0,10,11
 480 1228 480 1228 690 1228 c 0,12,13
 1032 1228 1032 1228 1115 1030 c 0,14,15
 1141 968 1141 968 1141 893 c 2,16,-1
 1141 266 l 2,17,18
 1141 150 1141 150 1163 126.5 c 128,-1,19
 1185 103 1185 103 1216.5 96 c 128,-1,20
 1248 89 1248 89 1301 84 c 1,21,-1
 1301 0 l 1,22,-1
 1053 0 l 2,23,24
 979 0 979 0 884 -8 c 0,25,26
 689 -26 689 -26 584 -26 c 128,-1,27
 479 -26 479 -26 399 2 c 128,-1,28
 319 30 319 30 268 76 c 0,29,30
 169 165 169 165 169 303 c 0,31,32
 169 452 169 452 342 578 c 1,33,34
 550 732 550 732 939 740 c 1,35,-1
 939 915 l 2,36,37
 939 1123 939 1123 662 1123 c 0,38,39
 504 1123 504 1123 446 1022 c 0,0,1
939 636 m 1,40,-1
 941 636 l 1,41,-1
 939 637 l 1,42,-1
 939 636 l 1,40,-1
939 636 m 1,43,44
 398 604 398 604 398 303 c 0,45,46
 398 144 398 144 559 98 c 0,47,48
 609 83 609 83 684 83 c 128,-1,49
 759 83 759 83 811.5 91.5 c 128,-1,50
 864 100 864 100 892.5 122 c 128,-1,51
 921 144 921 144 930 182.5 c 128,-1,52
 939 221 939 221 939 282 c 2,53,-1
 939 636 l 1,43,44
534 1414 m 1,54,-1
 787 1880 l 1,55,-1
 997 1746 l 1,56,-1
 632 1359 l 1,57,-1
 534 1414 l 1,54,-1
EndSplineSet
EndChar

StartChar: acircumflex
Encoding: 226 226 183
Width: 1360
GlyphClass: 2
Flags: W
LayerCount: 2
Fore
SplineSet
446 1022 m 0,0,1
 429 991 429 991 429 950.5 c 128,-1,2
 429 910 429 910 467 853 c 1,3,-1
 399 812 l 1,4,5
 281 832 281 832 228 911 c 0,6,7
 209 938 209 938 209 981 c 128,-1,8
 209 1024 209 1024 244 1070.5 c 128,-1,9
 279 1117 279 1117 342 1152 c 0,10,11
 480 1228 480 1228 690 1228 c 0,12,13
 1032 1228 1032 1228 1115 1030 c 0,14,15
 1141 968 1141 968 1141 893 c 2,16,-1
 1141 266 l 2,17,18
 1141 150 1141 150 1163 126.5 c 128,-1,19
 1185 103 1185 103 1216.5 96 c 128,-1,20
 1248 89 1248 89 1301 84 c 1,21,-1
 1301 0 l 1,22,-1
 1053 0 l 2,23,24
 979 0 979 0 884 -8 c 0,25,26
 689 -26 689 -26 584 -26 c 128,-1,27
 479 -26 479 -26 399 2 c 128,-1,28
 319 30 319 30 268 76 c 0,29,30
 169 165 169 165 169 303 c 0,31,32
 169 452 169 452 342 578 c 1,33,34
 550 732 550 732 939 740 c 1,35,-1
 939 915 l 2,36,37
 939 1123 939 1123 662 1123 c 0,38,39
 504 1123 504 1123 446 1022 c 0,0,1
939 636 m 1,40,-1
 941 636 l 1,41,-1
 939 637 l 1,42,-1
 939 636 l 1,40,-1
939 636 m 1,43,44
 398 604 398 604 398 303 c 0,45,46
 398 144 398 144 559 98 c 0,47,48
 609 83 609 83 684 83 c 128,-1,49
 759 83 759 83 811.5 91.5 c 128,-1,50
 864 100 864 100 892.5 122 c 128,-1,51
 921 144 921 144 930 182.5 c 128,-1,52
 939 221 939 221 939 282 c 2,53,-1
 939 636 l 1,43,44
334 1406 m 1,54,-1
 562 1859 l 1,55,-1
 818 1859 l 1,56,-1
 1044 1406 l 1,57,-1
 959 1364 l 1,58,-1
 689 1706 l 1,59,-1
 419 1364 l 1,60,-1
 334 1406 l 1,54,-1
EndSplineSet
EndChar

StartChar: atilde
Encoding: 227 227 184
Width: 1360
GlyphClass: 2
Flags: W
LayerCount: 2
Fore
SplineSet
446 1022 m 0,0,1
 429 991 429 991 429 950.5 c 128,-1,2
 429 910 429 910 467 853 c 1,3,-1
 399 812 l 1,4,5
 281 832 281 832 228 911 c 0,6,7
 209 938 209 938 209 981 c 128,-1,8
 209 1024 209 1024 244 1070.5 c 128,-1,9
 279 1117 279 1117 342 1152 c 0,10,11
 480 1228 480 1228 690 1228 c 0,12,13
 1032 1228 1032 1228 1115 1030 c 0,14,15
 1141 968 1141 968 1141 893 c 2,16,-1
 1141 266 l 2,17,18
 1141 150 1141 150 1163 126.5 c 128,-1,19
 1185 103 1185 103 1216.5 96 c 128,-1,20
 1248 89 1248 89 1301 84 c 1,21,-1
 1301 0 l 1,22,-1
 1053 0 l 2,23,24
 979 0 979 0 884 -8 c 0,25,26
 689 -26 689 -26 584 -26 c 128,-1,27
 479 -26 479 -26 399 2 c 128,-1,28
 319 30 319 30 268 76 c 0,29,30
 169 165 169 165 169 303 c 0,31,32
 169 452 169 452 342 578 c 1,33,34
 550 732 550 732 939 740 c 1,35,-1
 939 915 l 2,36,37
 939 1123 939 1123 662 1123 c 0,38,39
 504 1123 504 1123 446 1022 c 0,0,1
939 636 m 1,40,-1
 941 636 l 1,41,-1
 939 637 l 1,42,-1
 939 636 l 1,40,-1
939 636 m 1,43,44
 398 604 398 604 398 303 c 0,45,46
 398 144 398 144 559 98 c 0,47,48
 609 83 609 83 684 83 c 128,-1,49
 759 83 759 83 811.5 91.5 c 128,-1,50
 864 100 864 100 892.5 122 c 128,-1,51
 921 144 921 144 930 182.5 c 128,-1,52
 939 221 939 221 939 282 c 2,53,-1
 939 636 l 1,43,44
297 1438 m 1,54,55
 292 1470 292 1470 292 1504 c 128,-1,56
 292 1538 292 1538 312.5 1581.5 c 128,-1,57
 333 1625 333 1625 367 1657 c 0,58,59
 439 1725 439 1725 538 1725 c 0,60,61
 626 1725 626 1725 717 1649 c 128,-1,62
 808 1573 808 1573 863 1573 c 0,63,64
 910 1573 910 1573 932 1596 c 0,65,66
 974 1639 974 1639 968 1691 c 1,67,-1
 1081 1691 l 1,68,69
 1086 1658 1086 1658 1086 1624.5 c 128,-1,70
 1086 1591 1086 1591 1065.5 1547.5 c 128,-1,71
 1045 1504 1045 1504 1010 1472 c 0,72,73
 937 1404 937 1404 839 1404 c 0,74,75
 773 1404 773 1404 732 1432 c 128,-1,76
 691 1460 691 1460 669 1479.5 c 128,-1,77
 647 1499 647 1499 625 1516 c 0,78,79
 575 1555 575 1555 539 1555 c 128,-1,80
 503 1555 503 1555 481.5 1547 c 128,-1,81
 460 1539 460 1539 443 1524 c 0,82,83
 404 1488 404 1488 410 1438 c 1,84,-1
 297 1438 l 1,54,55
EndSplineSet
EndChar

StartChar: adieresis
Encoding: 228 228 185
Width: 1360
GlyphClass: 2
Flags: W
LayerCount: 2
Fore
SplineSet
446 1022 m 0,0,1
 429 991 429 991 429 950.5 c 128,-1,2
 429 910 429 910 467 853 c 1,3,-1
 399 812 l 1,4,5
 281 832 281 832 228 911 c 0,6,7
 209 938 209 938 209 981 c 128,-1,8
 209 1024 209 1024 244 1070.5 c 128,-1,9
 279 1117 279 1117 342 1152 c 0,10,11
 480 1228 480 1228 690 1228 c 0,12,13
 1032 1228 1032 1228 1115 1030 c 0,14,15
 1141 968 1141 968 1141 893 c 2,16,-1
 1141 266 l 2,17,18
 1141 150 1141 150 1163 126.5 c 128,-1,19
 1185 103 1185 103 1216.5 96 c 128,-1,20
 1248 89 1248 89 1301 84 c 1,21,-1
 1301 0 l 1,22,-1
 1053 0 l 2,23,24
 979 0 979 0 884 -8 c 0,25,26
 689 -26 689 -26 584 -26 c 128,-1,27
 479 -26 479 -26 399 2 c 128,-1,28
 319 30 319 30 268 76 c 0,29,30
 169 165 169 165 169 303 c 0,31,32
 169 452 169 452 342 578 c 1,33,34
 550 732 550 732 939 740 c 1,35,-1
 939 915 l 2,36,37
 939 1123 939 1123 662 1123 c 0,38,39
 504 1123 504 1123 446 1022 c 0,0,1
939 636 m 1,40,-1
 941 636 l 1,41,-1
 939 637 l 1,42,-1
 939 636 l 1,40,-1
939 636 m 1,43,44
 398 604 398 604 398 303 c 0,45,46
 398 144 398 144 559 98 c 0,47,48
 609 83 609 83 684 83 c 128,-1,49
 759 83 759 83 811.5 91.5 c 128,-1,50
 864 100 864 100 892.5 122 c 128,-1,51
 921 144 921 144 930 182.5 c 128,-1,52
 939 221 939 221 939 282 c 2,53,-1
 939 636 l 1,43,44
743 1612 m 1,54,-1
 926 1791 l 1,55,-1
 1105 1612 l 1,56,-1
 926 1432 l 1,57,-1
 743 1612 l 1,54,-1
273 1612 m 1,58,-1
 456 1791 l 1,59,-1
 635 1612 l 1,60,-1
 456 1432 l 1,61,-1
 273 1612 l 1,58,-1
EndSplineSet
EndChar

StartChar: aring
Encoding: 229 229 186
Width: 1360
GlyphClass: 2
Flags: W
LayerCount: 2
Fore
SplineSet
446 1022 m 0,0,1
 429 991 429 991 429 950.5 c 128,-1,2
 429 910 429 910 467 853 c 1,3,-1
 399 812 l 1,4,5
 281 832 281 832 228 911 c 0,6,7
 209 938 209 938 209 981 c 128,-1,8
 209 1024 209 1024 244 1070.5 c 128,-1,9
 279 1117 279 1117 342 1152 c 0,10,11
 480 1228 480 1228 690 1228 c 0,12,13
 1032 1228 1032 1228 1115 1030 c 0,14,15
 1141 968 1141 968 1141 893 c 2,16,-1
 1141 266 l 2,17,18
 1141 150 1141 150 1163 126.5 c 128,-1,19
 1185 103 1185 103 1216.5 96 c 128,-1,20
 1248 89 1248 89 1301 84 c 1,21,-1
 1301 0 l 1,22,-1
 1053 0 l 2,23,24
 979 0 979 0 884 -8 c 0,25,26
 689 -26 689 -26 584 -26 c 128,-1,27
 479 -26 479 -26 399 2 c 128,-1,28
 319 30 319 30 268 76 c 0,29,30
 169 165 169 165 169 303 c 0,31,32
 169 452 169 452 342 578 c 1,33,34
 550 732 550 732 939 740 c 1,35,-1
 939 915 l 2,36,37
 939 1123 939 1123 662 1123 c 0,38,39
 504 1123 504 1123 446 1022 c 0,0,1
939 636 m 1,40,-1
 941 636 l 1,41,-1
 939 637 l 1,42,-1
 939 636 l 1,40,-1
939 636 m 1,43,44
 398 604 398 604 398 303 c 0,45,46
 398 144 398 144 559 98 c 0,47,48
 609 83 609 83 684 83 c 128,-1,49
 759 83 759 83 811.5 91.5 c 128,-1,50
 864 100 864 100 892.5 122 c 128,-1,51
 921 144 921 144 930 182.5 c 128,-1,52
 939 221 939 221 939 282 c 2,53,-1
 939 636 l 1,43,44
689 1360 m 0,54,55
 568 1360 568 1360 489 1424 c 0,56,57
 401 1496 401 1496 401 1618 c 0,58,59
 401 1739 401 1739 489 1808 c 0,60,61
 570 1872 570 1872 689 1872 c 256,62,63
 808 1872 808 1872 890 1808 c 0,64,65
 978 1740 978 1740 978 1618 c 256,66,67
 978 1496 978 1496 890 1424 c 1,68,69
 809 1360 809 1360 689 1360 c 0,54,55
689 1459 m 0,70,71
 758 1459 758 1459 792 1488 c 0,72,73
 854 1541 854 1541 854 1613 c 0,74,75
 854 1684 854 1684 803 1728 c 0,76,77
 758 1766 758 1766 689 1766 c 0,78,79
 579 1766 579 1766 538 1680 c 0,80,81
 525 1651 525 1651 525 1612.5 c 128,-1,82
 525 1574 525 1574 538.5 1545.5 c 128,-1,83
 552 1517 552 1517 574 1498 c 0,84,85
 619 1459 619 1459 689 1459 c 0,70,71
EndSplineSet
EndChar

StartChar: ae
Encoding: 230 230 187
Width: 2046
GlyphClass: 2
Flags: W
LayerCount: 2
Fore
SplineSet
1919 141 m 1,0,1
 1789 -20 1789 -20 1502.5 -20 c 128,-1,2
 1216 -20 1216 -20 1070 185 c 1,3,4
 1003 83 1003 83 848 27 c 0,5,6
 720 -20 720 -20 585 -20 c 128,-1,7
 450 -20 450 -20 370 8.5 c 128,-1,8
 290 37 290 37 239 84 c 0,9,10
 141 174 141 174 141 313 c 0,11,12
 141 462 141 462 318 584 c 0,13,14
 533 732 533 732 937 740 c 1,15,-1
 937 915 l 2,16,17
 937 1015 937 1015 867.5 1073 c 128,-1,18
 798 1131 798 1131 643 1131 c 0,19,20
 485 1131 485 1131 428 1024 c 0,21,22
 410 991 410 991 410 950.5 c 128,-1,23
 410 910 410 910 448 853 c 1,24,-1
 380 812 l 1,25,26
 264 832 264 832 210 911 c 0,27,28
 191 938 191 938 191 981 c 128,-1,29
 191 1024 191 1024 226 1070.5 c 128,-1,30
 261 1117 261 1117 324 1152 c 0,31,32
 462 1228 462 1228 672 1228 c 0,33,34
 986 1228 986 1228 1092 1052 c 1,35,36
 1165 1135 1165 1135 1277.5 1181.5 c 128,-1,37
 1390 1228 1390 1228 1500.5 1228 c 128,-1,38
 1611 1228 1611 1228 1682 1208.5 c 128,-1,39
 1753 1189 1753 1189 1804 1153 c 0,40,41
 1912 1077 1912 1077 1912 952 c 0,42,43
 1912 781 1912 781 1748 662 c 0,44,45
 1554 522 1554 522 1164 519 c 1,46,47
 1164 382 1164 382 1252 252 c 1,48,49
 1360 90 1360 90 1548 90 c 128,-1,50
 1736 90 1736 90 1862 198 c 1,51,-1
 1919 141 l 1,0,1
1164 626 m 1,52,53
 1518 633 1518 633 1648 811 c 0,54,55
 1694 874 1694 874 1694 964 c 0,56,57
 1694 1070 1694 1070 1586 1114 c 0,58,59
 1549 1130 1549 1130 1480 1130 c 128,-1,60
 1411 1130 1411 1130 1348.5 1088 c 128,-1,61
 1286 1046 1286 1046 1245 976 c 0,62,63
 1164 838 1164 838 1164 626 c 1,52,53
417 462 m 0,64,65
 369 403 369 403 369 331 c 128,-1,66
 369 259 369 259 388.5 216 c 128,-1,67
 408 173 408 173 444 143 c 0,68,69
 520 80 520 80 643 80 c 256,70,71
 766 80 766 80 850 158 c 0,72,73
 937 238 937 238 937 360 c 2,74,-1
 937 636 l 1,75,76
 539 614 539 614 417 462 c 0,64,65
EndSplineSet
EndChar

StartChar: ccedilla
Encoding: 231 231 188
Width: 1195
GlyphClass: 2
Flags: W
LayerCount: 2
Fore
SplineSet
677 -351 m 0,0,1
 677 -220 677 -220 467 -220 c 1,2,-1
 546 -17 l 1,3,4
 329 18 329 18 202 200 c 1,5,6
 85 370 85 370 85 608 c 0,7,8
 85 879 85 879 228 1056 c 0,9,10
 382 1245 382 1245 642 1245 c 0,11,12
 770 1245 770 1245 889 1194 c 0,13,14
 907 1186 907 1186 915 1185 c 1,15,16
 980 1202 980 1202 992 1266 c 1,17,-1
 1071 1266 l 1,18,-1
 1071 838 l 1,19,-1
 988 838 l 1,20,21
 934 1139 934 1139 657 1139 c 0,22,23
 479 1139 479 1139 390 974 c 1,24,25
 313 834 313 834 313 606 c 0,26,27
 313 215 313 215 550 124 c 0,28,29
 603 104 603 104 673 104 c 0,30,31
 871 104 871 104 1038 233 c 1,32,-1
 1095 178 l 1,33,34
 987 45 987 45 788 -4 c 0,35,36
 726 -20 726 -20 663 -23 c 1,37,-1
 624 -127 l 1,38,39
 729 -125 729 -125 804 -175 c 0,40,41
 884 -228 884 -228 884 -318 c 0,42,43
 884 -392 884 -392 822 -458 c 0,44,45
 745 -539 745 -539 607 -575 c 0,46,47
 569 -585 569 -585 538 -587 c 1,48,-1
 481 -504 l 1,49,50
 572 -482 572 -482 624.5 -442 c 128,-1,51
 677 -402 677 -402 677 -351 c 0,0,1
EndSplineSet
EndChar

StartChar: egrave
Encoding: 232 232 189
Width: 1195
GlyphClass: 2
Flags: W
LayerCount: 2
Fore
SplineSet
1068 149 m 1,0,1
 931 -20 931 -20 657 -20 c 0,2,3
 393 -20 393 -20 244 151 c 0,4,5
 101 316 101 316 101 587 c 0,6,7
 101 866 101 866 260 1048 c 0,8,9
 418 1228 418 1228 665 1228 c 0,10,11
 854 1228 854 1228 960 1148 c 0,12,13
 1061 1073 1061 1073 1061 942 c 0,14,15
 1061 773 1061 773 897 657 c 0,16,17
 706 522 706 522 319 519 c 1,18,19
 354 110 354 110 689 110 c 0,20,21
 899 110 899 110 1011 206 c 1,22,-1
 1068 149 l 1,0,1
316 626 m 1,23,24
 672 633 672 633 798 795 c 0,25,26
 844 855 844 855 844 944 c 0,27,28
 844 1060 844 1060 744 1104 c 0,29,30
 705 1121 705 1121 647 1121 c 128,-1,31
 589 1121 589 1121 544 1100.5 c 128,-1,32
 499 1080 499 1080 463 1044.5 c 128,-1,33
 427 1009 427 1009 400 961.5 c 128,-1,34
 373 914 373 914 355 859 c 0,35,36
 318 746 318 746 316 626 c 1,23,24
358 1736 m 1,37,-1
 559 1870 l 1,38,-1
 812 1404 l 1,39,-1
 723 1349 l 1,40,-1
 358 1736 l 1,37,-1
EndSplineSet
EndChar

StartChar: eacute
Encoding: 233 233 190
Width: 1195
GlyphClass: 2
Flags: W
LayerCount: 2
Fore
SplineSet
1068 149 m 1,0,1
 931 -20 931 -20 657 -20 c 0,2,3
 393 -20 393 -20 244 151 c 0,4,5
 101 316 101 316 101 587 c 0,6,7
 101 866 101 866 260 1048 c 0,8,9
 418 1228 418 1228 665 1228 c 0,10,11
 854 1228 854 1228 960 1148 c 0,12,13
 1061 1073 1061 1073 1061 942 c 0,14,15
 1061 773 1061 773 897 657 c 0,16,17
 706 522 706 522 319 519 c 1,18,19
 354 110 354 110 689 110 c 0,20,21
 899 110 899 110 1011 206 c 1,22,-1
 1068 149 l 1,0,1
316 626 m 1,23,24
 672 633 672 633 798 795 c 0,25,26
 844 855 844 855 844 944 c 0,27,28
 844 1060 844 1060 744 1104 c 0,29,30
 705 1121 705 1121 647 1121 c 128,-1,31
 589 1121 589 1121 544 1100.5 c 128,-1,32
 499 1080 499 1080 463 1044.5 c 128,-1,33
 427 1009 427 1009 400 961.5 c 128,-1,34
 373 914 373 914 355 859 c 0,35,36
 318 746 318 746 316 626 c 1,23,24
503 1414 m 1,37,-1
 756 1880 l 1,38,-1
 966 1746 l 1,39,-1
 601 1359 l 1,40,-1
 503 1414 l 1,37,-1
EndSplineSet
EndChar

StartChar: ecircumflex
Encoding: 234 234 191
Width: 1195
GlyphClass: 2
Flags: W
LayerCount: 2
Fore
SplineSet
1068 149 m 1,0,1
 931 -20 931 -20 657 -20 c 0,2,3
 393 -20 393 -20 244 151 c 0,4,5
 101 316 101 316 101 587 c 0,6,7
 101 866 101 866 260 1048 c 0,8,9
 418 1228 418 1228 665 1228 c 0,10,11
 854 1228 854 1228 960 1148 c 0,12,13
 1061 1073 1061 1073 1061 942 c 0,14,15
 1061 773 1061 773 897 657 c 0,16,17
 706 522 706 522 319 519 c 1,18,19
 354 110 354 110 689 110 c 0,20,21
 899 110 899 110 1011 206 c 1,22,-1
 1068 149 l 1,0,1
316 626 m 1,23,24
 672 633 672 633 798 795 c 0,25,26
 844 855 844 855 844 944 c 0,27,28
 844 1060 844 1060 744 1104 c 0,29,30
 705 1121 705 1121 647 1121 c 128,-1,31
 589 1121 589 1121 544 1100.5 c 128,-1,32
 499 1080 499 1080 463 1044.5 c 128,-1,33
 427 1009 427 1009 400 961.5 c 128,-1,34
 373 914 373 914 355 859 c 0,35,36
 318 746 318 746 316 626 c 1,23,24
303 1406 m 1,37,-1
 531 1859 l 1,38,-1
 787 1859 l 1,39,-1
 1013 1406 l 1,40,-1
 928 1364 l 1,41,-1
 658 1706 l 1,42,-1
 388 1364 l 1,43,-1
 303 1406 l 1,37,-1
EndSplineSet
EndChar

StartChar: edieresis
Encoding: 235 235 192
Width: 1195
GlyphClass: 2
Flags: W
LayerCount: 2
Fore
SplineSet
1068 149 m 1,0,1
 931 -20 931 -20 657 -20 c 0,2,3
 393 -20 393 -20 244 151 c 0,4,5
 101 316 101 316 101 587 c 0,6,7
 101 866 101 866 260 1048 c 0,8,9
 418 1228 418 1228 665 1228 c 0,10,11
 854 1228 854 1228 960 1148 c 0,12,13
 1061 1073 1061 1073 1061 942 c 0,14,15
 1061 773 1061 773 897 657 c 0,16,17
 706 522 706 522 319 519 c 1,18,19
 354 110 354 110 689 110 c 0,20,21
 899 110 899 110 1011 206 c 1,22,-1
 1068 149 l 1,0,1
316 626 m 1,23,24
 672 633 672 633 798 795 c 0,25,26
 844 855 844 855 844 944 c 0,27,28
 844 1060 844 1060 744 1104 c 0,29,30
 705 1121 705 1121 647 1121 c 128,-1,31
 589 1121 589 1121 544 1100.5 c 128,-1,32
 499 1080 499 1080 463 1044.5 c 128,-1,33
 427 1009 427 1009 400 961.5 c 128,-1,34
 373 914 373 914 355 859 c 0,35,36
 318 746 318 746 316 626 c 1,23,24
712 1612 m 1,37,-1
 895 1791 l 1,38,-1
 1074 1612 l 1,39,-1
 895 1432 l 1,40,-1
 712 1612 l 1,37,-1
242 1612 m 1,41,-1
 425 1791 l 1,42,-1
 604 1612 l 1,43,-1
 425 1432 l 1,44,-1
 242 1612 l 1,41,-1
EndSplineSet
EndChar

StartChar: igrave
Encoding: 236 236 193
Width: 680
GlyphClass: 2
Flags: W
LayerCount: 2
Fore
SplineSet
85 83 m 1,0,-1
 120 88 l 2,1,2
 163 94 163 94 190 100.5 c 128,-1,3
 217 107 217 107 232 124 c 0,4,5
 258 155 258 155 258 266 c 2,6,-1
 258 944 l 2,7,8
 258 1058 258 1058 234 1081.5 c 128,-1,9
 210 1105 210 1105 176 1111 c 128,-1,10
 142 1117 142 1117 85 1122 c 1,11,-1
 85 1208 l 1,12,-1
 632 1208 l 1,13,-1
 632 1122 l 1,14,15
 575 1116 575 1116 541 1110 c 128,-1,16
 507 1104 507 1104 489 1087 c 0,17,18
 460 1060 460 1060 460 944 c 2,19,-1
 460 266 l 2,20,21
 460 152 460 152 478 131 c 128,-1,22
 496 110 496 110 522.5 103 c 128,-1,23
 549 96 549 96 593 89 c 2,24,-1
 632 83 l 1,25,-1
 632 0 l 1,26,-1
 85 0 l 1,27,-1
 85 83 l 1,0,-1
59 1736 m 1,28,-1
 260 1870 l 1,29,-1
 513 1404 l 1,30,-1
 424 1349 l 1,31,-1
 59 1736 l 1,28,-1
EndSplineSet
EndChar

StartChar: iacute
Encoding: 237 237 194
Width: 680
GlyphClass: 2
Flags: W
LayerCount: 2
Fore
SplineSet
85 83 m 1,0,-1
 120 88 l 2,1,2
 163 94 163 94 190 100.5 c 128,-1,3
 217 107 217 107 232 124 c 0,4,5
 258 155 258 155 258 266 c 2,6,-1
 258 944 l 2,7,8
 258 1058 258 1058 234 1081.5 c 128,-1,9
 210 1105 210 1105 176 1111 c 128,-1,10
 142 1117 142 1117 85 1122 c 1,11,-1
 85 1208 l 1,12,-1
 632 1208 l 1,13,-1
 632 1122 l 1,14,15
 575 1116 575 1116 541 1110 c 128,-1,16
 507 1104 507 1104 489 1087 c 0,17,18
 460 1060 460 1060 460 944 c 2,19,-1
 460 266 l 2,20,21
 460 152 460 152 478 131 c 128,-1,22
 496 110 496 110 522.5 103 c 128,-1,23
 549 96 549 96 593 89 c 2,24,-1
 632 83 l 1,25,-1
 632 0 l 1,26,-1
 85 0 l 1,27,-1
 85 83 l 1,0,-1
204 1414 m 1,28,-1
 457 1880 l 1,29,-1
 667 1746 l 1,30,-1
 302 1359 l 1,31,-1
 204 1414 l 1,28,-1
EndSplineSet
EndChar

StartChar: icircumflex
Encoding: 238 238 195
Width: 680
GlyphClass: 2
Flags: W
LayerCount: 2
Fore
SplineSet
85 83 m 1,0,-1
 120 88 l 2,1,2
 163 94 163 94 190 100.5 c 128,-1,3
 217 107 217 107 232 124 c 0,4,5
 258 155 258 155 258 266 c 2,6,-1
 258 944 l 2,7,8
 258 1058 258 1058 234 1081.5 c 128,-1,9
 210 1105 210 1105 176 1111 c 128,-1,10
 142 1117 142 1117 85 1122 c 1,11,-1
 85 1208 l 1,12,-1
 632 1208 l 1,13,-1
 632 1122 l 1,14,15
 575 1116 575 1116 541 1110 c 128,-1,16
 507 1104 507 1104 489 1087 c 0,17,18
 460 1060 460 1060 460 944 c 2,19,-1
 460 266 l 2,20,21
 460 152 460 152 478 131 c 128,-1,22
 496 110 496 110 522.5 103 c 128,-1,23
 549 96 549 96 593 89 c 2,24,-1
 632 83 l 1,25,-1
 632 0 l 1,26,-1
 85 0 l 1,27,-1
 85 83 l 1,0,-1
4 1406 m 1,28,-1
 232 1859 l 1,29,-1
 488 1859 l 1,30,-1
 714 1406 l 1,31,-1
 629 1364 l 1,32,-1
 359 1706 l 1,33,-1
 89 1364 l 1,34,-1
 4 1406 l 1,28,-1
EndSplineSet
EndChar

StartChar: idieresis
Encoding: 239 239 196
Width: 680
GlyphClass: 2
Flags: W
LayerCount: 2
Fore
SplineSet
85 83 m 1,0,-1
 120 88 l 2,1,2
 163 94 163 94 190 100.5 c 128,-1,3
 217 107 217 107 232 124 c 0,4,5
 258 155 258 155 258 266 c 2,6,-1
 258 944 l 2,7,8
 258 1058 258 1058 234 1081.5 c 128,-1,9
 210 1105 210 1105 176 1111 c 128,-1,10
 142 1117 142 1117 85 1122 c 1,11,-1
 85 1208 l 1,12,-1
 632 1208 l 1,13,-1
 632 1122 l 1,14,15
 575 1116 575 1116 541 1110 c 128,-1,16
 507 1104 507 1104 489 1087 c 0,17,18
 460 1060 460 1060 460 944 c 2,19,-1
 460 266 l 2,20,21
 460 152 460 152 478 131 c 128,-1,22
 496 110 496 110 522.5 103 c 128,-1,23
 549 96 549 96 593 89 c 2,24,-1
 632 83 l 1,25,-1
 632 0 l 1,26,-1
 85 0 l 1,27,-1
 85 83 l 1,0,-1
413 1612 m 1,28,-1
 596 1791 l 1,29,-1
 775 1612 l 1,30,-1
 596 1432 l 1,31,-1
 413 1612 l 1,28,-1
-57 1612 m 1,32,-1
 126 1791 l 1,33,-1
 305 1612 l 1,34,-1
 126 1432 l 1,35,-1
 -57 1612 l 1,32,-1
EndSplineSet
EndChar

StartChar: eth
Encoding: 240 240 197
Width: 1366
GlyphClass: 2
Flags: W
LayerCount: 2
Fore
SplineSet
317 1806 m 1,0,1
 544 1772 544 1772 714 1677 c 1,2,-1
 984 1808 l 1,3,-1
 1041 1718 l 1,4,-1
 817 1609 l 1,5,6
 1118 1388 1118 1388 1193 968 c 0,7,8
 1216 838 1216 838 1216 686.5 c 128,-1,9
 1216 535 1216 535 1176 399.5 c 128,-1,10
 1136 264 1136 264 1062 170 c 1,11,12
 910 -27 910 -27 653 -27 c 0,13,14
 407 -27 407 -27 250 166 c 0,15,16
 106 343 106 343 106 584 c 0,17,18
 106 831 106 831 242 1002 c 1,19,20
 392 1193 392 1193 647 1193 c 0,21,22
 829 1193 829 1193 936 1098 c 1,23,24
 854 1397 854 1397 670 1524 c 1,25,-1
 359 1374 l 1,26,-1
 302 1465 l 1,27,-1
 574 1595 l 1,28,29
 453 1670 453 1670 296 1704 c 1,30,-1
 317 1806 l 1,0,1
546 106 m 0,31,32
 594 85 594 85 677 85 c 128,-1,33
 760 85 760 85 825 131 c 128,-1,34
 890 177 890 177 926 260 c 0,35,36
 988 403 988 403 988 711 c 0,37,38
 988 976 988 976 800 1060 c 0,39,40
 741 1086 741 1086 654.5 1086 c 128,-1,41
 568 1086 568 1086 504 1043 c 128,-1,42
 440 1000 440 1000 402 930 c 0,43,44
 335 803 335 803 335 581 c 0,45,46
 335 200 335 200 546 106 c 0,31,32
EndSplineSet
EndChar

StartChar: ntilde
Encoding: 241 241 198
Width: 1538
GlyphClass: 2
Flags: W
LayerCount: 2
Fore
SplineSet
526 1000 m 1,0,1
 617 1181 617 1181 852 1300 c 1,2,3
 1025 1208 1025 1208 1118 1098 c 1,4,5
 1265 921 1265 921 1296 572 c 0,6,7
 1306 452 1306 452 1306 340 c 128,-1,8
 1306 228 1306 228 1310 188 c 128,-1,9
 1314 148 1314 148 1327 127.5 c 128,-1,10
 1340 107 1340 107 1365 100.5 c 128,-1,11
 1390 94 1390 94 1415 90 c 128,-1,12
 1440 86 1440 86 1450.5 85.5 c 128,-1,13
 1461 85 1461 85 1472 83 c 1,14,-1
 1472 0 l 1,15,-1
 925 0 l 1,16,-1
 925 83 l 1,17,18
 982 90 982 90 1016 96.5 c 128,-1,19
 1050 103 1050 103 1068 121 c 0,20,21
 1097 150 1097 150 1097 282 c 2,22,-1
 1097 398 l 2,23,24
 1097 627 1097 627 1086 715.5 c 128,-1,25
 1075 804 1075 804 1058.5 861.5 c 128,-1,26
 1042 919 1042 919 1014 970 c 1,27,28
 959 1066 959 1066 842 1159 c 1,29,30
 526 964 526 964 526 631 c 2,31,-1
 526 292 l 2,32,33
 526 160 526 160 545.5 134 c 128,-1,34
 565 108 565 108 594 100.5 c 128,-1,35
 623 93 623 93 673 86 c 1,36,-1
 699 83 l 1,37,-1
 699 0 l 1,38,-1
 152 0 l 1,39,-1
 152 82 l 1,40,41
 158 85 158 85 167.5 85.5 c 128,-1,42
 177 86 177 86 202.5 89.5 c 128,-1,43
 228 93 228 93 255.5 100 c 128,-1,44
 283 107 283 107 298 124 c 0,45,46
 323 151 323 151 323 260 c 2,47,-1
 323 973 l 2,48,49
 323 1064 323 1064 300 1084.5 c 128,-1,50
 277 1105 277 1105 243 1111.5 c 128,-1,51
 209 1118 209 1118 152 1122 c 1,52,-1
 152 1208 l 1,53,-1
 526 1208 l 1,54,-1
 526 1000 l 1,0,1
458 1438 m 1,55,56
 453 1470 453 1470 453 1504 c 128,-1,57
 453 1538 453 1538 473.5 1581.5 c 128,-1,58
 494 1625 494 1625 528 1657 c 0,59,60
 600 1725 600 1725 699 1725 c 0,61,62
 787 1725 787 1725 878 1649 c 128,-1,63
 969 1573 969 1573 1024 1573 c 0,64,65
 1071 1573 1071 1573 1093 1596 c 0,66,67
 1135 1639 1135 1639 1129 1691 c 1,68,-1
 1242 1691 l 1,69,70
 1247 1658 1247 1658 1247 1624.5 c 128,-1,71
 1247 1591 1247 1591 1226.5 1547.5 c 128,-1,72
 1206 1504 1206 1504 1171 1472 c 0,73,74
 1098 1404 1098 1404 1000 1404 c 0,75,76
 934 1404 934 1404 893 1432 c 128,-1,77
 852 1460 852 1460 830 1479.5 c 128,-1,78
 808 1499 808 1499 786 1516 c 0,79,80
 736 1555 736 1555 700 1555 c 128,-1,81
 664 1555 664 1555 642.5 1547 c 128,-1,82
 621 1539 621 1539 604 1524 c 0,83,84
 565 1488 565 1488 571 1438 c 1,85,-1
 458 1438 l 1,55,56
EndSplineSet
EndChar

StartChar: ograve
Encoding: 242 242 199
Width: 1364
GlyphClass: 2
Flags: W
LayerCount: 2
Fore
SplineSet
121 610 m 0,0,1
 121 688 121 688 136.5 765 c 128,-1,2
 152 842 152 842 183.5 911 c 128,-1,3
 215 980 215 980 262 1038 c 128,-1,4
 309 1096 309 1096 371 1138 c 0,5,6
 504 1228 504 1228 680 1228 c 0,7,8
 946 1228 946 1228 1100 1038 c 0,9,10
 1241 864 1241 864 1241 609 c 0,11,12
 1241 352 1241 352 1100 172 c 0,13,14
 946 -24 946 -24 680 -24 c 0,15,16
 415 -24 415 -24 260 175 c 0,17,18
 121 355 121 355 121 610 c 0,0,1
563 109 m 0,19,20
 614 87 614 87 681.5 87 c 128,-1,21
 749 87 749 87 800 108.5 c 128,-1,22
 851 130 851 130 888 168 c 128,-1,23
 925 206 925 206 949.5 256.5 c 128,-1,24
 974 307 974 307 989 365 c 0,25,26
 1016 469 1016 469 1016 570.5 c 128,-1,27
 1016 672 1016 672 1010 734.5 c 128,-1,28
 1004 797 1004 797 989 853.5 c 128,-1,29
 974 910 974 910 949.5 959 c 128,-1,30
 925 1008 925 1008 888 1044 c 0,31,32
 808 1120 808 1120 682 1120 c 0,33,34
 445 1120 445 1120 376 848 c 0,35,36
 349 745 349 745 349 609 c 0,37,38
 349 201 349 201 563 109 c 0,19,20
381 1736 m 1,39,-1
 582 1870 l 1,40,-1
 835 1404 l 1,41,-1
 746 1349 l 1,42,-1
 381 1736 l 1,39,-1
EndSplineSet
EndChar

StartChar: oacute
Encoding: 243 243 200
Width: 1364
GlyphClass: 2
Flags: W
LayerCount: 2
Fore
SplineSet
121 610 m 0,0,1
 121 688 121 688 136.5 765 c 128,-1,2
 152 842 152 842 183.5 911 c 128,-1,3
 215 980 215 980 262 1038 c 128,-1,4
 309 1096 309 1096 371 1138 c 0,5,6
 504 1228 504 1228 680 1228 c 0,7,8
 946 1228 946 1228 1100 1038 c 0,9,10
 1241 864 1241 864 1241 609 c 0,11,12
 1241 352 1241 352 1100 172 c 0,13,14
 946 -24 946 -24 680 -24 c 0,15,16
 415 -24 415 -24 260 175 c 0,17,18
 121 355 121 355 121 610 c 0,0,1
563 109 m 0,19,20
 614 87 614 87 681.5 87 c 128,-1,21
 749 87 749 87 800 108.5 c 128,-1,22
 851 130 851 130 888 168 c 128,-1,23
 925 206 925 206 949.5 256.5 c 128,-1,24
 974 307 974 307 989 365 c 0,25,26
 1016 469 1016 469 1016 570.5 c 128,-1,27
 1016 672 1016 672 1010 734.5 c 128,-1,28
 1004 797 1004 797 989 853.5 c 128,-1,29
 974 910 974 910 949.5 959 c 128,-1,30
 925 1008 925 1008 888 1044 c 0,31,32
 808 1120 808 1120 682 1120 c 0,33,34
 445 1120 445 1120 376 848 c 0,35,36
 349 745 349 745 349 609 c 0,37,38
 349 201 349 201 563 109 c 0,19,20
526 1414 m 1,39,-1
 779 1880 l 1,40,-1
 989 1746 l 1,41,-1
 624 1359 l 1,42,-1
 526 1414 l 1,39,-1
EndSplineSet
EndChar

StartChar: ocircumflex
Encoding: 244 244 201
Width: 1364
GlyphClass: 2
Flags: W
LayerCount: 2
Fore
SplineSet
121 610 m 0,0,1
 121 688 121 688 136.5 765 c 128,-1,2
 152 842 152 842 183.5 911 c 128,-1,3
 215 980 215 980 262 1038 c 128,-1,4
 309 1096 309 1096 371 1138 c 0,5,6
 504 1228 504 1228 680 1228 c 0,7,8
 946 1228 946 1228 1100 1038 c 0,9,10
 1241 864 1241 864 1241 609 c 0,11,12
 1241 352 1241 352 1100 172 c 0,13,14
 946 -24 946 -24 680 -24 c 0,15,16
 415 -24 415 -24 260 175 c 0,17,18
 121 355 121 355 121 610 c 0,0,1
563 109 m 0,19,20
 614 87 614 87 681.5 87 c 128,-1,21
 749 87 749 87 800 108.5 c 128,-1,22
 851 130 851 130 888 168 c 128,-1,23
 925 206 925 206 949.5 256.5 c 128,-1,24
 974 307 974 307 989 365 c 0,25,26
 1016 469 1016 469 1016 570.5 c 128,-1,27
 1016 672 1016 672 1010 734.5 c 128,-1,28
 1004 797 1004 797 989 853.5 c 128,-1,29
 974 910 974 910 949.5 959 c 128,-1,30
 925 1008 925 1008 888 1044 c 0,31,32
 808 1120 808 1120 682 1120 c 0,33,34
 445 1120 445 1120 376 848 c 0,35,36
 349 745 349 745 349 609 c 0,37,38
 349 201 349 201 563 109 c 0,19,20
326 1406 m 1,39,-1
 554 1859 l 1,40,-1
 810 1859 l 1,41,-1
 1036 1406 l 1,42,-1
 951 1364 l 1,43,-1
 681 1706 l 1,44,-1
 411 1364 l 1,45,-1
 326 1406 l 1,39,-1
EndSplineSet
EndChar

StartChar: otilde
Encoding: 245 245 202
Width: 1364
GlyphClass: 2
Flags: W
LayerCount: 2
Fore
SplineSet
121 610 m 0,0,1
 121 688 121 688 136.5 765 c 128,-1,2
 152 842 152 842 183.5 911 c 128,-1,3
 215 980 215 980 262 1038 c 128,-1,4
 309 1096 309 1096 371 1138 c 0,5,6
 504 1228 504 1228 680 1228 c 0,7,8
 946 1228 946 1228 1100 1038 c 0,9,10
 1241 864 1241 864 1241 609 c 0,11,12
 1241 352 1241 352 1100 172 c 0,13,14
 946 -24 946 -24 680 -24 c 0,15,16
 415 -24 415 -24 260 175 c 0,17,18
 121 355 121 355 121 610 c 0,0,1
563 109 m 0,19,20
 614 87 614 87 681.5 87 c 128,-1,21
 749 87 749 87 800 108.5 c 128,-1,22
 851 130 851 130 888 168 c 128,-1,23
 925 206 925 206 949.5 256.5 c 128,-1,24
 974 307 974 307 989 365 c 0,25,26
 1016 469 1016 469 1016 570.5 c 128,-1,27
 1016 672 1016 672 1010 734.5 c 128,-1,28
 1004 797 1004 797 989 853.5 c 128,-1,29
 974 910 974 910 949.5 959 c 128,-1,30
 925 1008 925 1008 888 1044 c 0,31,32
 808 1120 808 1120 682 1120 c 0,33,34
 445 1120 445 1120 376 848 c 0,35,36
 349 745 349 745 349 609 c 0,37,38
 349 201 349 201 563 109 c 0,19,20
289 1438 m 1,39,40
 284 1470 284 1470 284 1504 c 128,-1,41
 284 1538 284 1538 304.5 1581.5 c 128,-1,42
 325 1625 325 1625 359 1657 c 0,43,44
 431 1725 431 1725 530 1725 c 0,45,46
 618 1725 618 1725 709 1649 c 128,-1,47
 800 1573 800 1573 855 1573 c 0,48,49
 902 1573 902 1573 924 1596 c 0,50,51
 966 1639 966 1639 960 1691 c 1,52,-1
 1073 1691 l 1,53,54
 1078 1658 1078 1658 1078 1624.5 c 128,-1,55
 1078 1591 1078 1591 1057.5 1547.5 c 128,-1,56
 1037 1504 1037 1504 1002 1472 c 0,57,58
 929 1404 929 1404 831 1404 c 0,59,60
 765 1404 765 1404 724 1432 c 128,-1,61
 683 1460 683 1460 661 1479.5 c 128,-1,62
 639 1499 639 1499 617 1516 c 0,63,64
 567 1555 567 1555 531 1555 c 128,-1,65
 495 1555 495 1555 473.5 1547 c 128,-1,66
 452 1539 452 1539 435 1524 c 0,67,68
 396 1488 396 1488 402 1438 c 1,69,-1
 289 1438 l 1,39,40
EndSplineSet
EndChar

